<svg width="70" height="70" viewBox="0 0 70 70" fill="none" xmlns="http://www.w3.org/2000/svg">
<circle cx="35" cy="35" r="35" fill="#FF6F00" fill-opacity="0.5"/>
<path d="M34.4068 44.0466C33.8168 44.0466 33.251 44.281 32.8338 44.6981C32.4166 45.1153 32.1822 45.6812 32.1822 46.2712C32.1822 46.8612 32.4166 47.427 32.8338 47.8442C33.251 48.2614 33.8168 48.4957 34.4068 48.4957C34.9968 48.4957 35.5626 48.2614 35.9798 47.8442C36.397 47.427 36.6314 46.8612 36.6314 46.2712C36.6314 45.6812 36.397 45.1153 35.9798 44.6981C35.5626 44.281 34.9968 44.0466 34.4068 44.0466ZM18.0932 30.6235L20.7256 33.2566C28.3485 25.9096 40.465 25.9096 48.0879 33.2566L50.7203 30.6235C41.6456 21.8253 27.168 21.8253 18.0932 30.6235Z" fill="#FF6F00"/>
<path d="M22.8316 35.3641L25.4707 38.0047C30.4782 33.2708 38.3369 33.2708 43.3444 38.0047L45.9835 35.3641C39.5203 29.1775 29.2932 29.1775 22.8316 35.3641Z" fill="#FF6F00"/>
<path d="M27.5759 40.1098L30.2083 42.7437C32.5975 40.6178 36.2161 40.6185 38.606 42.7437L41.2377 40.1113C37.3914 36.5372 31.4207 36.5379 27.5759 40.1098Z" fill="#FF6F00"/>
</svg>
