<svg width="404" height="407" viewBox="0 0 404 407" fill="none" xmlns="http://www.w3.org/2000/svg">
<circle cx="226" cy="229" r="178" fill="#F8F3F3"/>
<g clip-path="url(#clip0)">
<g opacity="0.3">
<path opacity="0.3" d="M398.316 33.5424V363.796H9.19388V33.5424H398.316ZM399.589 32.2667H7.91846V365.067H399.589V32.2667Z" fill="#C4ECFE"/>
<path opacity="0.3" d="M103.856 32.2667H102.666V365.067H103.856V32.2667Z" fill="#C4ECFE"/>
<path opacity="0.3" d="M153.692 32.2667H152.502V365.067H153.692V32.2667Z" fill="#C4ECFE"/>
<path opacity="0.3" d="M103.856 32.2667H102.666V365.067H103.856V32.2667Z" fill="#C4ECFE"/>
<path opacity="0.3" d="M54.0196 32.2667H52.829V365.067H54.0196V32.2667Z" fill="#C4ECFE"/>
<path opacity="0.3" d="M203.529 32.2667H202.338V365.067H203.529V32.2667Z" fill="#C4ECFE"/>
<path opacity="0.3" d="M253.365 32.2667H252.174V365.067H253.365V32.2667Z" fill="#C4ECFE"/>
<path opacity="0.3" d="M302.585 32.2667H301.395V365.067H302.585V32.2667Z" fill="#C4ECFE"/>
<path opacity="0.3" d="M351.805 32.2667H350.615V365.067H351.805V32.2667Z" fill="#C4ECFE"/>
</g>
<path d="M299.794 365.067C328.201 365.067 327.298 321.952 352.011 316.245C361.904 313.946 367.241 306.678 371.839 298.712C379.436 285.49 399.589 290.828 399.589 306.103V365.067H299.794Z" fill="url(#paint0_linear)"/>
<path d="M352.381 121.493H348.277C348.277 106.259 362.275 97.841 374.632 90.4091C385.549 83.8396 395.895 77.6384 395.895 67.9489H399.998C399.998 79.9386 388.175 87.0422 376.763 93.9406C364.778 101.126 352.381 108.558 352.381 121.493Z" fill="#F9D5FF"/>
<path d="M55.4975 202.301H51.3939C51.3939 197.291 40.2694 192.405 30.4581 188.135C17.8125 182.632 5.8667 177.417 5.8667 169H9.97025C9.97025 174.748 21.7108 179.881 32.0962 184.398C44.1262 189.613 55.4975 194.581 55.4975 202.301Z" fill="#F9D5FF"/>
<path d="M26.0229 74.0259C25.6863 74.0318 25.3563 73.9312 25.0802 73.7385L17.0738 68.2362C16.8878 68.1159 16.7278 67.9593 16.6035 67.7758C16.4792 67.5924 16.393 67.3858 16.3502 67.1683C16.3074 66.9508 16.3088 66.727 16.3543 66.51C16.3998 66.2931 16.4884 66.0876 16.615 65.9056C16.7416 65.7237 16.9034 65.5691 17.091 65.4511C17.2785 65.333 17.4879 65.254 17.7066 65.2185C17.9254 65.1831 18.149 65.1921 18.3642 65.245C18.5794 65.2978 18.7818 65.3934 18.9593 65.5261L26.9645 71.0284C27.2524 71.2285 27.4689 71.5154 27.5822 71.8472C27.6956 72.179 27.7 72.5384 27.5947 72.8729C27.4894 73.2074 27.28 73.4995 26.9971 73.7065C26.7141 73.9135 26.3724 74.0246 26.0218 74.0236L26.0229 74.0259Z" fill="#F7E5B5"/>
<path d="M218.002 72.5333H345.465C349.177 72.5361 352.737 74.0068 355.363 76.6223C357.988 79.2379 359.464 82.7845 359.467 86.4835V257.256C359.464 260.955 357.988 264.501 355.363 267.117C352.737 269.732 349.177 271.203 345.465 271.206H218.002C214.289 271.203 210.729 269.732 208.104 267.117C205.479 264.501 204.003 260.955 204 257.256V86.4835C204.044 82.7971 205.533 79.274 208.149 76.6672C210.766 74.0604 214.302 72.5767 218.002 72.5333V72.5333Z" fill="#F9D5FF"/>
<path d="M350.354 88.4072H213.113V245.464H350.354V88.4072Z" fill="white"/>
<path d="M281.733 264.105C285.2 264.105 288.01 261.306 288.01 257.852C288.01 254.398 285.2 251.598 281.733 251.598C278.266 251.598 275.456 254.398 275.456 257.852C275.456 261.306 278.266 264.105 281.733 264.105Z" fill="white"/>
<path d="M358.324 264.507C351.578 234.701 321.916 228.92 317.34 215.237C312.765 201.554 324.598 181.46 309.964 164.04C308.742 162.586 307.598 161.249 306.532 159.991C302.035 154.722 298.841 148.588 295.488 142.572C288.033 129.085 278.251 129.36 278.251 129.36C278.251 129.36 265.312 130.736 260.736 152.363C257.501 156.846 254.347 160.935 249.81 167.108C236.399 185.471 249.574 196.245 245.905 210.204C242.276 224.164 216.321 231.909 211.589 262.108C205.317 302.333 238.728 332.847 269.1 325.061C283.537 321.365 286.614 320.225 301.288 322.977C332.211 328.679 367.317 304.221 358.324 264.507Z" fill="url(#paint1_linear)"/>
<path d="M294.457 331.337L288.67 317.248L327.469 312.522C336.083 332.273 347.073 362.903 358.767 396.747L335.247 409.36C320.116 385.301 307.474 359.152 294.457 331.337Z" fill="#EA7068"/>
<path d="M234.217 323.768H274.057L260.923 412.362H234.217V323.768Z" fill="#EA7068"/>
<path d="M234.845 325.597L272.174 336.511L275.457 316.872L234.845 325.597Z" fill="#2B2B2B"/>
<path d="M292.03 325.597L337.96 339.033L329.847 317.247L292.03 325.597Z" fill="#2B2B2B"/>
<path d="M314.302 221.016C323.177 243.312 333.197 268.831 335.879 277.325C341.164 293.879 338.325 299.778 333.276 303.199C328.227 306.62 310.634 225.342 314.302 221.016Z" fill="#2B2B2B"/>
<path d="M310.477 288.807L315.525 300.407C317.853 305.754 324.085 308.233 329.489 305.913C334.223 303.868 336.708 298.756 335.643 293.92L332.764 280.826L310.477 288.807Z" fill="#EA7068"/>
<path d="M213.993 190.307L222.238 203.833L245.747 187.632C251.388 181.812 260.696 181.694 266.494 187.318C272.333 192.941 272.451 202.22 266.81 208.001L223.105 239.811C216.951 244.294 208.155 241.344 205.986 234.031L192.141 199.31L213.993 190.307Z" fill="url(#paint2_linear)"/>
<path d="M192.141 199.39L188.039 187.397C186.145 181.852 189.104 175.836 194.665 173.949C199.557 172.298 204.842 174.381 207.328 178.707L213.995 190.307" fill="#EA7068"/>
<path d="M289.097 157.002C292.299 157.002 294.896 154.413 294.896 151.221C294.896 148.029 292.299 145.44 289.097 145.44C285.894 145.44 283.298 148.029 283.298 151.221C283.298 154.413 285.894 157.002 289.097 157.002Z" fill="#EA7068"/>
<path d="M332.763 280.864L305.861 193.648C302.823 186.178 292.253 181.341 284.757 184.368C277.263 187.397 273.634 195.929 276.671 203.439L310.475 288.845L332.763 280.864Z" fill="url(#paint3_linear)"/>
<path d="M295.171 222.983C298.761 233.325 293.515 247.401 281.839 246.93C272.846 246.537 272.214 246.89 268.388 246.733C256.397 246.223 248.627 233.678 252.571 222.394L295.171 222.983Z" fill="url(#paint4_linear)"/>
<path d="M252.198 223.274C252.198 223.274 252.781 220.099 252.86 216.677C252.939 213.256 245.55 207.569 245.983 197.148C246.338 189.126 255.253 177.527 269.216 177.999L280.497 178.746C292.803 179.178 302.31 190.109 302.625 198.643H302.665C302.665 198.879 302.625 199.115 302.625 199.352C302.625 199.43 302.625 199.509 302.625 199.587C301.599 213.783 291.866 213.525 295.337 223.67L252.198 223.274Z" fill="url(#paint5_linear)"/>
<path d="M265.458 182.931L273.68 201.799L282.669 183.867L265.458 182.931Z" fill="white"/>
<path d="M262.55 155.94C265.753 155.94 268.349 153.352 268.349 150.159C268.349 146.967 265.753 144.379 262.55 144.379C259.348 144.379 256.751 146.967 256.751 150.159C256.751 153.352 259.348 155.94 262.55 155.94Z" fill="#EA7068"/>
<path d="M268.073 186.925L258.133 180.398C258.133 180.398 262.274 177.803 269.178 178.039L268.073 186.925Z" fill="#2B2B2B"/>
<path d="M283.456 180.083L283.219 152.951L266.81 152.361L264.995 179.454C264.561 184.566 268.584 188.931 273.712 189.049H274.422C279.393 189.127 283.497 185.076 283.456 180.083Z" fill="#EA7068"/>
<path d="M269.217 167.815L283.406 176.002L283.456 165.023L269.217 167.815Z" fill="#2B2B2B"/>
<path d="M274.699 168.955C281.918 168.955 287.953 163.528 288.703 156.373L290.044 143.869C290.044 135.376 283.101 128.534 274.62 128.534C266.1 128.534 259.236 135.455 259.236 143.909L260.617 156.412C261.446 163.569 267.481 168.955 274.699 168.955Z" fill="#EA7068"/>
<path d="M274.226 153.148C274.069 153.148 273.872 153.07 273.793 152.873C273.675 152.638 273.754 152.323 273.99 152.206L275.41 151.419C275.567 151.301 275.646 151.144 275.686 150.987C275.725 150.79 275.686 150.594 275.567 150.435C274.699 149.256 274.266 147.84 274.424 146.464L274.463 146.032C274.502 145.757 274.739 145.561 275.015 145.6C275.29 145.64 275.487 145.875 275.448 146.15L275.409 146.582C275.29 147.723 275.645 148.902 276.395 149.886C276.671 150.278 276.789 150.712 276.71 151.183C276.631 151.615 276.395 152.009 276 152.284L275.96 152.323L274.501 153.11C274.384 153.109 274.305 153.148 274.226 153.148Z" fill="#2B2B2B"/>
<path d="M277.145 157.237C276.751 161.169 272.411 160.068 272.411 157.237H277.145Z" fill="white"/>
<path d="M295.171 223.533C294.935 223.533 294.738 223.376 294.699 223.14C293.87 219.326 293.515 215.434 296.711 212.68C296.908 212.484 297.223 212.523 297.421 212.719C297.618 212.916 297.579 213.23 297.382 213.428C295.094 215.394 294.621 218.068 295.686 222.944C295.726 223.219 295.568 223.495 295.292 223.534C295.25 223.533 295.211 223.533 295.171 223.533Z" fill="#2B2B2B"/>
<path d="M281.76 148.901C282.61 148.901 283.298 148.215 283.298 147.368C283.298 146.521 282.61 145.835 281.76 145.835C280.911 145.835 280.222 146.521 280.222 147.368C280.222 148.215 280.911 148.901 281.76 148.901Z" fill="#2B2B2B"/>
<path d="M268.388 148.979C269.281 148.979 270.005 148.258 270.005 147.368C270.005 146.478 269.281 145.756 268.388 145.756C267.495 145.756 266.771 146.478 266.771 147.368C266.771 148.258 267.495 148.979 268.388 148.979Z" fill="#2B2B2B"/>
<path d="M289.097 134.274C289.097 134.274 281.76 141.47 259.237 147.407C257.856 141.862 260.642 133.708 265.997 130.758C272.918 126.944 279.29 127.06 289.097 134.274Z" fill="url(#paint6_linear)"/>
<path d="M283.101 132.071C283.101 132.071 282.983 145.441 290.991 162.388C302.666 155.94 293.555 132.346 283.101 132.071Z" fill="url(#paint7_linear)"/>
<path d="M252.61 222.865H252.571C252.295 222.826 252.098 222.59 252.137 222.315C252.689 217.282 251.822 213.35 249.298 209.692C249.14 209.457 249.219 209.141 249.416 208.984C249.653 208.827 249.968 208.906 250.127 209.102C252.809 212.994 253.716 217.124 253.124 222.432C253.083 222.669 252.847 222.865 252.61 222.865Z" fill="#2B2B2B"/>
<path d="M226.971 213.546C226.774 213.546 226.617 213.467 226.538 213.27L221.804 204.108C221.686 203.873 221.765 203.557 222.001 203.439C222.238 203.321 222.553 203.4 222.672 203.635L227.406 212.798C227.524 213.034 227.445 213.348 227.209 213.467C227.129 213.506 227.05 213.546 226.971 213.546Z" fill="#2B2B2B"/>
<path d="M233.37 325.513H333.216L295.487 224.91L286.993 232.177L252.61 222.394C249.375 229.079 232.059 285.347 232.849 302.885C233.035 307.064 233.213 315.327 233.37 325.513Z" fill="url(#paint8_linear)"/>
<path d="M274.648 230.913L281.981 249.766H304.774L307.091 255.152H279.326L274.648 230.913Z" fill="#2B2B2B"/>
<path d="M269.534 255.461H250.081L266.754 251.372L272.842 237.52L269.534 255.461Z" fill="#2B2B2B"/>
<path d="M317.893 421.451L357.878 406.348C359.98 405.553 361.048 403.258 360.288 401.149L358.483 396.069L333.314 405.87L315.959 417.808C313.957 419.195 315.607 422.315 317.893 421.451Z" fill="#2B2B2B"/>
<path d="M332.543 326.792C332.275 326.792 332.023 326.628 331.926 326.363L315.841 282.697C315.716 282.357 315.89 281.982 316.232 281.856C316.569 281.734 316.95 281.904 317.075 282.246L333.161 325.912C333.285 326.251 333.111 326.627 332.769 326.753C332.696 326.779 332.619 326.792 332.543 326.792Z" fill="#2B2B2B"/>
<path d="M260.215 152.37H256.836V132.461C256.836 127.796 261.144 124 266.439 124H283.604C288.899 124 293.207 127.796 293.207 132.461V151.665H289.828V132.461C289.828 129.67 287.036 127.398 283.604 127.398H266.439C263.007 127.398 260.215 129.67 260.215 132.461V152.37Z" fill="#FDE545"/>
<path d="M261.115 160.525C260 160.525 259.088 159.607 259.088 158.486V146.254C259.088 145.133 260 144.215 261.115 144.215C262.23 144.215 263.142 145.133 263.142 146.254V158.486C263.142 159.607 262.23 160.525 261.115 160.525Z" fill="#FDE545"/>
<path d="M271.365 165.013H262.953C260.139 165.013 257.85 162.71 257.85 159.88V152.37H259.201V159.88C259.201 161.961 260.884 163.653 262.953 163.653H271.365V165.013Z" fill="#2B2B2B"/>
<path d="M271.042 166.667C272.395 166.667 273.492 165.564 273.492 164.203C273.492 162.843 272.395 161.74 271.042 161.74C269.689 161.74 268.593 162.843 268.593 164.203C268.593 165.564 269.689 166.667 271.042 166.667Z" fill="#2B2B2B"/>
<path d="M259.876 156.674H256.714C255.356 156.674 254.245 155.556 254.245 154.191V150.548C254.245 149.183 255.356 148.066 256.714 148.066H259.876V156.674Z" fill="#FDE545"/>
<path d="M259.764 153.842C259.391 153.842 259.089 153.538 259.089 153.162V149.085H257.399C256.343 149.085 255.485 149.949 255.485 151.011C255.485 151.387 255.183 151.69 254.809 151.69C254.435 151.69 254.133 151.387 254.133 151.011C254.133 149.2 255.598 147.726 257.399 147.726H260.44V153.162C260.44 153.538 260.137 153.842 259.764 153.842Z" fill="#2B2B2B"/>
<path d="M288.483 160.525C289.598 160.525 290.511 159.607 290.511 158.486V146.254C290.511 145.133 289.598 144.215 288.483 144.215C287.368 144.215 286.456 145.133 286.456 146.254V158.486C286.456 159.607 287.368 160.525 288.483 160.525Z" fill="#FDE545"/>
<path d="M289.723 156.674H292.885C294.243 156.674 295.354 155.556 295.354 154.191V150.548C295.354 149.183 294.243 148.066 292.885 148.066H289.723V156.674Z" fill="#FDE545"/>
<path d="M289.836 153.842C289.462 153.842 289.16 153.538 289.16 153.162V147.726H292.201C294.002 147.726 295.467 149.2 295.467 151.011C295.467 151.387 295.165 151.69 294.791 151.69C294.417 151.69 294.115 151.387 294.115 151.011C294.115 149.949 293.256 149.085 292.201 149.085H290.511V153.162C290.511 153.538 290.209 153.842 289.836 153.842Z" fill="#2B2B2B"/>
<path d="M142.005 205.499L173.265 281.105L170.21 275.915L214.836 341.083C217.032 344.283 217.939 348.195 217.376 352.037C216.812 355.878 214.819 359.365 211.797 361.797C208.774 364.229 204.945 365.428 201.078 365.152C197.21 364.877 193.589 363.148 190.941 360.312L136.986 302.624C135.897 301.463 135.028 300.112 134.422 298.639L133.931 297.437L102.669 221.833C101.58 219.244 101.013 216.465 101 213.655C100.988 210.846 101.53 208.061 102.596 205.463C103.661 202.864 105.229 200.501 107.21 198.511C109.19 196.521 111.544 194.942 114.135 193.866C116.727 192.79 119.506 192.237 122.311 192.24C125.117 192.242 127.895 192.8 130.484 193.881C133.074 194.962 135.425 196.545 137.401 198.539C139.378 200.533 140.942 202.898 142.003 205.499H142.005Z" fill="#8670BD"/>
<path d="M150.843 258.871C148.934 237.347 134.26 239.642 138.678 224.674C143.1 209.761 134.75 190.04 118.275 191.463C105.563 192.61 104.64 192.118 99.2894 192.61C94.1611 193.047 83.8508 199.384 79.9791 201.952C70.9232 207.906 74.0873 217.138 78.452 228.225C78.452 228.225 69.7779 223.09 70.1051 227.952C70.4323 232.814 71.8504 251.88 73.1601 266.629L150.843 258.871Z" fill="#8670BD"/>
<path d="M150.571 261.656C153.135 272.909 154.993 293.667 156.626 305.03C158.259 316.393 159.574 327.755 160.718 339.173L161.482 347.749L161.863 352.01L162.191 356.271L162.845 364.848L163.391 373.424L163.664 377.74L163.885 382.055L164.321 390.633C164.703 396.369 164.485 402.105 164.431 407.841C164.049 430.839 163.231 453.893 161.757 476.945L161.212 485.576L160.557 494.207C160.336 497.102 160.066 499.998 159.848 502.838L159.466 507.154L159.03 511.47L158.157 520.101C157.993 521.522 157.884 522.996 157.721 524.417L157.23 528.732C156.902 531.627 156.575 534.523 156.193 537.363C155.811 540.258 155.429 543.154 154.94 545.998L113.696 548.62L105.018 412.922C104.527 401.556 102.944 390.36 101.69 379.107L97.8168 345.348L90.1244 277.882L150.571 261.656Z" fill="url(#paint9_linear)"/>
<path d="M121.057 339.939C127.33 386.591 117.675 395.332 123.403 429.201C129.404 464.545 112.383 484.048 111.946 523.107L100.981 365.122L121.057 339.939Z" fill="#2B2B2B"/>
<path d="M138.187 283.944C136.114 295.689 133.277 307.215 130.276 318.742C127.221 330.214 123.911 341.613 120.347 352.939C116.801 364.304 112.928 375.555 108.997 386.754L96.7769 420.35C88.5958 442.748 43.586 547.579 40.8037 552.987L0.109131 547.253L39.6613 404.837C41.2982 399.101 42.8799 393.365 44.5168 387.629L49.5353 370.476L69.0114 307.596L73.1034 266.68L138.187 283.944Z" fill="url(#paint10_linear)"/>
<path d="M73.1033 266.683C74.085 278.049 84.996 291.867 104.745 290.282L120.675 288.479C138.678 287.059 151.771 269.687 150.68 257.451L73.1033 266.683Z" fill="url(#paint11_linear)"/>
<path d="M124.057 179.005L109.164 179.551C105.462 179.673 101.863 178.322 99.1539 175.793C96.4448 173.264 94.8464 169.764 94.7086 166.058L93.9451 143.548C93.8268 140.609 94.2897 137.675 95.3071 134.916C96.3244 132.156 97.8763 129.625 99.8734 127.468C101.871 125.311 104.274 123.57 106.945 122.346C109.616 121.122 112.502 120.438 115.438 120.334V120.334C121.362 120.127 127.126 122.283 131.463 126.33C135.8 130.376 138.356 135.98 138.569 141.912L139.278 162.562C139.364 164.644 139.038 166.723 138.318 168.678C137.599 170.633 136.5 172.427 135.085 173.955C133.671 175.484 131.968 176.717 130.075 177.583C128.182 178.45 126.137 178.933 124.057 179.005V179.005Z" fill="#EA7068"/>
<path d="M138.896 150.871C138.322 150.759 137.804 150.455 137.427 150.008C137.05 149.561 136.837 148.998 136.823 148.413C136.83 147.857 137.022 147.319 137.367 146.884C137.713 146.449 138.193 146.141 138.732 146.009L138.896 150.871Z" fill="#2B2B2B"/>
<path d="M93.7793 198.562L129.404 220.468L121.875 192.334L93.7793 198.562Z" fill="white"/>
<path d="M113.201 204.953L93.8337 198.562L94.3246 155.897L118.111 155.077L121.875 198.07C121.964 199.162 121.783 200.26 121.347 201.265C120.911 202.271 120.234 203.153 119.376 203.834C118.518 204.514 117.506 204.973 116.428 205.168C115.351 205.363 114.243 205.29 113.201 204.953V204.953Z" fill="#EA7068"/>
<path d="M133.441 156.334C133.321 156.337 133.202 156.308 133.097 156.251C132.991 156.193 132.903 156.109 132.841 156.007C132.79 155.927 132.756 155.839 132.74 155.747C132.724 155.655 132.727 155.56 132.747 155.469C132.768 155.377 132.806 155.291 132.86 155.214C132.914 155.138 132.983 155.073 133.062 155.023L135.026 153.768C135.131 153.683 135.216 153.575 135.273 153.451C135.329 153.328 135.357 153.194 135.353 153.058C135.362 152.919 135.343 152.779 135.296 152.647C135.249 152.516 135.176 152.395 135.08 152.293L131.752 148.633C131.642 148.485 131.591 148.302 131.609 148.119C131.627 147.935 131.712 147.765 131.849 147.642C131.986 147.519 132.164 147.451 132.348 147.453C132.532 147.454 132.709 147.525 132.844 147.65L136.171 151.31C136.601 151.811 136.834 152.452 136.826 153.113C136.807 153.448 136.719 153.776 136.569 154.077C136.419 154.377 136.21 154.644 135.953 154.86L135.899 154.915L133.88 156.226C133.748 156.308 133.595 156.345 133.441 156.334V156.334Z" fill="#2B2B2B"/>
<path d="M120.183 179.169L110.691 177.857L121.057 188.783L120.183 179.169Z" fill="#2B2B2B"/>
<path d="M124.821 151.527C126.207 151.527 127.33 150.402 127.33 149.014C127.33 147.626 126.207 146.501 124.821 146.501C123.435 146.501 122.311 147.626 122.311 149.014C122.311 150.402 123.435 151.527 124.821 151.527Z" fill="#2B2B2B"/>
<path d="M157.39 276.68L174.52 278.046C178.386 278.348 181.996 280.099 184.629 282.95C187.262 285.8 188.725 289.541 188.725 293.423C188.725 297.306 187.262 301.046 184.629 303.897C181.996 306.748 178.386 308.499 174.52 308.801L157.336 310.167" fill="#EA7068"/>
<path d="M205.967 328.146L216.024 342.1C218.296 345.246 219.3 349.134 218.836 352.988C218.371 356.842 216.472 360.38 213.517 362.894C210.563 365.407 206.771 366.713 202.897 366.551C199.023 366.388 195.354 364.769 192.62 362.016L180.452 349.788L205.967 328.146Z" fill="#EA7068"/>
<path d="M72.3398 250.185C76.1584 260.565 77.631 306.78 77.631 306.78C77.6281 309.104 78.1285 311.401 79.0977 313.512C80.0669 315.624 81.4818 317.5 83.245 319.011C85.0082 320.522 87.0777 321.632 89.3107 322.265C91.5438 322.898 93.8874 323.039 96.1799 322.677L154.774 310.167C154.774 310.167 103.984 286.24 103.711 286.568C103.438 286.895 78.5589 261.656 72.3398 250.185Z" fill="#2B2B2B"/>
<path d="M157.336 310.167L99.453 314.756C94.4748 315.153 89.5341 313.624 85.6474 310.484C81.7607 307.344 79.2239 302.832 78.5589 297.876L78.3378 296.236L68.8448 223.636C68.4794 220.86 68.6637 218.039 69.3871 215.334C70.1106 212.629 71.359 210.093 73.0612 207.871C74.7633 205.649 76.8858 203.785 79.3075 202.385C81.7292 200.984 84.4026 200.075 87.1751 199.709C89.9477 199.343 92.7651 199.528 95.4664 200.252C98.1677 200.977 100.7 202.227 102.919 203.931C105.138 205.636 107 207.761 108.398 210.186C109.797 212.611 110.705 215.288 111.07 218.064L120.618 290.664L99.5075 272.091L157.445 276.68" fill="#8670BD"/>
<path d="M116.038 141.585L138.569 140.33L140.369 136.345C141.177 134.55 141.523 132.58 141.374 130.617C141.225 128.653 140.587 126.758 139.517 125.106C138.448 123.453 136.982 122.095 135.253 121.157C133.525 120.218 131.588 119.729 129.622 119.733H99.5076C97.8233 119.732 96.1584 120.093 94.6262 120.794C93.0939 121.494 91.7302 122.516 90.6277 123.791C89.5252 125.066 88.7099 126.564 88.237 128.183C87.7642 129.801 87.645 131.503 87.8875 133.172L94.0521 176.547L106.982 153.111L107.8 166.112H107.854L108.018 172.723C108.072 174.482 108.809 176.151 110.072 177.375C111.335 178.598 113.025 179.281 114.783 179.278L124.003 179.223C125.98 179.224 127.939 178.834 129.766 178.077C131.593 177.32 133.253 176.209 134.651 174.809C136.049 173.409 137.158 171.746 137.915 169.917C138.671 168.087 139.06 166.126 139.06 164.146V160.103C139.063 159.155 138.693 158.244 138.029 157.569C137.364 156.894 136.46 156.509 135.514 156.498H129.622C128.458 156.501 127.315 156.804 126.302 157.378C125.289 157.952 124.441 158.778 123.839 159.776L123.785 159.885C123.197 160.851 122.372 161.649 121.388 162.204C120.405 162.759 119.295 163.051 118.166 163.053L115.492 163.108C114.483 163.124 113.507 162.745 112.773 162.051C112.04 161.357 111.606 160.403 111.564 159.393L111.019 147.321C110.967 146.613 111.057 145.902 111.282 145.23C111.508 144.557 111.864 143.936 112.331 143.402C112.798 142.869 113.366 142.433 114.002 142.121C114.639 141.809 115.33 141.627 116.038 141.585Z" fill="#2B2B2B"/>
<path d="M129.077 163.108C129.077 167.369 135.514 166.932 135.514 162.507L129.077 163.108Z" fill="white"/>
<path d="M107.854 162.671L104.199 162.944C103.714 162.983 103.226 162.925 102.764 162.772C102.302 162.619 101.875 162.375 101.509 162.054C101.143 161.734 100.845 161.342 100.632 160.904C100.419 160.466 100.297 159.989 100.271 159.503L99.8893 153.767C99.85 153.281 99.9084 152.792 100.061 152.33C100.214 151.867 100.457 151.44 100.778 151.073C101.098 150.706 101.489 150.408 101.927 150.195C102.364 149.982 102.84 149.859 103.326 149.834V149.834C103.811 149.794 104.299 149.853 104.761 150.006C105.223 150.158 105.65 150.402 106.016 150.723C106.383 151.044 106.681 151.435 106.894 151.874C107.106 152.312 107.229 152.788 107.254 153.275L107.854 162.671Z" fill="#EA7068"/>
<path d="M150.734 258.379C150.535 258.38 150.343 258.308 150.193 258.177C150.043 258.047 149.944 257.867 149.916 257.669C148.88 247.672 137.368 228.661 137.259 228.444C137.145 228.255 137.109 228.029 137.161 227.815C137.212 227.601 137.347 227.415 137.534 227.3C137.722 227.184 137.947 227.148 138.162 227.198C138.376 227.249 138.562 227.383 138.678 227.57C139.169 228.334 150.461 247.072 151.552 257.452C151.567 257.556 151.561 257.663 151.532 257.765C151.504 257.867 151.455 257.962 151.389 258.044C151.322 258.126 151.239 258.194 151.145 258.242C151.052 258.29 150.949 258.319 150.843 258.326C150.789 258.379 150.789 258.379 150.734 258.379Z" fill="#2B2B2B"/>
<path d="M116.474 261.384C116.278 261.375 116.09 261.301 115.941 261.172C115.793 261.043 115.692 260.867 115.656 260.674L113.092 239.915C113.062 239.698 113.121 239.478 113.253 239.303C113.386 239.129 113.582 239.014 113.799 238.985C114.016 238.956 114.236 239.014 114.41 239.147C114.584 239.279 114.699 239.476 114.728 239.693L117.292 260.453C117.315 260.669 117.255 260.886 117.123 261.059C116.991 261.231 116.798 261.347 116.583 261.381L116.474 261.384Z" fill="#2B2B2B"/>
<path d="M103.709 402.106C103.614 402.12 103.518 402.101 103.436 402.052C103.336 402.016 103.243 401.961 103.164 401.889C103.085 401.817 103.021 401.731 102.975 401.634C102.929 401.538 102.903 401.433 102.898 401.327C102.893 401.22 102.908 401.114 102.944 401.013C116.638 364.958 128.476 322.239 128.64 321.802C128.699 321.602 128.835 321.432 129.019 321.332C129.202 321.231 129.418 321.207 129.619 321.264C129.82 321.322 129.991 321.456 130.094 321.639C130.196 321.821 130.223 322.037 130.167 322.239C130.058 322.676 118.166 365.451 104.472 401.559C104.416 401.718 104.313 401.855 104.176 401.953C104.04 402.051 103.877 402.104 103.709 402.106V402.106Z" fill="#2B2B2B"/>
<path d="M229.728 156.68H176.672V183.854H229.728V156.68Z" fill="white"/>
<path d="M230.933 185.067H175.467V155.467H230.933V185.067ZM177.878 182.64H228.522V157.893H177.878V182.64Z" fill="#BE6361"/>
<path d="M221.736 171.193H204.202V173.619H221.736V171.193Z" fill="#BE6361"/>
<path d="M221.736 164.481H204.202V166.907H221.736V164.481Z" fill="#BE6361"/>
<path d="M189.399 168.749C191.185 168.749 192.633 167.292 192.633 165.495C192.633 163.698 191.185 162.241 189.399 162.241C187.613 162.241 186.165 163.698 186.165 165.495C186.165 167.292 187.613 168.749 189.399 168.749Z" fill="#ABABC2"/>
<path d="M189.785 167.933H189.029C185.242 167.933 182.172 171.022 182.172 174.832V179.197H196.642V174.832C196.642 171.022 193.572 167.933 189.785 167.933Z" fill="#ABABC2"/>
</g>
<defs>
<linearGradient id="paint0_linear" x1="349.691" y1="304.451" x2="349.691" y2="362.638" gradientUnits="userSpaceOnUse">
<stop stop-color="#FFD8A1"/>
<stop offset="0.996" stop-color="white"/>
</linearGradient>
<linearGradient id="paint1_linear" x1="289.991" y1="309.312" x2="264.002" y2="114.252" gradientUnits="userSpaceOnUse">
<stop stop-color="#FFE0C2"/>
<stop offset="0.401" stop-color="#7AAEFC"/>
<stop offset="0.5908" stop-color="#B8C1FC"/>
<stop offset="1" stop-color="#D2D4D4"/>
</linearGradient>
<linearGradient id="paint2_linear" x1="188.727" y1="307.765" x2="183.473" y2="321.025" gradientUnits="userSpaceOnUse">
<stop stop-color="#6B9C83"/>
<stop offset="0.401" stop-color="#A6A6A4"/>
<stop offset="0.5011" stop-color="#9F9FC8"/>
<stop offset="0.5908" stop-color="#9FCCEC"/>
<stop offset="1" stop-color="#FFE7B0"/>
</linearGradient>
<linearGradient id="paint3_linear" x1="336.244" y1="499.528" x2="337.979" y2="513.684" gradientUnits="userSpaceOnUse">
<stop stop-color="#6B9C83"/>
<stop offset="0.401" stop-color="#A6A6A4"/>
<stop offset="0.5011" stop-color="#9F9FC8"/>
<stop offset="0.5908" stop-color="#9FCCEC"/>
<stop offset="1" stop-color="#FFE7B0"/>
</linearGradient>
<linearGradient id="paint4_linear" x1="274.054" y1="223.104" x2="274.054" y2="387.548" gradientUnits="userSpaceOnUse">
<stop stop-color="#6B9C83"/>
<stop offset="0.401" stop-color="#A6A6A4"/>
<stop offset="0.5011" stop-color="#9F9FC8"/>
<stop offset="0.5908" stop-color="#9FCCEC"/>
<stop offset="1" stop-color="#FFE7B0"/>
</linearGradient>
<linearGradient id="paint5_linear" x1="274.17" y1="472.747" x2="274.17" y2="479.738" gradientUnits="userSpaceOnUse">
<stop stop-color="#6B9C83"/>
<stop offset="0.401" stop-color="#A6A6A4"/>
<stop offset="0.5011" stop-color="#9F9FC8"/>
<stop offset="0.5908" stop-color="#9FCCEC"/>
<stop offset="1" stop-color="#FFE7B0"/>
</linearGradient>
<linearGradient id="paint6_linear" x1="286.956" y1="337.163" x2="272.622" y2="119.519" gradientUnits="userSpaceOnUse">
<stop stop-color="#FFE0C2"/>
<stop offset="0.401" stop-color="#7AAEFC"/>
<stop offset="0.5908" stop-color="#B8C1FC"/>
<stop offset="1" stop-color="#D2D4D4"/>
</linearGradient>
<linearGradient id="paint7_linear" x1="204.44" y1="308.372" x2="294.606" y2="133.168" gradientUnits="userSpaceOnUse">
<stop stop-color="#FFE0C2"/>
<stop offset="0.401" stop-color="#7AAEFC"/>
<stop offset="0.5908" stop-color="#B8C1FC"/>
<stop offset="1" stop-color="#D2D4D4"/>
</linearGradient>
<linearGradient id="paint8_linear" x1="283.019" y1="221.207" x2="283.019" y2="334.678" gradientUnits="userSpaceOnUse">
<stop stop-color="#6B9C83"/>
<stop offset="0.401" stop-color="#A6A6A4"/>
<stop offset="0.5011" stop-color="#9F9FC8"/>
<stop offset="0.5908" stop-color="#9FCCEC"/>
<stop offset="1" stop-color="#FFE7B0"/>
</linearGradient>
<linearGradient id="paint9_linear" x1="127.332" y1="544.685" x2="127.332" y2="283.547" gradientUnits="userSpaceOnUse">
<stop stop-color="#D96359"/>
<stop offset="0.322" stop-color="#90979D"/>
<stop offset="0.501" stop-color="#7E9DAE"/>
<stop offset="0.683" stop-color="#B8C1FC"/>
<stop offset="1" stop-color="#D2D4D4"/>
</linearGradient>
<linearGradient id="paint10_linear" x1="13623.5" y1="-61051.4" x2="13623.5" y2="-162695" gradientUnits="userSpaceOnUse">
<stop stop-color="#D96359"/>
<stop offset="0.322" stop-color="#90979D"/>
<stop offset="0.501" stop-color="#7E9DAE"/>
<stop offset="0.683" stop-color="#B8C1FC"/>
<stop offset="1" stop-color="#D2D4D4"/>
</linearGradient>
<linearGradient id="paint11_linear" x1="11863.3" y1="-6861.91" x2="11863.3" y2="-18528.1" gradientUnits="userSpaceOnUse">
<stop stop-color="#D96359"/>
<stop offset="0.322" stop-color="#90979D"/>
<stop offset="0.501" stop-color="#7E9DAE"/>
<stop offset="0.683" stop-color="#B8C1FC"/>
<stop offset="1" stop-color="#D2D4D4"/>
</linearGradient>
<clipPath id="clip0">
<rect width="400" height="400" fill="white"/>
</clipPath>
</defs>
</svg>
