<svg width="30" height="30" viewBox="0 0 30 30" fill="none" xmlns="http://www.w3.org/2000/svg">
<path d="M28.5938 13.5938L14.9766 5.625L1.40625 13.5938V15L15 21.0938L28.5938 15V13.5938Z" fill="#FAEFDE"/>
<path d="M10.425 2.31563H22.5C22.873 2.31563 23.2306 2.46379 23.4944 2.72751C23.7581 2.99123 23.9062 3.34892 23.9062 3.72188V16.8469L14.9766 21.0656L6.09375 16.8469V6.64688C6.09408 6.27404 6.24245 5.9166 6.50625 5.65313L9.43125 2.72813C9.69472 2.46433 10.0522 2.31596 10.425 2.31563V2.31563Z" fill="#BBDEF9"/>
<path d="M23.9062 13.8141V4.04531L11.7516 19.3969L13.5938 20.625L17.3438 20.1562L19.8281 18.9703L23.9062 13.8141ZM10.6828 18.75L23.6719 2.34375H21.5625L8.90625 18.3281L10.6828 18.75ZM7.5 17.9109L20.3906 2.34375H19.6875L7.03125 17.5922L7.5 17.9109Z" fill="#CCE7FC"/>
<path d="M20.8594 9.84375L21.4406 10.9031L22.5 11.4844L21.4406 12.0656L20.8594 13.125L20.2781 12.0656L19.2188 11.4844L20.2781 10.9031L20.8594 9.84375ZM15.1969 3.75L15.5953 4.48125L16.3313 4.88438L15.5953 5.28281L15.1969 6.01875L14.7937 5.28281L14.0625 4.88438L14.7937 4.48125L15.1969 3.75ZM14.8359 17.8125L15.1078 18.3094L15.6094 18.5859L15.1078 18.8578L14.8359 19.3594L14.5641 18.8578L14.0625 18.5859L14.5641 18.3094L14.8359 17.8125Z" fill="white"/>
<path d="M10.7812 2.31563V7.00313H6.09375L10.7812 2.31563Z" fill="#FFEFB8"/>
<path d="M27.6562 27.7641H2.29218C2.04353 27.7641 1.80508 27.6653 1.62926 27.4895C1.45345 27.3137 1.35468 27.0752 1.35468 26.8266V14.9391L15 21.0328L28.5937 14.9391V26.8266C28.5937 27.0752 28.495 27.3137 28.3192 27.4895C28.1433 27.6653 27.9049 27.7641 27.6562 27.7641Z" fill="#FD8467"/>
<path d="M3.22968 24.375H26.7187C27.216 24.375 27.6929 24.5725 28.0446 24.9242C28.3962 25.2758 28.5937 25.7527 28.5937 26.25V26.8266C28.5937 27.0752 28.495 27.3137 28.3192 27.4895C28.1433 27.6653 27.9049 27.7641 27.6562 27.7641H2.29218C2.04353 27.7641 1.80508 27.6653 1.62926 27.4895C1.45345 27.3137 1.35468 27.0752 1.35468 26.8266V26.25C1.35468 25.7527 1.55222 25.2758 1.90385 24.9242C2.25548 24.5725 2.73239 24.375 3.22968 24.375Z" fill="#FD8467"/>
<path d="M28.3781 12.9188L24.375 10.5141V3.28125C24.375 2.90829 24.2268 2.55061 23.9631 2.28688C23.6994 2.02316 23.3417 1.875 22.9688 1.875H11.0906C10.7826 1.87445 10.4776 1.93461 10.1928 2.05204C9.9081 2.16947 9.64931 2.34187 9.43125 2.55938L6.30938 5.68125C6.09187 5.89931 5.91947 6.1581 5.80204 6.44283C5.68461 6.72756 5.62445 7.03264 5.625 7.34063V10.5188L1.62188 12.9188C1.41351 13.0434 1.24096 13.2199 1.12103 13.431C1.0011 13.6421 0.93787 13.8806 0.9375 14.1234V26.7188C0.9375 27.0917 1.08566 27.4494 1.34938 27.7131C1.6131 27.9768 1.97079 28.125 2.34375 28.125H27.6562C28.0292 28.125 28.3869 27.9768 28.6506 27.7131C28.9143 27.4494 29.0625 27.0917 29.0625 26.7188V14.1234C29.0621 13.8806 28.9989 13.6421 28.879 13.431C28.759 13.2199 28.5865 13.0434 28.3781 12.9188V12.9188ZM10.0969 3.225C10.1627 3.15861 10.2349 3.09894 10.3125 3.04688V6.09375C10.3125 6.21807 10.2631 6.3373 10.1752 6.42521C10.0873 6.51312 9.96807 6.5625 9.84375 6.5625H6.79688C6.84894 6.48489 6.90861 6.41266 6.975 6.34688L10.0969 3.225ZM2.12812 13.725L5.625 11.6109V14.5313C5.625 14.6556 5.67439 14.7748 5.76229 14.8627C5.8502 14.9506 5.96943 15 6.09375 15C6.21807 15 6.3373 14.9506 6.42521 14.8627C6.51311 14.7748 6.5625 14.6556 6.5625 14.5313V7.5H9.84375C10.2167 7.5 10.5744 7.35185 10.8381 7.08812C11.1018 6.8244 11.25 6.46671 11.25 6.09375V2.8125H22.9688C23.0931 2.8125 23.2123 2.86189 23.3002 2.9498C23.3881 3.03771 23.4375 3.15693 23.4375 3.28125V14.5313C23.4375 14.6556 23.4869 14.7748 23.5748 14.8627C23.6627 14.9506 23.7819 15 23.9062 15C24.0306 15 24.1498 14.9506 24.2377 14.8627C24.3256 14.7748 24.375 14.6556 24.375 14.5313V11.6109L27.8953 13.725C27.9653 13.7665 28.0233 13.8255 28.0635 13.8962C28.1038 13.9668 28.125 14.0468 28.125 14.1281V14.7L15.5766 20.325C15.3959 20.4058 15.2002 20.4476 15.0023 20.4476C14.8044 20.4476 14.6088 20.4058 14.4281 20.325L1.875 14.6953V14.1234C1.87501 14.0421 1.8962 13.9621 1.93647 13.8915C1.97674 13.8208 2.03471 13.7618 2.10469 13.7203L2.12812 13.725ZM27.6562 27.1875H2.34375C2.21943 27.1875 2.1002 27.1381 2.01229 27.0502C1.92439 26.9623 1.875 26.8431 1.875 26.7188V15.7219L14.0625 21.1781C14.364 21.3133 14.6907 21.3831 15.0211 21.3831C15.3515 21.3831 15.6782 21.3133 15.9797 21.1781L28.125 15.7219V26.7188C28.125 26.8431 28.0756 26.9623 27.9877 27.0502C27.8998 27.1381 27.7806 27.1875 27.6562 27.1875Z" fill="black"/>
<path d="M5.625 23.4375C5.50068 23.4375 5.38145 23.4869 5.29354 23.5748C5.20564 23.6627 5.15625 23.7819 5.15625 23.9062V24.8438C5.15625 24.9681 5.20564 25.0873 5.29354 25.1752C5.38145 25.2631 5.50068 25.3125 5.625 25.3125C5.74932 25.3125 5.86855 25.2631 5.95646 25.1752C6.04436 25.0873 6.09375 24.9681 6.09375 24.8438V23.9062C6.09375 23.7819 6.04436 23.6627 5.95646 23.5748C5.86855 23.4869 5.74932 23.4375 5.625 23.4375ZM3.28125 23.4375C3.15693 23.4375 3.0377 23.4869 2.94979 23.5748C2.86189 23.6627 2.8125 23.7819 2.8125 23.9062V24.8438C2.8125 24.9681 2.86189 25.0873 2.94979 25.1752C3.0377 25.2631 3.15693 25.3125 3.28125 25.3125C3.40557 25.3125 3.5248 25.2631 3.61271 25.1752C3.70061 25.0873 3.75 24.9681 3.75 24.8438V23.9062C3.75 23.7819 3.70061 23.6627 3.61271 23.5748C3.5248 23.4869 3.40557 23.4375 3.28125 23.4375ZM7.96875 23.4375C7.84443 23.4375 7.7252 23.4869 7.63729 23.5748C7.54939 23.6627 7.5 23.7819 7.5 23.9062V24.8438C7.5 24.9681 7.54939 25.0873 7.63729 25.1752C7.7252 25.2631 7.84443 25.3125 7.96875 25.3125C8.09307 25.3125 8.2123 25.2631 8.30021 25.1752C8.38811 25.0873 8.4375 24.9681 8.4375 24.8438V23.9062C8.4375 23.7819 8.38811 23.6627 8.30021 23.5748C8.2123 23.4869 8.09307 23.4375 7.96875 23.4375ZM10.3125 23.4375C10.1882 23.4375 10.069 23.4869 9.98104 23.5748C9.89314 23.6627 9.84375 23.7819 9.84375 23.9062V24.8438C9.84375 24.9681 9.89314 25.0873 9.98104 25.1752C10.069 25.2631 10.1882 25.3125 10.3125 25.3125C10.4368 25.3125 10.556 25.2631 10.644 25.1752C10.7319 25.0873 10.7812 24.9681 10.7812 24.8438V23.9062C10.7812 23.7819 10.7319 23.6627 10.644 23.5748C10.556 23.4869 10.4368 23.4375 10.3125 23.4375ZM12.6562 23.4375C12.5319 23.4375 12.4127 23.4869 12.3248 23.5748C12.2369 23.6627 12.1875 23.7819 12.1875 23.9062V24.8438C12.1875 24.9681 12.2369 25.0873 12.3248 25.1752C12.4127 25.2631 12.5319 25.3125 12.6562 25.3125C12.7806 25.3125 12.8998 25.2631 12.9877 25.1752C13.0756 25.0873 13.125 24.9681 13.125 24.8438V23.9062C13.125 23.7819 13.0756 23.6627 12.9877 23.5748C12.8998 23.4869 12.7806 23.4375 12.6562 23.4375ZM15 23.4375C14.8757 23.4375 14.7565 23.4869 14.6685 23.5748C14.5806 23.6627 14.5312 23.7819 14.5312 23.9062V24.8438C14.5312 24.9681 14.5806 25.0873 14.6685 25.1752C14.7565 25.2631 14.8757 25.3125 15 25.3125C15.1243 25.3125 15.2435 25.2631 15.3315 25.1752C15.4194 25.0873 15.4688 24.9681 15.4688 24.8438V23.9062C15.4688 23.7819 15.4194 23.6627 15.3315 23.5748C15.2435 23.4869 15.1243 23.4375 15 23.4375ZM17.3438 23.4375C17.2194 23.4375 17.1002 23.4869 17.0123 23.5748C16.9244 23.6627 16.875 23.7819 16.875 23.9062V24.8438C16.875 24.9681 16.9244 25.0873 17.0123 25.1752C17.1002 25.2631 17.2194 25.3125 17.3438 25.3125C17.4681 25.3125 17.5873 25.2631 17.6752 25.1752C17.7631 25.0873 17.8125 24.9681 17.8125 24.8438V23.9062C17.8125 23.7819 17.7631 23.6627 17.6752 23.5748C17.5873 23.4869 17.4681 23.4375 17.3438 23.4375ZM19.6875 23.4375C19.5632 23.4375 19.444 23.4869 19.356 23.5748C19.2681 23.6627 19.2188 23.7819 19.2188 23.9062V24.8438C19.2188 24.9681 19.2681 25.0873 19.356 25.1752C19.444 25.2631 19.5632 25.3125 19.6875 25.3125C19.8118 25.3125 19.931 25.2631 20.019 25.1752C20.1069 25.0873 20.1562 24.9681 20.1562 24.8438V23.9062C20.1562 23.7819 20.1069 23.6627 20.019 23.5748C19.931 23.4869 19.8118 23.4375 19.6875 23.4375ZM22.0312 23.4375C21.9069 23.4375 21.7877 23.4869 21.6998 23.5748C21.6119 23.6627 21.5625 23.7819 21.5625 23.9062V24.8438C21.5625 24.9681 21.6119 25.0873 21.6998 25.1752C21.7877 25.2631 21.9069 25.3125 22.0312 25.3125C22.1556 25.3125 22.2748 25.2631 22.3627 25.1752C22.4506 25.0873 22.5 24.9681 22.5 24.8438V23.9062C22.5 23.7819 22.4506 23.6627 22.3627 23.5748C22.2748 23.4869 22.1556 23.4375 22.0312 23.4375ZM24.375 23.4375C24.2507 23.4375 24.1315 23.4869 24.0435 23.5748C23.9556 23.6627 23.9062 23.7819 23.9062 23.9062V24.8438C23.9062 24.9681 23.9556 25.0873 24.0435 25.1752C24.1315 25.2631 24.2507 25.3125 24.375 25.3125C24.4993 25.3125 24.6185 25.2631 24.7065 25.1752C24.7944 25.0873 24.8438 24.9681 24.8438 24.8438V23.9062C24.8438 23.7819 24.7944 23.6627 24.7065 23.5748C24.6185 23.4869 24.4993 23.4375 24.375 23.4375ZM26.7188 23.4375C26.5944 23.4375 26.4752 23.4869 26.3873 23.5748C26.2994 23.6627 26.25 23.7819 26.25 23.9062V24.8438C26.25 24.9681 26.2994 25.0873 26.3873 25.1752C26.4752 25.2631 26.5944 25.3125 26.7188 25.3125C26.8431 25.3125 26.9623 25.2631 27.0502 25.1752C27.1381 25.0873 27.1875 24.9681 27.1875 24.8438V23.9062C27.1875 23.7819 27.1381 23.6627 27.0502 23.5748C26.9623 23.4869 26.8431 23.4375 26.7188 23.4375ZM14.5312 16.875H17.3438C17.4681 16.875 17.5873 16.8256 17.6752 16.7377C17.7631 16.6498 17.8125 16.5306 17.8125 16.4062C17.8125 16.2819 17.7631 16.1627 17.6752 16.0748C17.5873 15.9869 17.4681 15.9375 17.3438 15.9375H14.5312C13.9096 15.9375 13.3135 15.6906 12.874 15.251C12.4344 14.8115 12.1875 14.2154 12.1875 13.5938V10.7812C12.1875 10.1596 12.4344 9.56351 12.874 9.12397C13.3135 8.68443 13.9096 8.4375 14.5312 8.4375H15.4688C16.0904 8.4375 16.6865 8.68443 17.126 9.12397C17.5656 9.56351 17.8125 10.1596 17.8125 10.7812V13.5938C17.8125 13.7181 17.7631 13.8373 17.6752 13.9252C17.5873 14.0131 17.4681 14.0625 17.3438 14.0625C17.2194 14.0625 17.1002 14.0131 17.0123 13.9252C16.9244 13.8373 16.875 13.7181 16.875 13.5938V11.25C16.875 10.7527 16.6775 10.2758 16.3258 9.92418C15.9742 9.57254 15.4973 9.375 15 9.375C14.5027 9.375 14.0258 9.57254 13.6742 9.92418C13.3225 10.2758 13.125 10.7527 13.125 11.25V13.125C13.127 13.4884 13.2346 13.8434 13.4346 14.1468C13.6347 14.4502 13.9186 14.6889 14.2518 14.8339C14.585 14.9789 14.9532 15.024 15.3116 14.9636C15.6699 14.9032 16.003 14.74 16.2703 14.4938C16.4559 14.7131 16.7043 14.8703 16.982 14.9443C17.2597 15.0182 17.5534 15.0053 17.8235 14.9072C18.0937 14.8092 18.3273 14.6307 18.4929 14.3959C18.6586 14.1611 18.7483 13.8811 18.75 13.5938V10.7812C18.75 9.91101 18.4043 9.07641 17.7889 8.46106C17.1736 7.8457 16.339 7.5 15.4688 7.5H14.5312C13.661 7.5 12.8264 7.8457 12.2111 8.46106C11.5957 9.07641 11.25 9.91101 11.25 10.7812V13.5938C11.25 14.464 11.5957 15.2986 12.2111 15.9139C12.8264 16.5293 13.661 16.875 14.5312 16.875ZM15 14.0625C14.7514 14.0625 14.5129 13.9637 14.3371 13.7879C14.1613 13.6121 14.0625 13.3736 14.0625 13.125V11.25C14.0625 11.0014 14.1613 10.7629 14.3371 10.5871C14.5129 10.4113 14.7514 10.3125 15 10.3125C15.2486 10.3125 15.4871 10.4113 15.6629 10.5871C15.8387 10.7629 15.9375 11.0014 15.9375 11.25V13.125C15.9375 13.3736 15.8387 13.6121 15.6629 13.7879C15.4871 13.9637 15.2486 14.0625 15 14.0625Z" fill="black"/>
</svg>
