<svg width="25" height="25" viewBox="0 0 25 25" fill="none" xmlns="http://www.w3.org/2000/svg">
<path d="M16.1458 3.64688L22.9167 4.52501L17.3417 9.89584L16.1458 3.64688ZM8.85417 21.3542L2.08333 20.476L7.65833 15.1042L8.85417 21.3542Z" fill="#FF6F02"/>
<path d="M4.16667 12.5C4.16667 7.8974 7.8974 4.16667 12.5 4.16667C13.0333 4.16667 13.5526 4.22187 14.0583 4.31771L14.4193 2.30469C13.8151 2.14167 13.1573 2.08594 12.5 2.08594C6.74323 2.08594 2.08333 6.74583 2.08333 12.5026C2.08333 15.0255 2.96146 17.437 4.60625 19.3L6.18802 17.9307C4.93125 16.4714 4.16667 14.5766 4.16667 12.5ZM20.5589 5.86823L18.9219 7.18958C20.1156 8.63125 20.8333 10.4818 20.8333 12.5C20.8333 17.1026 17.1026 20.8333 12.5 20.8333C11.9641 20.8333 11.4411 20.7781 10.9333 20.6812L10.5812 22.6453C11.2385 22.7547 11.8964 22.8104 12.5 22.8104C18.2568 22.8104 22.9167 18.1505 22.9167 12.3938C22.9167 10.0911 22.0943 7.73333 20.5589 5.86823Z" fill="#FF6F00"/>
</svg>
