<svg width="25" height="25" viewBox="0 0 25 25" fill="none" xmlns="http://www.w3.org/2000/svg">
<path d="M16.6667 21.875V19.7917C16.6667 18.6866 16.2277 17.6268 15.4463 16.8454C14.6649 16.064 13.6051 15.625 12.5 15.625H5.20833C4.10327 15.625 3.04346 16.064 2.26206 16.8454C1.48065 17.6268 1.04167 18.6866 1.04167 19.7917V21.875" stroke="#FF6F00" stroke-width="2" stroke-linecap="round" stroke-linejoin="round"/>
<path d="M8.85417 11.4583C11.1554 11.4583 13.0208 9.59285 13.0208 7.29167C13.0208 4.99048 11.1554 3.125 8.85417 3.125C6.55298 3.125 4.6875 4.99048 4.6875 7.29167C4.6875 9.59285 6.55298 11.4583 8.85417 11.4583Z" stroke="#FF6F00" stroke-width="2" stroke-linecap="round" stroke-linejoin="round"/>
<path d="M17.7083 11.4583L19.7917 13.5417L23.9583 9.375" stroke="#FF6F00" stroke-width="2" stroke-linecap="round" stroke-linejoin="round"/>
</svg>
