<svg width="70" height="70" viewBox="0 0 70 70" fill="none" xmlns="http://www.w3.org/2000/svg">
<path d="M17.7494 32.095C17.7494 32.095 16.9794 41.8513 16.87 45.1106C16.7008 50.1288 35 56.5104 35 56.5104C35 56.5104 53.321 50.066 53.13 45.1121C53.0046 41.8513 52.1252 32.0965 52.1252 32.0965H17.7494V32.095Z" fill="url(#paint0_radial)"/>
<path d="M52.535 60.3473C50.8711 60.3473 49.5221 59.3775 49.5221 58.4777C49.5221 53.076 50.8711 46.7381 52.535 46.7381C54.199 46.7381 55.5479 53.006 55.5479 58.4777C55.5479 59.551 54.199 60.3473 52.535 60.3473Z" fill="url(#paint1_radial)"/>
<path d="M65.5929 24.9156L35 11.569L4.40708 24.9156H0.0131226V26.8319L35 42.0948L69.9869 26.8319V24.9156H65.5929Z" fill="white"/>
<path d="M69.9869 24.9156L35 40.1785L0.0131226 24.9156L35 9.65271L69.9869 24.9156Z" fill="url(#paint2_radial)"/>
<path d="M53.321 46.7381H51.8437V39.814V32.8898L43.7748 29.349L35.7058 25.8081L36.2994 24.4548L44.3683 27.9956L52.4373 31.5365C52.9739 31.7727 53.321 32.3036 53.321 32.8898V39.814V46.7381Z" fill="#C97A1F"/>
<path d="M36.3081 24.4679C36.3081 24.4679 36.4073 24.5102 36.4087 24.5102L44.3756 28.0073L52.4314 31.5423C52.7785 31.694 53.0542 31.9754 53.1971 32.3108C53.2729 32.4888 53.3152 32.6842 53.3152 32.8854V39.7994V46.7133C53.3152 46.7133 53.1402 46.7148 53.1387 46.7148C53.1387 46.7148 52.9506 46.7148 52.9506 46.7133L51.851 46.7017V40.794V39.7892V33.7648L51.8437 32.8825L43.7879 29.3475L43.7062 29.3125L35.735 25.8125L36.2367 24.6356C36.2352 24.6356 36.3081 24.4679 36.3081 24.4679Z" fill="#CA7B1F"/>
<path d="M36.3183 24.4811C36.3183 24.4796 36.4175 24.5219 36.4189 24.5219L44.3829 28.019L52.4242 31.5496C52.7669 31.6998 53.0498 31.9827 53.1912 32.3138C53.2671 32.4902 53.3094 32.6827 53.3094 32.8825L53.3079 39.7848L53.3064 46.6871C53.3064 46.6886 53.1329 46.69 53.1314 46.69C53.13 46.69 52.9448 46.6886 52.9448 46.6871L51.8583 46.6652L51.8598 40.7677V39.7644L51.8612 33.7502L51.8467 32.8738L43.8039 29.3431L43.7223 29.3067L35.7627 25.8125L36.2469 24.6444C36.2454 24.6473 36.3183 24.4811 36.3183 24.4811Z" fill="#CA7C1F"/>
<path d="M36.3271 24.4927C36.3285 24.4913 36.4262 24.5321 36.4277 24.5335L44.3887 28.0306L52.4169 31.5554C52.7552 31.7042 53.0454 31.9871 53.1854 32.3152C53.2612 32.4902 53.3021 32.6813 53.3021 32.8796L53.3006 39.7717L53.2992 46.6638C53.2992 46.6652 53.1271 46.6681 53.1242 46.6681C53.1227 46.6681 52.9375 46.6667 52.9375 46.6638L51.8642 46.6302L51.8656 40.7429V39.7425L51.8671 33.74L51.8452 32.8708L43.8156 29.346L43.7339 29.3096L35.7889 25.8213L36.2571 24.6619C36.2571 24.6604 36.3271 24.4942 36.3271 24.4927Z" fill="#CB7D1F"/>
<path d="M36.3373 24.5058C36.3387 24.5029 36.4364 24.5437 36.4394 24.5452L44.3989 28.0408L52.4125 31.5598C52.7464 31.7071 53.0439 31.9914 53.1825 32.3152C53.2583 32.4873 53.2992 32.6769 53.2992 32.8737L53.2962 39.7556L53.2933 46.6375C53.2933 46.6404 53.1227 46.6419 53.1198 46.6419C53.1169 46.6419 52.9346 46.6389 52.9346 46.636L51.8744 46.5923L51.8758 40.7152V39.7162L51.8773 33.7239L51.8481 32.8621L43.8317 29.3417L43.7485 29.3052L35.8181 25.8227L36.2687 24.6721C36.2673 24.6721 36.3358 24.5087 36.3373 24.5058Z" fill="#CC7E1E"/>
<path d="M36.346 24.5175C36.3475 24.5146 36.4452 24.5539 36.4481 24.5554L44.4048 28.051L52.4037 31.5656C52.7333 31.71 53.0381 31.9973 53.1752 32.3167C53.2496 32.4873 53.2904 32.6754 53.2904 32.8694L53.2875 39.741L53.2846 46.6127C53.2846 46.6156 53.1154 46.6185 53.111 46.6185C53.1081 46.6185 52.9273 46.6156 52.9273 46.6127L51.8802 46.5573L51.8831 40.6904V39.6929L51.886 33.7108L51.8481 32.8562L43.8448 29.3402L43.7617 29.3037L35.8458 25.8271L36.279 24.6852C36.2775 24.6837 36.3446 24.5219 36.346 24.5175Z" fill="#CC7F1E"/>
<path d="M36.3562 24.5306C36.3577 24.5262 36.4554 24.5656 36.4598 24.5671L44.4135 28.0627L52.3994 31.5714C52.726 31.7144 53.0367 32.0017 53.1723 32.3167C53.2467 32.4858 53.2875 32.671 53.2875 32.8635L53.2846 39.725L53.2817 46.5864C53.2817 46.5908 53.114 46.5937 53.1096 46.5937C53.1052 46.5937 52.9258 46.5908 52.9258 46.5864L51.889 46.5208L51.8919 40.6642V39.6681L51.8948 33.6962L51.8496 32.8489L43.8594 29.3387L43.7762 29.3023L35.875 25.8314L36.2906 24.6983C36.2877 24.6954 36.3548 24.535 36.3562 24.5306Z" fill="#CD801E"/>
<path d="M36.365 24.5437C36.3664 24.5394 36.4641 24.5773 36.4685 24.5787L44.4194 28.0744L52.3906 31.5773C52.7129 31.7187 53.0308 32.0075 53.1635 32.3181C53.2379 32.4844 53.2773 32.6696 53.2773 32.8592L53.2729 39.7104L53.2685 46.5617C53.2685 46.566 53.1023 46.5704 53.0964 46.5704C53.0921 46.5704 52.9141 46.566 52.9141 46.5617L51.8933 46.4844L51.8962 40.6379V39.6448L51.8991 33.6831L51.8466 32.8417L43.8696 29.3358L43.785 29.2994L35.8983 25.8344L36.2964 24.71C36.2979 24.7085 36.3635 24.5481 36.365 24.5437Z" fill="#CD811E"/>
<path d="M36.3752 24.5554C36.3781 24.5496 36.4744 24.5875 36.4788 24.5904L44.4267 28.0846L52.3848 31.5831C52.7027 31.7231 53.0279 32.0133 53.1592 32.3196C53.2321 32.4844 53.2729 32.6667 53.2729 32.8548L53.2686 39.6944L53.2642 46.534C53.2642 46.5398 53.0994 46.5442 53.0936 46.5442C53.0877 46.5442 52.9127 46.5398 52.9127 46.534L51.905 46.4465L51.9094 40.6102V39.6185L51.9138 33.6671L51.854 32.8329L43.89 29.3329L43.8054 29.295L35.9333 25.8344L36.314 24.7188C36.3081 24.7202 36.3723 24.5613 36.3752 24.5554Z" fill="#CE821E"/>
<path d="M36.384 24.5685C36.3869 24.5627 36.4831 24.5992 36.489 24.6021L44.434 28.0962L52.3775 31.5889C52.6911 31.726 53.0236 32.0177 53.1533 32.321C53.2263 32.4844 53.2671 32.6652 53.2671 32.8519L53.2613 39.6812L53.2554 46.5106C53.2554 46.5164 53.0921 46.5223 53.0848 46.5223C53.079 46.5223 52.904 46.5164 52.904 46.5106L51.9094 46.4114L51.9138 40.5854L51.9152 39.5952L51.9196 33.6554L51.8525 32.8285L43.9017 29.3329L43.8171 29.295L35.9596 25.8402L36.3242 24.7333C36.3183 24.7319 36.3811 24.5744 36.384 24.5685Z" fill="#CF831E"/>
<path d="M36.3942 24.5817C36.3971 24.5758 36.4919 24.6108 36.4992 24.6138L44.4413 28.1079L52.3717 31.5948C52.6823 31.7304 53.0206 32.0236 53.149 32.3225C53.2219 32.4844 53.2613 32.6623 53.2613 32.8475L53.2554 39.6667L53.2496 46.4858C53.2496 46.4931 53.0877 46.499 53.0804 46.499C53.0731 46.499 52.9011 46.4931 52.9011 46.4858L51.9196 46.375L51.924 40.5592L51.9254 39.5704L51.9298 33.6408L51.8554 32.8213L43.9177 29.3315L43.8317 29.2936L35.9888 25.8446L36.3359 24.7465C36.3286 24.7436 36.3913 24.5875 36.3942 24.5817Z" fill="#CF841E"/>
<path d="M36.4029 24.5933C36.4058 24.5861 36.5006 24.6211 36.5079 24.624L44.4485 28.1181L52.3644 31.6006C52.6706 31.7348 53.0162 32.0279 53.1431 32.324C53.2146 32.4829 53.2554 32.6594 53.2554 32.8431L53.2496 39.6521L53.2437 46.461C53.2437 46.4683 53.0833 46.4756 53.076 46.4756C53.0687 46.4756 52.8966 46.4698 52.8966 46.461L51.9283 46.34L51.9341 40.5344L51.9356 39.5471L51.9414 33.6277L51.8598 32.8154L43.9352 29.33L43.8491 29.2921L36.0208 25.849L36.3504 24.7596C36.3387 24.7567 36.4 24.6006 36.4029 24.5933Z" fill="#D0851E"/>
<path d="M36.4131 24.6064C36.416 24.5992 36.5108 24.6327 36.5196 24.6356L44.4573 28.1283L52.36 31.605C52.6618 31.7377 53.0148 32.0323 53.1387 32.3239C53.2102 32.4814 53.2495 32.6564 53.2495 32.8373L53.2423 39.636L53.235 46.4348C53.235 46.4435 53.076 46.4494 53.0673 46.4494C53.0585 46.4494 52.8893 46.4421 52.8893 46.4333L51.9341 46.3006L51.94 40.5052L51.9414 39.5208L51.9473 33.6117L51.8583 32.8052L43.9468 29.3242L43.8608 29.2862L36.0471 25.8489L36.3591 24.7683C36.3489 24.7683 36.4087 24.6137 36.4131 24.6064Z" fill="#D1861D"/>
<path d="M36.4219 24.6196C36.4262 24.6108 36.5196 24.6444 36.5283 24.6488L44.4631 28.1415L52.3512 31.6123C52.6487 31.7435 53.0089 32.0396 53.1314 32.3269C53.2029 32.4829 53.2423 32.655 53.2423 32.8344L53.235 39.6229L53.2277 46.4115C53.2277 46.4202 53.0702 46.4275 53.0614 46.4275C53.0527 46.4275 52.885 46.4202 52.885 46.41L51.9429 46.2671L51.9487 40.4819L51.9502 39.499L51.956 33.6L51.8598 32.8008L43.9614 29.3256L43.8739 29.2877L36.0748 25.8562L36.3694 24.7844C36.3591 24.78 36.4175 24.6269 36.4219 24.6196Z" fill="#D1871D"/>
<path d="M36.4321 24.6312C36.4364 24.6225 36.5298 24.6546 36.5385 24.6589L44.4704 28.1517L52.3439 31.6181C52.6371 31.7464 53.0046 32.0439 53.1256 32.3283C53.1971 32.4814 53.235 32.6535 53.235 32.8314L53.2292 39.6083L53.2204 46.3852C53.2204 46.3954 53.0644 46.4027 53.0542 46.4027C53.0439 46.4027 52.8777 46.3939 52.8777 46.3837L51.9487 46.2292L51.956 40.4542L51.9575 39.4727L51.9648 33.5839L51.8612 32.7921L43.976 29.3212L43.8885 29.2833L36.1039 25.8577L36.3825 24.7946C36.3694 24.7917 36.4277 24.64 36.4321 24.6312Z" fill="#D2881D"/>
<path d="M36.4408 24.6444C36.4452 24.6342 36.5385 24.6663 36.5487 24.6706L44.4777 28.1633L52.3381 31.624C52.6283 31.7508 53.0016 32.0498 53.1212 32.3298C53.1912 32.4815 53.2306 32.6506 53.2306 32.8271L53.2218 39.5938L53.2131 46.3604C53.2131 46.3706 53.0585 46.3794 53.0483 46.3794C53.0381 46.3794 52.8733 46.3706 52.8733 46.3604L51.956 46.1956L51.9633 40.4309L51.9648 39.4508L51.9721 33.5738L51.8598 32.7892L43.9877 29.3242L43.9002 29.2848L36.1287 25.8636L36.3898 24.8092C36.3796 24.8048 36.4364 24.6531 36.4408 24.6444Z" fill="#D2891D"/>
<path d="M36.4511 24.656C36.4554 24.6458 36.5488 24.6764 36.559 24.6808L44.485 28.1735L52.3309 31.6283C52.6167 31.7537 52.9973 32.0542 53.1154 32.3298C53.1855 32.48 53.2248 32.6477 53.2248 32.8212L53.2146 39.5792L53.2059 46.3356C53.2059 46.3473 53.0527 46.356 53.0411 46.356C53.0294 46.356 52.8675 46.3473 52.8675 46.3356L51.9634 46.1592L51.9707 40.4046L51.9721 39.4275L51.9794 33.5606L51.8598 32.7833L44.0009 29.3227L43.9119 29.2833L36.155 25.8679L36.3986 24.8223C36.3898 24.8164 36.4452 24.6662 36.4511 24.656Z" fill="#D38A1D"/>
<path d="M36.4598 24.6692C36.4641 24.6575 36.5575 24.6881 36.5692 24.6925L44.4937 28.1838L52.3264 31.6342C52.6079 31.7581 52.9958 32.0585 53.111 32.3313C53.181 32.4785 53.2189 32.6448 53.2189 32.8169L53.2087 39.5631L53.1985 46.3094C53.1985 46.321 53.0469 46.3313 53.0352 46.3313C53.0235 46.3313 52.8616 46.321 52.8616 46.3094L51.9706 46.1227L51.9794 40.3783L51.9808 39.4027L51.9896 33.546L51.8627 32.7746L44.0169 29.3183L43.9279 29.279L36.1856 25.8694L36.4117 24.8325C36.4 24.8281 36.4554 24.6808 36.4598 24.6692Z" fill="#D48B1D"/>
<path d="M36.4685 24.6823C36.4744 24.6706 36.5662 24.6998 36.5779 24.7056L44.4996 28.1969L52.3177 31.6415C52.5948 31.7625 52.99 32.0658 53.1037 32.3342C53.1723 32.48 53.2117 32.6448 53.2117 32.814L53.2014 39.55L53.1912 46.286C53.1912 46.2992 53.041 46.3094 53.0279 46.3094C53.0148 46.3094 52.8558 46.2992 52.8558 46.286L51.9779 46.0877L51.9867 40.3535L51.9881 39.3794L51.9969 33.5329L51.8627 32.7688L44.03 29.3183L43.941 29.279L36.2133 25.8752L36.4219 24.8471C36.4102 24.8398 36.4642 24.694 36.4685 24.6823Z" fill="#D48C1D"/>
<path d="M36.4787 24.694C36.4846 24.6808 36.5764 24.71 36.5881 24.7158L44.5068 28.2071L52.3118 31.6458C52.5845 31.7654 52.9871 32.0702 53.0993 32.3342C53.1679 32.4786 53.2058 32.6404 53.2058 32.8096L53.1941 39.5354L53.1825 46.2613C53.1825 46.2744 53.0337 46.2861 53.0206 46.2861C53.0075 46.2861 52.8485 46.2744 52.8485 46.2613L51.9837 46.0527L51.9925 40.3288L51.9939 39.3561L52.0027 33.5198L51.8612 32.7629L44.0416 29.3169L43.9512 29.2775L36.2381 25.8796L36.4291 24.8602C36.4218 24.8529 36.4729 24.7071 36.4787 24.694Z" fill="#D58D1D"/>
<path d="M36.4875 24.7071C36.4933 24.6939 36.5852 24.7217 36.5983 24.7275L44.5142 28.2187L52.3046 31.6531C52.5744 31.7712 52.9827 32.076 53.0935 32.3371C53.1621 32.48 53.2 32.6404 53.2 32.8067L53.1883 39.5223L53.1767 46.2379C53.1767 46.2525 53.0294 46.2627 53.0148 46.2627C53.0002 46.2627 52.8442 46.251 52.8442 46.2364L51.9925 46.0162L52.0027 40.3025L52.0042 39.3312L52.0144 33.5052L51.8656 32.7556L44.0592 29.3125L43.9687 29.2731L36.2702 25.881L36.4452 24.8719C36.4321 24.8646 36.4817 24.7202 36.4875 24.7071Z" fill="#D68E1C"/>
<path d="M36.4977 24.7202C36.5036 24.7071 36.5954 24.7333 36.6086 24.7392L44.5215 28.229L52.2988 31.6575C52.5642 31.7742 52.9798 32.0804 53.0892 32.3371C53.1577 32.4771 53.1956 32.636 53.1956 32.8008L53.184 39.5048L53.1723 46.2088C53.1723 46.2233 53.0265 46.235 53.0119 46.235C52.9973 46.235 52.8427 46.2233 52.8427 46.2073L52.0042 45.9754L52.0144 40.2719L52.0158 39.3035L52.026 33.4892L51.87 32.7469L44.0752 29.311L43.9848 29.2717L36.3008 25.884L36.4583 24.8835C36.4423 24.8763 36.4919 24.7333 36.4977 24.7202Z" fill="#D68F1C"/>
<path d="M36.5065 24.7319C36.5123 24.7173 36.6027 24.7435 36.6173 24.7494L44.5273 28.2392L52.29 31.6619C52.5511 31.7771 52.974 32.0833 53.0804 32.3356C53.1475 32.4742 53.1854 32.6302 53.1854 32.7935L53.1723 39.4873L53.1592 46.181C53.1592 46.1971 53.0148 46.2087 52.9988 46.2087C52.9827 46.2087 52.8296 46.1956 52.8296 46.1796L52.0042 45.9375L52.0144 40.2442L52.0159 39.2773L52.0261 33.4731L51.8627 32.7367L44.0811 29.3052L43.9892 29.2644L36.3198 25.8825L36.4598 24.8908C36.4525 24.8894 36.5007 24.7464 36.5065 24.7319Z" fill="#D7901C"/>
<path d="M36.5167 24.745C36.524 24.7304 36.6129 24.7552 36.629 24.7625L44.5361 28.2523L52.2856 31.6706C52.5423 31.7829 52.9725 32.0921 53.0775 32.34C53.1446 32.4771 53.1825 32.6317 53.1825 32.7921L53.1694 39.4756L53.1563 46.1592C53.1563 46.1752 53.0133 46.1883 52.9973 46.1883C52.9813 46.1883 52.8296 46.1752 52.8296 46.1577L52.0173 45.9039L52.029 40.2208L52.0304 39.2554L52.0421 33.4614L51.8715 32.7323L44.1029 29.3067L44.0111 29.2658L36.3563 25.8898L36.4788 24.9069C36.4627 24.901 36.5094 24.7596 36.5167 24.745Z" fill="#D7911C"/>
<path d="M36.5254 24.7581C36.5327 24.7421 36.6217 24.7669 36.6377 24.7742L44.5433 28.2639L52.2783 31.6764C52.5306 31.7873 52.9681 32.0979 53.0717 32.3414C53.1388 32.4756 53.1752 32.6287 53.1752 32.7877L53.1606 39.461L53.146 46.1344C53.146 46.1519 53.0046 46.165 52.9871 46.165C52.9696 46.165 52.8208 46.1504 52.8208 46.1329L52.0217 45.8689L52.0333 40.196L52.0348 39.2321L52.0465 33.4483L51.8685 32.7264L44.1131 29.3052L44.0213 29.2644L36.381 25.8942L36.486 24.92C36.4729 24.9127 36.5181 24.7727 36.5254 24.7581Z" fill="#D8921C"/>
<path d="M36.5356 24.7698C36.5429 24.7538 36.6319 24.7771 36.6494 24.7844L44.5521 28.2742L52.2725 31.6808C52.5219 31.7902 52.9638 32.1008 53.0673 32.3415C53.1329 32.4742 53.1708 32.6258 53.1708 32.7833L53.1563 39.4465L53.1417 46.1096C53.1417 46.1271 53.0017 46.1417 52.9842 46.1417C52.9667 46.1417 52.8179 46.1271 52.8179 46.1096L52.0319 45.834L52.0436 40.1713L52.045 39.2102L52.0581 33.4367L51.8715 32.7221L44.1292 29.3067L44.0358 29.2658L36.4102 25.9015L36.4977 24.936C36.4831 24.9244 36.5283 24.7858 36.5356 24.7698Z" fill="#D9931C"/>
<path d="M36.5444 24.7829C36.5517 24.7654 36.6406 24.7888 36.6581 24.796L44.5579 28.2844L52.2652 31.6867C52.5102 31.7946 52.9594 32.1067 53.0615 32.3429C53.1271 32.4742 53.1636 32.6229 53.1636 32.779L53.149 39.4319L53.1344 46.0848C53.1344 46.1038 52.9958 46.1183 52.9769 46.1183C52.9579 46.1183 52.8121 46.1038 52.8121 46.0848L52.0392 45.799L52.0523 40.1465L52.0538 39.1869L52.0669 33.4235L51.8729 32.7163L44.1438 29.3052L44.0504 29.2644L36.4394 25.9058L36.5109 24.9492C36.4934 24.9375 36.5371 24.799 36.5444 24.7829Z" fill="#D9941C"/>
<path d="M36.5546 24.7961C36.5619 24.7786 36.6509 24.8004 36.6684 24.8077L44.5652 28.2961L52.2579 31.6925C52.4986 31.7975 52.955 32.1125 53.0557 32.3444C53.1213 32.4727 53.1577 32.6215 53.1577 32.7746L53.1417 39.4158L53.1257 46.0571C53.1257 46.0761 52.9886 46.0921 52.9696 46.0921C52.9506 46.0921 52.8048 46.0761 52.8048 46.0571L52.045 45.7596L52.0581 40.1173L52.0611 39.1592L52.0742 33.4075L51.8729 32.7075L44.1569 29.3008L44.0636 29.26L36.4671 25.9073L36.5211 24.9594C36.5036 24.9492 36.5459 24.8121 36.5546 24.7961Z" fill="#DA951C"/>
<path d="M36.5634 24.8077C36.5721 24.7888 36.6596 24.8106 36.6786 24.8194L44.5725 28.3077L52.2521 31.6983C52.4884 31.8019 52.9521 32.1169 53.0498 32.3458C53.114 32.4727 53.1519 32.6185 53.1519 32.7702L53.1359 39.4013L53.1198 46.0323C53.1198 46.0527 52.9842 46.0673 52.9638 46.0673C52.9434 46.0673 52.8005 46.0513 52.8005 46.0308L52.0538 45.7231L52.0669 40.091L52.0698 39.1344L52.0844 33.3929L51.8759 32.6988L44.1729 29.2979L44.0782 29.2556L36.4963 25.9073L36.5327 24.9681C36.5138 24.9608 36.5561 24.8252 36.5634 24.8077Z" fill="#DB961B"/>
<path d="M36.5736 24.8208C36.5823 24.8019 36.6698 24.8223 36.6888 24.831L44.5798 28.3194L52.2448 31.7056C52.4767 31.8077 52.9477 32.1242 53.044 32.3487C53.1081 32.4742 53.1446 32.6185 53.1446 32.7673L53.1271 39.3881L53.1096 46.0089C53.1096 46.0294 52.9754 46.0454 52.955 46.0454C52.9346 46.0454 52.7931 46.0279 52.7931 46.0075L52.0581 45.6881L52.0727 40.0662L52.0756 39.111L52.0902 33.3798L51.8744 32.6929L44.1846 29.2965L44.0898 29.2542L36.5225 25.9117L36.5415 24.9812C36.524 24.9725 36.5648 24.8383 36.5736 24.8208Z" fill="#DB971B"/>
<path d="M36.5823 24.8325C36.591 24.8135 36.6785 24.831 36.6975 24.8413L44.5871 28.3281L52.239 31.7085C52.4679 31.8092 52.9448 32.1271 53.0396 32.3473C53.1038 32.4713 53.1402 32.6127 53.1402 32.7615L53.1227 39.3721L53.1052 45.9827C53.1052 46.0031 52.9725 46.0206 52.9506 46.0206C52.9288 46.0206 52.7888 46.0031 52.7888 45.9813L52.0669 45.6502L52.0815 40.0385L52.0844 39.0863L52.099 33.3652L51.8758 32.6856L44.1992 29.295L44.1044 29.2527L36.5517 25.916L36.5531 24.9944C36.5342 24.9856 36.5735 24.8529 36.5823 24.8325Z" fill="#DC981B"/>
<path d="M36.5925 24.8456C36.6012 24.8252 36.6887 24.8427 36.7092 24.8529L44.5958 28.3398L52.2331 31.7144C52.4577 31.8121 52.9419 32.1315 53.0352 32.3488C53.0994 32.4698 53.1344 32.6113 53.1344 32.7571L53.1169 39.3575L53.0994 45.9579C53.0994 45.9798 52.9681 45.9973 52.9462 45.9973C52.9244 45.9973 52.7858 45.9798 52.7858 45.9565L52.0771 45.6152L52.0917 40.0123L52.0946 39.0615L52.1106 33.3506L51.8802 32.6783L44.2167 29.2921L44.1204 29.2498L36.5808 25.919L36.5648 25.006C36.5444 24.9973 36.5823 24.8661 36.5925 24.8456Z" fill="#DC991B"/>
<path d="M36.6012 24.8588C36.61 24.8383 36.6975 24.8544 36.7179 24.8646L44.6017 28.3515L52.2258 31.7217C52.446 31.8179 52.9375 32.1388 53.0294 32.3517C53.0921 32.4713 53.1285 32.6098 53.1285 32.7542L53.1096 39.3444L53.0906 45.9346C53.0906 45.9565 52.9608 45.9754 52.939 45.9754C52.9156 45.9754 52.78 45.9565 52.78 45.9331L52.0844 45.5802L52.1004 39.9875L52.1033 39.0381L52.1194 33.3375L51.8817 32.6725L44.2312 29.2906L44.135 29.2483L36.61 25.9233L36.5779 25.0192C36.5546 25.009 36.5925 24.8792 36.6012 24.8588Z" fill="#DD9A1B"/>
<path d="M36.6114 24.8704C36.6216 24.8485 36.7077 24.8646 36.7296 24.8762L44.6104 28.3631L52.22 31.7275C52.4358 31.8223 52.9346 32.1446 53.0235 32.3531C53.0862 32.4712 53.1212 32.6069 53.1212 32.7498L53.1023 39.3283L53.0833 45.9069C53.0833 45.9302 52.955 45.9492 52.9316 45.9492C52.9083 45.9492 52.7727 45.9302 52.7727 45.9054L52.0902 45.5423L52.1062 39.9598L52.1091 39.0119L52.1252 33.3215L51.8802 32.6623L44.2429 29.2862L44.1466 29.244L36.6362 25.9248L36.5866 25.0294C36.5648 25.0206 36.6012 24.8923 36.6114 24.8704Z" fill="#DE9B1B"/>
<path d="M36.6202 24.8836C36.6304 24.8617 36.7164 24.8763 36.7383 24.8879L44.6162 28.3733L52.2112 31.7319C52.4227 31.8252 52.9287 32.1475 53.0162 32.3531C53.079 32.4683 53.114 32.604 53.114 32.744L53.095 39.3123L53.076 45.8806C53.076 45.904 52.9492 45.9244 52.9258 45.9244C52.901 45.9244 52.7683 45.904 52.7683 45.8792L52.0989 45.5044L52.115 39.9321L52.1179 38.9871L52.1354 33.3084L51.8831 32.6565L44.259 29.2848L44.1612 29.2425L36.6654 25.9292L36.5983 25.0425C36.575 25.0338 36.61 24.9054 36.6202 24.8836Z" fill="#DE9C1B"/>
<path d="M36.629 24.8967C36.6392 24.8733 36.7238 24.8879 36.7471 24.8996L44.6221 28.385L52.204 31.7392C52.4125 31.831 52.9244 32.1548 53.0104 32.356C53.0717 32.4698 53.1081 32.6025 53.1081 32.7425L53.0877 39.3006L53.0673 45.8587C53.0673 45.8835 52.9419 45.904 52.9171 45.904C52.8923 45.904 52.7596 45.8835 52.7596 45.8587L52.1034 45.4737L52.1209 39.9117L52.1238 38.9681L52.1413 33.2996L51.8802 32.655L44.2692 29.2892L44.1715 29.2454L36.6902 25.9365L36.6056 25.0585C36.5852 25.0454 36.6188 24.9185 36.629 24.8967Z" fill="#DF9D1B"/>
<path d="M36.6392 24.9083C36.6494 24.885 36.7339 24.8981 36.7587 24.9098L44.6323 28.3952L52.1996 31.7436C52.4037 31.8325 52.9229 32.1577 53.0075 32.3561C53.0687 32.4683 53.1037 32.5996 53.1037 32.7367L53.0833 39.2846L53.0629 45.8325C53.0629 45.8573 52.939 45.8777 52.9142 45.8777C52.8879 45.8777 52.7581 45.8573 52.7581 45.8311L52.115 45.4344L52.1325 39.8825L52.1354 38.9404L52.1529 33.2821L51.8846 32.6448L44.2867 29.2833L44.189 29.2396L36.7223 25.9365L36.6202 25.0673C36.5969 25.0571 36.6289 24.9317 36.6392 24.9083Z" fill="#E09E1A"/>
<path d="M36.6479 24.9215C36.6581 24.8967 36.7427 24.9098 36.7675 24.9215L44.6381 28.4069L52.1923 31.7494C52.3921 31.8369 52.9186 32.1636 53.0017 32.3575C53.0629 32.4669 53.0979 32.5967 53.0979 32.7323L53.0761 39.27L53.0542 45.8063C53.0542 45.8325 52.9317 45.8529 52.9054 45.8529C52.8792 45.8529 52.7509 45.8311 52.7509 45.8048L52.1209 45.3979L52.1384 39.8563L52.1413 38.9156L52.1602 33.2675L51.8846 32.6375L44.2998 29.2819L44.2021 29.2381L36.75 25.9408L36.6319 25.0804C36.6071 25.0702 36.6377 24.9448 36.6479 24.9215Z" fill="#E09F1A"/>
<path d="M36.6581 24.9346C36.6698 24.9098 36.7529 24.9215 36.7777 24.9346L44.6454 28.42L52.185 31.7581C52.3804 31.8442 52.9142 32.1723 52.9944 32.3604C53.0542 32.4683 53.0892 32.5967 53.0892 32.7294L53.0673 39.2569L53.0454 45.7844C53.0454 45.8106 52.9244 45.8325 52.8981 45.8325C52.8704 45.8325 52.7435 45.8106 52.7435 45.7829L52.1267 45.3644L52.1456 39.8329L52.1485 38.8952L52.1675 33.2573L51.8846 32.6331L44.3129 29.2819L44.2138 29.2381L36.7763 25.9467L36.6406 25.095C36.6173 25.0819 36.6465 24.9579 36.6581 24.9346Z" fill="#E1A01A"/>
<path d="M36.6669 24.9463C36.6786 24.9215 36.7617 24.9317 36.7879 24.9448L44.6527 28.4288L52.1792 31.761C52.3702 31.8456 52.9113 32.1738 52.99 32.359C53.0498 32.4654 53.0848 32.5908 53.0848 32.7221L53.0629 39.2379L53.0411 45.7538C53.0411 45.7815 52.9215 45.8033 52.8938 45.8033C52.8661 45.8033 52.7406 45.78 52.7406 45.7523L52.1354 45.325L52.1544 39.8038L52.1573 38.8675L52.1763 33.2398L51.8861 32.6229L44.3275 29.276L44.2284 29.2323L36.8054 25.9467L36.6523 25.1038C36.6275 25.0935 36.6567 24.971 36.6669 24.9463Z" fill="#E1A11A"/>
<path d="M36.6771 24.9594C36.6888 24.9331 36.7719 24.9433 36.7981 24.9565L44.66 28.4404L52.1719 31.7669C52.36 31.8485 52.9069 32.1796 52.9842 32.3604C53.044 32.4654 53.0775 32.5894 53.0775 32.7192L53.0542 39.2248L53.0308 45.7304C53.0308 45.7581 52.9127 45.7815 52.885 45.7815C52.8558 45.7815 52.7333 45.7581 52.7333 45.729L52.1427 45.2885L52.1617 39.7775L52.1646 38.8427L52.185 33.2267L51.8875 32.6171L44.3421 29.276L44.2429 29.2323L36.8346 25.9525L36.664 25.1183C36.6377 25.1052 36.6654 24.9842 36.6771 24.9594Z" fill="#E2A21A"/>
<path d="M36.6858 24.971C36.6975 24.9448 36.7806 24.9535 36.8083 24.9667L44.6673 28.4506L52.166 31.7727C52.3498 31.8529 52.9039 32.1854 52.9798 32.3619C53.0396 32.464 53.0731 32.5865 53.0731 32.7148L53.0498 39.2102L53.0264 45.7056C53.0264 45.7348 52.9098 45.7581 52.8806 45.7581C52.8514 45.7581 52.7289 45.7333 52.7289 45.7042L52.1514 45.2521L52.1719 39.7512L52.1748 38.8179L52.1952 33.2121L51.8904 32.6098L44.3581 29.2731L44.2575 29.2279L36.8637 25.9525L36.6756 25.1271C36.6479 25.1183 36.6741 24.9973 36.6858 24.971Z" fill="#E3A31A"/>
<path d="M36.696 24.9842C36.7077 24.9565 36.7908 24.9652 36.8185 24.9783L44.6746 28.4623L52.1587 31.7785C52.3381 31.8573 52.8996 32.1898 52.9739 32.3633C53.0323 32.464 53.0673 32.585 53.0673 32.7104L53.0425 39.1956L53.0177 45.6808C53.0177 45.71 52.9025 45.7348 52.8733 45.7348C52.8427 45.7348 52.7231 45.71 52.7231 45.6794L52.1587 45.2171L52.1791 39.7264L52.1821 38.7946L52.2025 33.1989L51.8904 32.604L44.3712 29.2731L44.2706 29.2279L36.8914 25.9583L36.6858 25.1417C36.6581 25.13 36.6829 25.0104 36.696 24.9842Z" fill="#E3A41A"/>
<path d="M36.7048 24.9973C36.7179 24.9696 36.7996 24.9769 36.8273 24.9915L44.6819 28.474L52.1529 31.7844C52.3279 31.8617 52.8967 32.1956 52.9696 32.3648C53.0279 32.464 53.0615 32.5821 53.0615 32.706L53.0367 39.1811L53.0119 45.6561C53.0119 45.6867 52.8981 45.7115 52.8675 45.7115C52.8369 45.7115 52.7173 45.6867 52.7173 45.6546L52.1646 45.1806L52.185 39.7002L52.1879 38.7713L52.2098 33.1858L51.8904 32.5967L44.3844 29.2702L44.2838 29.225L36.9192 25.9613L36.6975 25.1533C36.6683 25.1417 36.6931 25.025 36.7048 24.9973Z" fill="#E4A41A"/>
<path d="M36.715 25.0089C36.7281 24.9798 36.8098 24.9871 36.839 25.0017L44.6906 28.4842L52.1471 31.7887C52.3177 31.8646 52.8938 32.2 52.9638 32.3648C53.0221 32.461 53.0556 32.5777 53.0556 32.7002L53.0308 39.165L53.0061 45.6298C53.0061 45.6604 52.8938 45.6852 52.8631 45.6852C52.8311 45.6837 52.7144 45.6589 52.7144 45.6283L52.1748 45.1441L52.1967 39.6739L52.1996 38.7464L52.2215 33.1712L51.8948 32.5894L44.4019 29.2673L44.2998 29.2221L36.9498 25.9642L36.7106 25.165C36.6786 25.1533 36.7019 25.0381 36.715 25.0089Z" fill="#E5A519"/>
<path d="M36.7237 25.0221C36.7369 24.9929 36.8185 24.9987 36.8477 25.0133L44.6964 28.4958L52.1383 31.796C52.306 31.869 52.8879 32.2058 52.9564 32.3677C53.0133 32.4625 53.0469 32.5777 53.0469 32.6973L53.0206 39.1504L52.9944 45.6035C52.9944 45.6356 52.8835 45.6604 52.8514 45.6604C52.8194 45.659 52.7041 45.6342 52.7041 45.6021L52.1777 45.1062L52.1996 39.6462L52.2039 38.7202L52.2258 33.1552L51.8904 32.5806L44.4106 29.2644L44.3085 29.2192L36.9731 25.9671L36.7164 25.1767C36.6887 25.1665 36.7106 25.0512 36.7237 25.0221Z" fill="#E5A619"/>
<path d="M36.7339 25.0352C36.7471 25.0046 36.8287 25.0104 36.8579 25.025L44.7037 28.5075L52.1325 31.8019C52.2958 31.8733 52.885 32.2117 52.9521 32.3692C53.009 32.4625 53.0425 32.5748 53.0425 32.6944L53.0162 39.1373L52.99 45.5802C52.99 45.6123 52.8806 45.6386 52.8485 45.6386C52.8165 45.6371 52.7012 45.6108 52.7012 45.5788L52.1879 45.0727L52.2098 39.6229L52.2142 38.6983L52.2375 33.145L51.8948 32.5777L44.4281 29.2658L44.326 29.2206L37.0052 25.9744L36.731 25.1927C36.6989 25.1781 36.7194 25.0644 36.7339 25.0352Z" fill="#E6A719"/>
<path d="M36.7427 25.0469C36.7558 25.0163 36.8361 25.0206 36.8681 25.0352L44.7111 28.5163L52.1252 31.8048C52.2842 31.8748 52.8806 32.2131 52.9463 32.3677C53.0031 32.4581 53.0367 32.5704 53.0367 32.6871L53.009 39.1198L52.9813 45.5525C52.9813 45.5861 52.8733 45.6123 52.8398 45.6123C52.8063 45.6108 52.694 45.5846 52.694 45.5511L52.1938 45.0333L52.2171 39.5938L52.2215 38.6721L52.2448 33.129L51.8948 32.569L44.4413 29.2629L44.3377 29.2177L37.03 25.9773L36.7383 25.2044C36.7092 25.1898 36.7296 25.0775 36.7427 25.0469Z" fill="#E7A819"/>
<path d="M36.7529 25.06C36.7675 25.0279 36.8462 25.0323 36.8783 25.0483L44.7183 28.5294L52.1193 31.8135C52.2739 31.8821 52.8777 32.2219 52.9419 32.3721C52.9987 32.461 53.0308 32.5704 53.0308 32.6856L53.0031 39.1081L52.9754 45.5306C52.9754 45.5642 52.8689 45.5919 52.8354 45.5919C52.8018 45.5904 52.691 45.5642 52.691 45.5292L52.2039 44.9998L52.2273 39.5704L52.2316 38.6502L52.255 33.1173L51.8977 32.5646L44.4573 29.2629L44.3537 29.2162L37.0606 25.9802L36.7514 25.216C36.7194 25.2015 36.7383 25.0906 36.7529 25.06Z" fill="#E7A919"/>
<path d="M36.7617 25.0731C36.7762 25.041 36.855 25.044 36.8885 25.06L44.7271 28.541L52.1135 31.8194C52.2637 31.885 52.8748 32.2277 52.936 32.3735C52.9915 32.461 53.025 32.569 53.025 32.6812L52.9973 39.0935L52.9696 45.5058C52.9696 45.5408 52.8646 45.5685 52.8296 45.5685C52.7946 45.5671 52.6852 45.5394 52.6852 45.5044L52.2112 44.9648L52.2346 39.5456L52.239 38.6269L52.2637 33.1042L51.8992 32.5573L44.4719 29.26L44.3683 29.2133L37.0898 25.9831L36.7646 25.2277C36.7296 25.2146 36.7471 25.1038 36.7617 25.0731Z" fill="#E8AA19"/>
<path d="M36.7719 25.0848C36.7865 25.0527 36.8652 25.0542 36.8988 25.0702L44.7344 28.5512L52.1077 31.8238C52.255 31.8879 52.8719 32.2306 52.9317 32.3735C52.9871 32.4596 53.0192 32.5646 53.0192 32.6754L52.99 39.0775L52.9609 45.4796C52.9609 45.5146 52.8573 45.5438 52.8223 45.5438C52.7873 45.5423 52.6794 45.5146 52.6794 45.4781L52.2186 44.9269L52.2434 39.5179L52.2477 38.6006L52.2725 33.0881L51.9006 32.5485L44.4865 29.2571L44.3815 29.2104L37.1175 25.986L36.7748 25.2394C36.7398 25.2263 36.7559 25.1169 36.7719 25.0848Z" fill="#E8AB19"/>
<path d="M36.7806 25.0979C36.7952 25.0644 36.874 25.0658 36.9075 25.0819L44.7402 28.5629L52.099 31.831C52.2419 31.8938 52.8661 32.2379 52.9244 32.3765C52.9798 32.4596 53.0119 32.5646 53.0119 32.674L52.9827 39.0658L52.9536 45.4577C52.9536 45.4942 52.8515 45.5233 52.815 45.5233C52.7786 45.5219 52.6721 45.4927 52.6721 45.4563L52.2244 44.8948L52.2492 39.496L52.2536 38.5802L52.2784 33.0779L51.8992 32.5456L44.4981 29.2585L44.3931 29.2119L37.1438 25.9933L36.7836 25.2554C36.75 25.2379 36.7661 25.13 36.7806 25.0979Z" fill="#E9AC18"/>
<path d="M36.7908 25.111C36.8054 25.0775 36.8842 25.0775 36.9192 25.095L44.749 28.5746L52.0946 31.8369C52.2331 31.8981 52.8646 32.2438 52.9215 32.3779C52.9754 32.4596 53.0075 32.5617 53.0075 32.6696L52.9769 39.0498L52.9462 45.43C52.9462 45.4665 52.8456 45.4956 52.8092 45.4956C52.7727 45.4942 52.6677 45.465 52.6677 45.4271L52.2331 44.854L52.2579 39.4654L52.2623 38.5525L52.2885 33.0619L51.9021 32.5369L44.5142 29.2556L44.4092 29.209L37.1744 25.9963L36.7967 25.2671C36.7602 25.2496 36.7748 25.1431 36.7908 25.111Z" fill="#EAAD18"/>
<path d="M36.7996 25.1227C36.8156 25.0877 36.8929 25.0877 36.9279 25.1052L44.7548 28.5848L52.0858 31.8413C52.22 31.8996 52.8587 32.2467 52.9141 32.3779C52.9681 32.4581 53.0002 32.5588 53.0002 32.6638L52.9696 39.0338L52.9389 45.4038C52.9389 45.4417 52.8398 45.4708 52.8033 45.4708C52.7654 45.4694 52.6633 45.4402 52.6633 45.4008L52.2419 44.8175L52.2681 39.4392L52.2725 38.5277L52.2987 33.0473L51.905 32.5296L44.5302 29.2527L44.4237 29.206L37.2035 25.9992L36.8083 25.2788C36.7719 25.2627 36.7835 25.1563 36.7996 25.1227Z" fill="#EAAE18"/>
<path d="M36.8083 25.1358C36.8244 25.1008 36.9017 25.0994 36.9367 25.1169L44.7606 28.5964L52.0771 31.8485C52.2069 31.9054 52.8529 32.2539 52.9054 32.3794C52.9594 32.4567 52.9914 32.5558 52.9914 32.6594L52.9608 39.0192L52.9302 45.3789C52.9302 45.4169 52.8325 45.4475 52.7946 45.4475C52.7566 45.446 52.6546 45.4154 52.6546 45.3775L52.2462 44.7825L52.2725 39.4144L52.2769 38.5044L52.3031 33.0342L51.9006 32.5223L44.5389 29.2498L44.4325 29.2017L37.2269 25.9992L36.8156 25.2875C36.7821 25.2744 36.7937 25.1694 36.8083 25.1358Z" fill="#EBAF18"/>
<path d="M36.8185 25.1475C36.8346 25.111 36.9119 25.1096 36.9483 25.1271L44.7694 28.6067L52.0727 31.8529C52.1996 31.9083 52.85 32.2583 52.9025 32.3794C52.955 32.4552 52.9871 32.5515 52.9871 32.6535L52.955 39.0031L52.9244 45.3542C52.9244 45.3935 52.8281 45.4242 52.7902 45.4242C52.7508 45.4227 52.6517 45.3921 52.6517 45.3527L52.2565 44.7475L52.2827 39.3896L52.2871 38.481L52.3148 33.021L51.905 32.5165L44.555 29.2498L44.4485 29.2017L37.2575 26.005L36.8287 25.3021C36.7923 25.286 36.8025 25.184 36.8185 25.1475Z" fill="#ECB018"/>
<path d="M36.8273 25.1606C36.8433 25.1242 36.9206 25.1212 36.9571 25.1387L44.7767 28.6169L52.0654 31.8573C52.1879 31.9112 52.8456 32.2612 52.8967 32.3794C52.9492 32.4537 52.9813 32.5485 52.9813 32.6492L52.9492 38.9885L52.9171 45.3279C52.9171 45.3673 52.8223 45.3994 52.7829 45.3994C52.7435 45.3979 52.6458 45.3658 52.6458 45.3264L52.2638 44.7096L52.2915 39.3619L52.2958 38.4562L52.3235 33.0064L51.9065 32.5092L44.5696 29.2469L44.4617 29.1987L37.2852 26.0079L36.839 25.3137C36.8025 25.2992 36.8112 25.1971 36.8273 25.1606Z" fill="#ECB118"/>
<path d="M36.8375 25.1737C36.8535 25.1358 36.9308 25.1329 36.9687 25.1519L44.7854 28.63L52.061 31.866C52.1791 31.9185 52.8441 32.27 52.8937 32.3837C52.9462 32.4567 52.9768 32.5485 52.9768 32.6477L52.9433 38.9769L52.9098 45.306C52.9098 45.3469 52.8164 45.379 52.7771 45.379C52.7362 45.3775 52.64 45.3454 52.64 45.3046L52.2696 44.676L52.2973 39.3385L52.3016 38.4344L52.3293 32.9948L51.905 32.5048L44.5812 29.2483L44.4733 29.2002L37.3114 26.0152L36.8477 25.3298C36.8127 25.3108 36.82 25.2102 36.8375 25.1737Z" fill="#EDB218"/>
<path d="M36.8463 25.1854C36.8638 25.1475 36.9396 25.1431 36.9775 25.1621L44.7913 28.6402L52.0523 31.8704C52.1661 31.92 52.8383 32.2744 52.8865 32.3837C52.939 32.4537 52.9696 32.5456 52.9696 32.6419L52.9361 38.9594L52.9025 45.2769C52.9025 45.3177 52.8106 45.3512 52.7698 45.3512C52.729 45.3498 52.6342 45.3177 52.6342 45.2754L52.2769 44.6366L52.3046 39.3094L52.309 38.4066L52.3381 32.9787L51.9065 32.496L44.5958 29.2439L44.4879 29.1958L37.3406 26.0167L36.8594 25.34C36.8229 25.3225 36.8302 25.2233 36.8463 25.1854Z" fill="#EDB318"/>
<path d="M36.8565 25.1985C36.874 25.1606 36.9498 25.1548 36.9877 25.1737L44.7985 28.6519L52.0465 31.8762C52.1558 31.9244 52.8354 32.2787 52.8821 32.3852C52.9331 32.4537 52.9637 32.5427 52.9637 32.6375L52.9302 38.9448L52.8967 45.2521C52.8967 45.2944 52.8062 45.3279 52.7654 45.3279C52.7231 45.3265 52.6298 45.2929 52.6298 45.2506L52.2856 44.6002L52.3148 39.2831L52.3192 38.3819L52.3483 32.9642L51.9094 32.4873L44.6119 29.2396L44.5025 29.1914L37.3698 26.0181L36.871 25.3502C36.8331 25.3342 36.839 25.2364 36.8565 25.1985Z" fill="#EEB417"/>
<path d="M36.8652 25.2117C36.8827 25.1723 36.9571 25.1665 36.9979 25.1854L44.8058 28.6635L52.0392 31.8835C52.1456 31.9302 52.8311 32.286 52.8748 32.3881C52.9258 32.4552 52.9565 32.5427 52.9565 32.6346L52.9215 38.9317L52.8865 45.2287C52.8865 45.271 52.7975 45.3046 52.7552 45.3046C52.7129 45.3031 52.6211 45.2696 52.6211 45.2258L52.29 44.5652L52.3192 39.2583L52.3236 38.3585L52.3527 32.951L51.9065 32.4815L44.625 29.241L44.5156 29.1929L37.3975 26.0254L36.8827 25.3662C36.8434 25.3473 36.8477 25.2496 36.8652 25.2117Z" fill="#EFB517"/>
<path d="M36.8754 25.2233C36.8929 25.184 36.9673 25.1767 37.0081 25.1956L44.8131 28.6723L52.0333 31.8865C52.1354 31.9317 52.8281 32.2875 52.8704 32.3867C52.9215 32.4508 52.9521 32.5369 52.9521 32.6287L52.9171 38.9156L52.8821 45.2025C52.8821 45.2448 52.7946 45.2798 52.7523 45.2798C52.7085 45.2783 52.6196 45.2433 52.6196 45.1996L52.3017 44.5273L52.3308 39.2306L52.3352 38.3337L52.3658 32.9365L51.9123 32.4742L44.641 29.2367L44.5317 29.1871L37.4281 26.0239L36.8958 25.3735C36.8535 25.359 36.8565 25.2627 36.8754 25.2233Z" fill="#EFB617"/>
<path d="M36.8842 25.2365C36.9017 25.1956 36.976 25.1883 37.0169 25.2088L44.8204 28.6854L52.026 31.8938C52.1238 31.9361 52.8238 32.2948 52.8646 32.3896C52.9142 32.4523 52.9448 32.5369 52.9448 32.6258L52.9083 38.9025L52.8719 45.1792C52.8719 45.2229 52.7858 45.2579 52.7421 45.2579C52.6983 45.2565 52.6094 45.2215 52.6094 45.1763L52.3046 44.4938L52.3352 39.2073L52.341 38.3119L52.3717 32.9248L51.9108 32.4698L44.6527 29.2381L44.5419 29.1886L37.4529 26.0313L36.9031 25.3896C36.8638 25.3706 36.8667 25.2758 36.8842 25.2365Z" fill="#F0B717"/>
<path d="M36.8944 25.2496C36.9133 25.2088 36.9862 25.2 37.0285 25.2204L44.8292 28.6971L52.0217 31.9011C52.115 31.9419 52.8223 32.3021 52.8617 32.3925C52.9112 32.4538 52.9419 32.5354 52.9419 32.6229L52.9054 38.8894L52.8689 45.1559C52.8689 45.1996 52.7844 45.2361 52.7406 45.2361C52.6954 45.2346 52.6094 45.1996 52.6094 45.1529L52.3177 44.4588L52.3483 39.1825L52.3542 38.2886L52.3848 32.9117L51.9167 32.464L44.6717 29.2367L44.5608 29.1871L37.485 26.0356L36.9177 25.4027C36.8739 25.3823 36.8754 25.289 36.8944 25.2496Z" fill="#F1B817"/>
<path d="M36.9031 25.2613C36.9221 25.219 36.995 25.2102 37.0373 25.2306L44.835 28.7073L52.0129 31.9054C52.1034 31.9448 52.8165 32.305 52.8544 32.3925C52.904 32.4508 52.9331 32.5325 52.9331 32.6171L52.8967 38.8719L52.8602 45.1267C52.8602 45.1719 52.7771 45.2083 52.7319 45.2083C52.6867 45.2069 52.6021 45.1704 52.6021 45.1252L52.3236 44.4208L52.3542 39.1548L52.36 38.2623L52.3921 32.8971L51.9152 32.4552L44.6834 29.2338L44.5725 29.1842L37.5113 26.0385L36.9265 25.4144C36.8842 25.3954 36.8842 25.3021 36.9031 25.2613Z" fill="#F1B917"/>
<path d="M36.9133 25.2744C36.9323 25.2321 37.0052 25.2219 37.0489 25.2423L44.8437 28.7175L52.0071 31.9098C52.0931 31.9477 52.8135 32.3094 52.8485 32.3925C52.8966 32.4494 52.9273 32.5281 52.9273 32.6113L52.8894 38.8558L52.8514 45.1004C52.8514 45.1456 52.7698 45.1835 52.7246 45.1835C52.6779 45.1821 52.5948 45.1456 52.5948 45.099L52.3294 44.3829L52.3614 39.1271L52.3673 38.2375L52.3994 32.8825L51.9152 32.4479L44.6964 29.2308L44.5841 29.1813L37.5375 26.0415L36.9352 25.4261C36.8944 25.4071 36.8944 25.3152 36.9133 25.2744Z" fill="#F2BA17"/>
<path d="M36.9221 25.2875C36.9411 25.2438 37.014 25.2336 37.0577 25.254L44.8496 28.7292L51.9998 31.9171C52.0815 31.9536 52.8092 32.3167 52.8427 32.3954C52.8908 32.4508 52.92 32.5267 52.92 32.6083L52.8821 38.8427L52.8442 45.0771C52.8442 45.1238 52.764 45.1617 52.7173 45.1617C52.6706 45.1602 52.589 45.1223 52.589 45.0756L52.3367 44.3494L52.3688 39.1038L52.3746 38.2156L52.4067 32.8708L51.9167 32.4421L44.7111 29.2294L44.5988 29.1798L37.5667 26.0458L36.9483 25.4392C36.9046 25.4188 36.9031 25.3283 36.9221 25.2875Z" fill="#F2BB17"/>
<path d="M36.9323 25.2992C36.9513 25.2554 37.0242 25.2438 37.0679 25.2656L44.8569 28.7408L51.9925 31.9229C52.0698 31.9565 52.8048 32.321 52.8369 32.3969C52.885 32.4508 52.9142 32.5252 52.9142 32.6054L52.8748 38.8296L52.8354 45.0538C52.8354 45.1004 52.7567 45.1398 52.71 45.1398C52.6619 45.1383 52.5817 45.1004 52.5817 45.0523L52.3425 44.3144L52.3746 39.079L52.3804 38.1923L52.414 32.8577L51.9167 32.4348L44.7242 29.2279L44.6119 29.1769L37.5944 26.0473L36.9586 25.4494C36.9148 25.4304 36.9119 25.3415 36.9323 25.2992Z" fill="#F3BC16"/>
<path d="M36.9411 25.3123C36.9615 25.2671 37.0329 25.2554 37.0781 25.2773L44.8656 28.7525L51.9881 31.9288C52.0611 31.9608 52.8034 32.3269 52.834 32.3983C52.8821 32.4494 52.9113 32.5223 52.9113 32.6011L52.8719 38.815L52.8325 45.029C52.8325 45.0771 52.7552 45.115 52.7071 45.115C52.659 45.1136 52.5802 45.0756 52.5802 45.0261L52.3542 44.2765L52.3877 39.0513L52.3936 38.1661L52.4271 32.8417L51.9211 32.429L44.7417 29.2265L44.625 29.1754L37.6221 26.0517L36.9688 25.4625C36.925 25.4435 36.9206 25.3561 36.9411 25.3123Z" fill="#F4BD16"/>
<path d="M36.9512 25.324C36.9716 25.2788 37.0431 25.2656 37.0883 25.2875L44.8729 28.7613L51.9808 31.9331C52.0508 31.9638 52.7989 32.3313 52.8281 32.3983C52.8748 32.4479 52.9039 32.5194 52.9039 32.5952L52.8646 38.799L52.8252 45.0027C52.8252 45.0508 52.7493 45.0902 52.7012 45.0902C52.6516 45.0888 52.5758 45.0494 52.5758 44.9998L52.3629 44.24L52.3964 39.025L52.4023 38.1413L52.4358 32.8271L51.9225 32.4217L44.7562 29.225L44.6425 29.174L37.6541 26.056L36.9833 25.4756C36.9366 25.4552 36.9308 25.3692 36.9512 25.324Z" fill="#F4BE16"/>
<path d="M36.96 25.3371C36.9804 25.2919 37.0519 25.2773 37.0971 25.2992L44.8787 28.7729L51.9735 31.939C52.0391 31.9681 52.7946 32.3356 52.8208 32.3983C52.8675 32.4465 52.8966 32.515 52.8966 32.5894L52.8558 38.7815L52.815 44.9735C52.815 45.0231 52.7406 45.0625 52.691 45.0625C52.6414 45.061 52.5656 45.0217 52.5656 44.9706L52.3658 44.1992L52.3993 38.9944L52.4052 38.1135L52.4402 32.811L51.9196 32.4115L44.7664 29.2192L44.6527 29.1681L37.6789 26.056L36.9906 25.4844C36.9469 25.4669 36.9396 25.3823 36.96 25.3371Z" fill="#F5BF16"/>
<path d="M36.9687 25.3502C36.9892 25.3035 37.0606 25.289 37.1073 25.3108L44.886 28.7846L51.9662 31.9448C52.0275 31.971 52.7902 32.3415 52.815 32.3998C52.8616 32.445 52.8894 32.5135 52.8894 32.585L52.8485 38.7669L52.8077 44.9488C52.8077 44.9983 52.7348 45.0392 52.6852 45.0392C52.6341 45.0377 52.5612 44.9969 52.5612 44.9458L52.3731 44.1642L52.4081 38.9696L52.4139 38.0902L52.4489 32.7979L51.921 32.4056L44.781 29.2177L44.6658 29.1667L37.7067 26.0604L37.0023 25.4975C36.9571 25.4785 36.9483 25.3954 36.9687 25.3502Z" fill="#F6C016"/>
<path d="M36.979 25.3619C36.9994 25.3152 37.0694 25.2992 37.1175 25.3225L44.8933 28.7963L51.9604 31.9521C52.0173 31.9769 52.7873 32.3473 52.8106 32.4027C52.8558 32.4465 52.885 32.5121 52.885 32.5835L52.8427 38.7552L52.8004 44.9269C52.8004 44.9779 52.729 45.0188 52.6779 45.0188C52.6269 45.0173 52.5554 44.9765 52.5554 44.924L52.3804 44.1306L52.4154 38.9463L52.4213 38.0683L52.4577 32.7863L51.9225 32.4013L44.7956 29.2192L44.6804 29.1667L37.7358 26.0663L37.014 25.5121C36.9673 25.4917 36.9571 25.4085 36.979 25.3619Z" fill="#F6C116"/>
<path d="M36.9877 25.375C37.0096 25.3269 37.0782 25.3108 37.1277 25.3342L44.9007 28.8079L51.9532 31.9579C52.0057 31.9813 52.7829 32.3531 52.8048 32.4042C52.85 32.4465 52.8792 32.5106 52.8792 32.5792L52.8369 38.7406L52.7946 44.9021C52.7946 44.9531 52.7246 44.9954 52.6736 44.9954C52.6211 44.994 52.5511 44.9531 52.5511 44.8992L52.3892 44.0956L52.4242 38.9215L52.43 38.045L52.4665 32.7731L51.924 32.3954L44.8102 29.2177L44.695 29.1667L37.765 26.0721L37.0257 25.5267C36.9775 25.5033 36.9673 25.4217 36.9877 25.375Z" fill="#F7C216"/>
<path d="M36.9979 25.3881C37.0198 25.34 37.0883 25.3225 37.1379 25.3458L44.9079 28.8181L51.9458 31.9623C51.9954 31.9842 52.7785 32.3575 52.7989 32.4042C52.8442 32.4435 52.8719 32.5062 52.8719 32.5733L52.8296 38.7246L52.7873 44.8758C52.7873 44.9283 52.7187 44.9706 52.6677 44.9706C52.6152 44.9692 52.5467 44.9269 52.5467 44.8744L52.3979 44.0592L52.4344 38.8952L52.4402 38.0217L52.4767 32.76L51.9254 32.3896L44.8248 29.2177L44.7081 29.1652L37.7927 26.075L37.0358 25.5383C36.9877 25.515 36.976 25.4348 36.9979 25.3881Z" fill="#F7C316"/>
<path d="M37.0067 25.3998C37.0285 25.3502 37.0971 25.3327 37.1467 25.356L44.9152 28.8283L51.94 31.9681C51.9852 31.9871 52.7756 32.3619 52.7946 32.4056C52.8383 32.4435 52.8675 32.5048 52.8675 32.569L52.8237 38.71L52.78 44.851C52.78 44.9035 52.7129 44.9473 52.6604 44.9473C52.6064 44.9458 52.5394 44.9035 52.5394 44.8496L52.4037 44.0242L52.4402 38.8704L52.446 37.9983L52.4839 32.7469L51.9254 32.3823L44.8379 29.2148L44.7212 29.1623L37.8204 26.0779L37.046 25.55C36.9979 25.5281 36.9848 25.4479 37.0067 25.3998Z" fill="#F8C415"/>
<path d="M37.0169 25.4129C37.0387 25.3633 37.1073 25.3444 37.1583 25.3677L44.9239 28.84L51.9342 31.974C51.975 31.9915 52.7727 32.3677 52.7887 32.4071C52.8325 32.4435 52.8602 32.5019 52.8602 32.5646L52.8164 38.694L52.7727 44.8233C52.7727 44.8773 52.7071 44.9196 52.6546 44.9196C52.6006 44.9181 52.535 44.8744 52.535 44.8204L52.4125 43.9833L52.449 38.8398L52.4548 37.9692L52.4927 32.7279L51.9269 32.3706L44.8525 29.2075L44.7358 29.155L37.8496 26.0765L37.0577 25.5573C37.0081 25.5398 36.995 25.461 37.0169 25.4129Z" fill="#F9C515"/>
<path d="M37.0256 25.4261C37.049 25.375 37.116 25.3561 37.1671 25.3808L44.9298 28.8531L51.9269 31.9813C51.9633 31.9973 52.7683 32.375 52.7829 32.41C52.8267 32.445 52.8544 32.5004 52.8544 32.5631L52.8092 38.6823L52.764 44.8015C52.764 44.8554 52.6998 44.8992 52.6458 44.8992C52.5904 44.8977 52.5277 44.854 52.5277 44.7985L52.4183 43.9498L52.4563 38.8165L52.4621 37.9473L52.5 32.7177L51.9269 32.3677L44.8656 29.2104L44.7475 29.1579L37.8758 26.0852L37.0679 25.5748C37.0183 25.5515 37.0038 25.4742 37.0256 25.4261Z" fill="#F9C615"/>
<path d="M37.0358 25.4377C37.0591 25.3867 37.1262 25.3663 37.1773 25.391L44.9371 28.8619L51.9196 31.9856C51.9516 32.0002 52.7639 32.3779 52.7771 32.41C52.8208 32.4421 52.8471 32.4975 52.8471 32.5573L52.8019 38.6662L52.7566 44.7752C52.7566 44.8306 52.6939 44.8744 52.64 44.8744C52.5846 44.8729 52.5219 44.8292 52.5219 44.7723L52.4256 43.9133L52.4635 38.7902L52.4694 37.9225L52.5087 32.7031L51.9283 32.3604L44.8802 29.2075L44.7621 29.155L37.905 26.0881L37.0796 25.5865C37.0285 25.5631 37.0125 25.4873 37.0358 25.4377Z" fill="#FAC715"/>
<path d="M37.0446 25.4508C37.0679 25.3998 37.135 25.3779 37.1875 25.4027L44.9444 28.8736L51.9137 31.9915C51.9429 32.0046 52.761 32.3838 52.7727 32.4115C52.815 32.4421 52.8427 32.4946 52.8427 32.5529L52.7975 38.6517L52.7523 44.7504C52.7523 44.8058 52.691 44.8511 52.6356 44.8511C52.5787 44.8496 52.5189 44.8044 52.5189 44.7475L52.4358 43.8769L52.4737 38.764L52.4796 37.8992L52.5189 32.69L51.9312 32.3546L44.8962 29.2075L44.7781 29.155L37.9341 26.094L37.0912 25.6011C37.0387 25.5763 37.0212 25.5004 37.0446 25.4508Z" fill="#FBC815"/>
<path d="M37.0548 25.4625C37.0781 25.41 37.1452 25.3881 37.1977 25.4129L44.9517 28.8837L51.9065 31.9958C51.9312 32.006 52.7567 32.3881 52.7669 32.4115C52.8092 32.4406 52.8369 32.4917 52.8369 32.5471L52.7902 38.6356L52.7435 44.7242C52.7435 44.781 52.6838 44.8262 52.6283 44.8262C52.5715 44.8248 52.5131 44.7796 52.5131 44.7212L52.4431 43.8404L52.4825 38.7377L52.4898 37.8744L52.5292 32.6754L51.9342 32.3458L44.9123 29.2031L44.7927 29.1492L37.9633 26.0925L37.1029 25.6083C37.0489 25.5879 37.0314 25.5135 37.0548 25.4625Z" fill="#FBC915"/>
<path d="M37.0636 25.4756C37.0869 25.4231 37.154 25.3998 37.2079 25.4246L44.9604 28.8954L51.9021 32.0031C51.9225 32.0119 52.7552 32.3939 52.7625 32.4144C52.8048 32.4406 52.8311 32.4902 52.8311 32.5442L52.7844 38.6225L52.7377 44.7008C52.7377 44.7577 52.6794 44.8044 52.6225 44.8044C52.5642 44.8029 52.5073 44.7562 52.5073 44.6979L52.4504 43.8054L52.4898 38.7129L52.4971 37.851L52.5379 32.6623L51.9356 32.34L44.9269 29.2017L44.8073 29.1477L37.9925 26.0969L37.1146 25.6214C37.0592 25.5996 37.0402 25.5281 37.0636 25.4756Z" fill="#FCCA15"/>
<path d="M37.0737 25.4888C37.0985 25.4348 37.1642 25.4115 37.2181 25.4377L44.9677 28.9085L51.8948 32.0104C51.9108 32.0177 52.7508 32.4013 52.7566 32.4173C52.7975 32.4421 52.8252 32.4902 52.8252 32.5413L52.7771 38.6094L52.7289 44.6775C52.7289 44.7358 52.6721 44.7825 52.6152 44.7825C52.5554 44.7781 52.5 44.7315 52.5 44.6717L52.4562 43.769L52.4956 38.6867L52.5029 37.8263L52.5437 32.6477L51.9342 32.3327L44.9385 29.2002L44.8189 29.1463L38.0187 26.1013L37.1233 25.6346C37.0694 25.6113 37.049 25.5413 37.0737 25.4888Z" fill="#FCCB15"/>
<path d="M37.0825 25.5004C37.1073 25.4465 37.1729 25.4217 37.2269 25.4479L44.9736 28.9173L51.8875 32.0133C51.8992 32.0192 52.7465 32.4042 52.7509 32.4158C52.7917 32.4392 52.8179 32.4844 52.8179 32.5354L52.7698 38.5919L52.7217 44.6483C52.7217 44.7067 52.6663 44.7548 52.6079 44.7548C52.5482 44.7533 52.4942 44.7067 52.4942 44.6469L52.4636 43.7325L52.5044 38.6604L52.5117 37.8029L52.5525 32.636L51.9356 32.3283L44.9532 29.2002L44.8321 29.1462L38.0465 26.1071L37.135 25.6492C37.0796 25.6244 37.0577 25.5544 37.0825 25.5004Z" fill="#FDCC14"/>
<path d="M37.0927 25.5136C37.1175 25.4581 37.1831 25.4333 37.2385 25.4596L44.9823 28.929L51.8817 32.0192C51.8904 32.0221 52.7435 32.4086 52.7464 32.4173C52.7873 32.4377 52.8135 32.4829 52.8135 32.5311L52.7654 38.5773L52.7173 44.6236C52.7173 44.6834 52.6633 44.73 52.605 44.73C52.5452 44.7286 52.4927 44.6804 52.4927 44.6206L52.4752 43.6961L52.516 38.6342L52.5233 37.7781L52.5656 32.6215L51.94 32.3211L44.9706 29.1988L44.8496 29.1448L38.0785 26.1115L37.1496 25.6623C37.0898 25.6361 37.0679 25.5675 37.0927 25.5136Z" fill="#FECD14"/>
<path d="M37.1015 25.5267C37.1262 25.4712 37.1904 25.445 37.2473 25.4712L44.9881 28.9406L51.8729 32.0264C51.8773 32.0279 52.7362 32.4158 52.7392 32.4202C52.78 32.4392 52.8048 32.4814 52.8048 32.5281L52.7552 38.5642L52.7056 44.6002C52.7056 44.66 52.6531 44.7081 52.5933 44.7081C52.5321 44.7067 52.4825 44.6585 52.4825 44.5973L52.4767 43.661L52.5175 38.6094L52.5248 37.7548L52.5671 32.6083L51.9342 32.3137L44.9779 29.1958L44.8569 29.1419L38.1004 26.1144L37.154 25.6739C37.1 25.6477 37.0767 25.5806 37.1015 25.5267Z" fill="#FECE14"/>
<path d="M52.589 44.6833C52.5262 44.6819 52.4781 44.6323 52.4781 44.571L52.5277 38.5817L52.5773 32.5923L44.8715 29.1375L37.1656 25.6827C37.1102 25.6579 37.0854 25.5923 37.1102 25.5369C37.135 25.48 37.1992 25.4538 37.256 25.48L44.994 28.9494L52.7319 32.4188C52.7712 32.4363 52.7975 32.4771 52.7975 32.5208L52.7479 38.5467L52.6983 44.5725C52.6998 44.6338 52.6502 44.6833 52.589 44.6833Z" fill="#FFCF14"/>
<path d="M52.535 48.8162C53.8115 48.8162 54.8464 47.7814 54.8464 46.5048C54.8464 45.2282 53.8115 44.1933 52.535 44.1933C51.2584 44.1933 50.2235 45.2282 50.2235 46.5048C50.2235 47.7814 51.2584 48.8162 52.535 48.8162Z" fill="url(#paint3_radial)"/>
<path d="M38.2244 24.0844C37.7125 23.5317 36.4641 23.1394 35 23.1394C33.5358 23.1394 32.2875 23.5317 31.7756 24.0844H31.5233V24.6385C31.5233 25.4669 33.0794 26.1377 35 26.1377C36.9206 26.1377 38.4766 25.4669 38.4766 24.6385V24.0844H38.2244Z" fill="#262626"/>
<path d="M35 25.5835C36.9201 25.5835 38.4766 24.9123 38.4766 24.0844C38.4766 23.2564 36.9201 22.5852 35 22.5852C33.0799 22.5852 31.5233 23.2564 31.5233 24.0844C31.5233 24.9123 33.0799 25.5835 35 25.5835Z" fill="url(#paint4_radial)"/>
<defs>
<radialGradient id="paint0_radial" cx="0" cy="0" r="1" gradientUnits="userSpaceOnUse" gradientTransform="translate(35.14 50.3316) scale(20.9723 16.3794)">
<stop stop-color="#FD3D00"/>
<stop offset="0.279" stop-color="#FD3D00"/>
<stop offset="0.766" stop-color="#FD3D00"/>
<stop offset="1" stop-color="#FD3D00"/>
</radialGradient>
<radialGradient id="paint1_radial" cx="0" cy="0" r="1" gradientUnits="userSpaceOnUse" gradientTransform="translate(52.3872 55.2069) scale(4.62326 6.7167)">
<stop stop-color="#FFCF14"/>
<stop offset="0.186" stop-color="#FAC715"/>
<stop offset="0.475" stop-color="#ECB118"/>
<stop offset="0.828" stop-color="#D68E1C"/>
<stop offset="1" stop-color="#C97A1F"/>
</radialGradient>
<radialGradient id="paint2_radial" cx="0" cy="0" r="1" gradientUnits="userSpaceOnUse" gradientTransform="translate(35.2888 39.0805) scale(57.8827 30.1511)">
<stop stop-color="#FD3D00"/>
<stop offset="0.2789" stop-color="#FD3D00"/>
<stop offset="0.279" stop-color="#FD3D00"/>
<stop offset="0.766" stop-color="#FD3D00"/>
<stop offset="1" stop-color="#FD3D00"/>
</radialGradient>
<radialGradient id="paint3_radial" cx="0" cy="0" r="1" gradientUnits="userSpaceOnUse" gradientTransform="translate(52.535 46.5042) scale(2.31146 2.22039)">
<stop offset="0.148" stop-color="#FFCF14"/>
<stop offset="0.355" stop-color="#FDCC14"/>
<stop offset="0.533" stop-color="#F6C116"/>
<stop offset="0.7" stop-color="#EBAF18"/>
<stop offset="0.859" stop-color="#DB971B"/>
<stop offset="1" stop-color="#C97A1F"/>
</radialGradient>
<radialGradient id="paint4_radial" cx="0" cy="0" r="1" gradientUnits="userSpaceOnUse" gradientTransform="translate(35 24.0849) scale(3.76833 1.60531)">
<stop/>
<stop offset="0.279" stop-color="#2D2D2D"/>
<stop offset="0.766" stop-color="#101010"/>
<stop offset="1"/>
</radialGradient>
</defs>
</svg>
