<svg width="25" height="25" viewBox="0 0 25 25" fill="none" xmlns="http://www.w3.org/2000/svg">
<path d="M19.7917 3.64584H5.20833C4.63542 3.64584 4.16667 4.11459 4.16667 4.68751V7.81251C4.16667 8.38543 4.63542 8.85418 5.20833 8.85418H19.7917C20.3646 8.85418 20.8333 8.38543 20.8333 7.81251V4.68751C20.8333 4.11459 20.3646 3.64584 19.7917 3.64584ZM19.7917 9.89584H5.20833C4.63542 9.89584 4.16667 10.3646 4.16667 10.9375V14.0625C4.16667 14.6354 4.63542 15.1042 5.20833 15.1042H19.7917C20.3646 15.1042 20.8333 14.6354 20.8333 14.0625V10.9375C20.8333 10.3646 20.3646 9.89584 19.7917 9.89584ZM19.7917 16.1458H5.20833C4.63542 16.1458 4.16667 16.6146 4.16667 17.1875V20.3125C4.16667 20.8854 4.63542 21.3542 5.20833 21.3542H19.7917C20.3646 21.3542 20.8333 20.8854 20.8333 20.3125V17.1875C20.8333 16.6146 20.3646 16.1458 19.7917 16.1458Z" fill="#FD8467" fill-opacity="0.5"/>
<path d="M19.7917 14.5833C18.4103 14.5833 17.0856 15.1321 16.1088 16.1088C15.1321 17.0856 14.5833 18.4103 14.5833 19.7917C14.5833 21.173 15.1321 22.4978 16.1088 23.4745C17.0856 24.4513 18.4103 25 19.7917 25C21.173 25 22.4978 24.4513 23.4745 23.4745C24.4513 22.4978 25 21.173 25 19.7917C25 18.4103 24.4513 17.0856 23.4745 16.1088C22.4978 15.1321 21.173 14.5833 19.7917 14.5833Z" fill="#F43636"/>
<path d="M17 19L19.5 21.5L23.5 18" stroke="white" stroke-linecap="round"/>
</svg>
