<svg width="25" height="25" viewBox="0 0 25 25" fill="none" xmlns="http://www.w3.org/2000/svg">
<path d="M3.51562 8.98437C3.51562 8.76875 3.34102 8.59375 3.125 8.59375H0.78125C0.565234 8.59375 0.390625 8.76875 0.390625 8.98437C0.390625 9.2 0.565234 9.375 0.78125 9.375H3.125C3.34102 9.375 3.51562 9.2 3.51562 8.98437ZM3.66172 12.134L2.21289 12.7191C2.0125 12.8 1.91602 13.0277 1.99688 13.2277C2.0582 13.3797 2.2043 13.4723 2.35898 13.4723C2.40781 13.4723 2.45742 13.4629 2.50508 13.4437L3.95391 12.8586C4.1543 12.7777 4.25078 12.55 4.16992 12.35C4.08906 12.15 3.86016 12.0543 3.66172 12.134ZM3.95391 5.11015L2.50508 4.525C2.30664 4.44492 2.07773 4.54101 1.99688 4.74101C1.91602 4.94101 2.0125 5.16875 2.21289 5.24961L3.66172 5.83476C3.70937 5.8539 3.75898 5.86328 3.80781 5.86328C3.9625 5.86328 4.10859 5.7707 4.16992 5.61875C4.25078 5.41875 4.1543 5.19101 3.95391 5.11015ZM13.0027 11.0543L12.2238 11.8332C12.1504 11.9062 12.1094 12.0059 12.1094 12.1094V14.4531C12.1094 14.6687 12.284 14.8437 12.5 14.8437C12.716 14.8437 12.8906 14.6687 12.8906 14.4531V12.2711L13.5551 11.6066C13.7078 11.4539 13.7078 11.207 13.5551 11.0543C13.4023 10.9016 13.1555 10.9016 13.0027 11.0543ZM11.9949 11.052L11.2137 10.2707C11.0609 10.118 10.8141 10.118 10.6613 10.2707C10.5086 10.4234 10.5086 10.6703 10.6613 10.823L11.4426 11.6043C11.5187 11.6805 11.6187 11.7187 11.7188 11.7187C11.8188 11.7187 11.9188 11.6805 11.9949 11.6043C12.1477 11.4516 12.1477 11.2047 11.9949 11.052ZM13.3535 4.37461C13.5664 4.41406 13.7691 4.27344 13.8082 4.06133C13.8473 3.84922 13.707 3.6457 13.4945 3.60625C12.0977 3.34922 10.6781 3.63555 9.49805 4.41211C9.31797 4.53086 9.26797 4.77305 9.38672 4.95312C9.46133 5.06719 9.58633 5.1289 9.71328 5.1289C9.78672 5.1289 9.86172 5.1082 9.92773 5.06445C10.9391 4.39961 12.1543 4.15469 13.3535 4.37461Z" fill="#FD8467"/>
<path d="M24.3086 7.46094L22.8281 7.08984C22.7891 6.98438 22.7461 6.875 22.6953 6.76953L23.4805 5.46094C23.5742 5.30859 23.5469 5.10938 23.4219 4.98438L22.3555 3.91797C22.2305 3.78906 22.0312 3.76562 21.8789 3.85938L20.5703 4.64453C20.4609 4.59375 20.3555 4.55078 20.25 4.51172L19.8789 3.03125C19.8359 2.85547 19.6797 2.73438 19.5 2.73438H17.9922C17.8125 2.73438 17.6562 2.85547 17.6133 3.03125L17.4961 3.5C16.1758 2.29688 14.4219 1.5625 12.5 1.5625C8.40625 1.5625 5.07812 4.89063 5.07812 8.98438C5.07812 10.9258 6.16406 12.3789 7.21484 13.7812C8.06016 14.9082 8.85156 15.9816 8.98438 17.2027V19.9219C8.98438 21.2965 10.0055 22.4344 11.3281 22.625V23.0469C11.3281 23.4777 11.6785 23.8281 12.1094 23.8281H12.8906C13.3215 23.8281 13.6719 23.4777 13.6719 23.0469V22.625C14.9945 22.4344 16.0156 21.2965 16.0156 19.9219V17.9453V17.5547C16.0156 16.2852 16.7539 15.1953 17.5898 14.0664L17.6133 14.1563C17.6562 14.332 17.8125 14.4531 17.9922 14.4531H19.5C19.6797 14.4531 19.8359 14.332 19.8789 14.1563L20.25 12.6758C20.3555 12.6367 20.4609 12.5938 20.5703 12.543L21.8789 13.3281C22.0312 13.4219 22.2305 13.3984 22.3555 13.2695L23.4219 12.2031C23.5469 12.0781 23.5742 11.8789 23.4805 11.7266L22.6953 10.418C22.7461 10.3125 22.7891 10.2031 22.8281 10.0977L24.3086 9.72656C24.4844 9.68359 24.6055 9.52734 24.6055 9.34766V7.83984C24.6055 7.66016 24.4844 7.50391 24.3086 7.46094ZM12.8906 23.0469H12.1094V22.6562H12.8906V23.0469ZM15.2344 19.9219C15.2344 19.9379 15.2301 19.9523 15.2297 19.9684L11.2633 20.4641C11.0492 20.4906 10.8973 20.6859 10.9242 20.9C10.9488 21.0977 11.1172 21.2422 11.3113 21.2422C11.3273 21.2422 11.3438 21.2414 11.3602 21.2391L15.0266 20.7809C14.7074 21.4262 14.0484 21.875 13.2812 21.875H11.7188C10.6418 21.875 9.76562 20.9988 9.76562 19.9219V19.8762L15.2344 19.1926V19.9219ZM15.2344 18.4051L9.76562 19.0887V17.9688H15.2344V18.4051ZM17.1719 13.3164C16.2969 14.4922 15.3945 15.707 15.25 17.1641H12.8906V16.0156C12.8906 15.8 12.716 15.625 12.5 15.625C12.284 15.625 12.1094 15.8 12.1094 16.0156V17.1641H9.77344C9.63281 15.707 8.72266 14.4922 7.83984 13.3125C6.86719 12.0117 5.85938 10.668 5.85938 8.98438C5.85938 5.32422 8.83984 2.34375 12.5 2.34375C14.375 2.34375 16.0703 3.125 17.2734 4.38281L17.2422 4.51172C17.1367 4.55078 17.0273 4.59375 16.9219 4.64453L15.6133 3.85938C15.457 3.76562 15.2617 3.78906 15.1367 3.91797L14.0703 4.98438C13.9414 5.10938 13.918 5.30859 14.0117 5.46094L14.7969 6.76953C14.7461 6.875 14.7031 6.98438 14.6641 7.08984L13.1836 7.46094C13.0078 7.50391 12.8867 7.66016 12.8867 7.83984V9.34766C12.8867 9.52734 13.0078 9.68359 13.1836 9.72656L14.6641 10.0977C14.7031 10.2031 14.7461 10.3125 14.7969 10.418L14.0117 11.7266C13.918 11.8789 13.9414 12.0781 14.0703 12.2031L15.1367 13.2695C15.2617 13.3984 15.457 13.4219 15.6133 13.3281L16.9219 12.543C17.0273 12.5938 17.1367 12.6367 17.2422 12.6758L17.3438 13.0859C17.2852 13.1641 17.2305 13.2383 17.1719 13.3164ZM23.8242 9.04297L22.4336 9.39063C22.3008 9.42188 22.1953 9.52344 22.1562 9.65234C22.0938 9.85156 22.0078 10.0547 21.9062 10.2539C21.8398 10.375 21.8438 10.5195 21.9141 10.6367L22.6523 11.8672L22.0195 12.5039L20.7891 11.7617C20.6719 11.6914 20.5234 11.6875 20.4063 11.7539C20.207 11.8555 20.0039 11.9414 19.8047 12.0039C19.6758 12.043 19.5742 12.1484 19.543 12.2812L19.1953 13.6719H18.2969L18.1914 13.25L17.9492 12.2812C17.9453 12.2734 17.9453 12.2617 17.9375 12.2539C17.8984 12.1328 17.8086 12.0391 17.6836 12.0039C17.4883 11.9414 17.2852 11.8555 17.0859 11.7539C16.9648 11.6875 16.8203 11.6953 16.7031 11.7617L15.4727 12.5039L14.8359 11.8672L15.5742 10.6367C15.6445 10.5195 15.6484 10.375 15.5859 10.2539C15.4805 10.0547 15.3984 9.85156 15.3359 9.65234C15.2969 9.52344 15.1914 9.42188 15.0586 9.39063L13.668 9.04297V8.14453L15.0586 7.79687C15.1914 7.76562 15.2969 7.66406 15.3359 7.53516C15.3984 7.33594 15.4805 7.13281 15.5859 6.93359C15.6484 6.8125 15.6445 6.66797 15.5742 6.55078L14.8359 5.32031L15.4727 4.68359L16.7031 5.42578C16.8203 5.49219 16.9648 5.49609 17.0859 5.43359C17.2852 5.33203 17.4883 5.24609 17.6836 5.18359C17.7539 5.16406 17.8164 5.12109 17.8555 5.07031C17.9023 5.02344 17.9336 4.96875 17.9492 4.90625L18.1367 4.16016L18.2969 3.51562H19.1953L19.543 4.90625C19.5742 5.03906 19.6758 5.14453 19.8047 5.18359C20.0039 5.24609 20.207 5.33203 20.4063 5.43359C20.5234 5.5 20.6719 5.49219 20.7891 5.42578L22.0195 4.68359L22.6523 5.32031L21.9141 6.55078C21.8438 6.66797 21.8398 6.8125 21.9062 6.93359C22.0078 7.13281 22.0938 7.33594 22.1562 7.53516C22.1953 7.66406 22.3008 7.76562 22.4336 7.79687L23.8242 8.14453V9.04297Z" fill="#FD8467"/>
<path d="M18.7453 6.64062C17.6684 6.64062 16.7969 7.5168 16.7969 8.59375C16.7969 9.6707 17.6684 10.5469 18.7453 10.5469C19.8223 10.5469 20.6984 9.6707 20.6984 8.59375C20.6984 7.5168 19.8223 6.64062 18.7453 6.64062ZM18.7453 9.76562C18.0992 9.76562 17.5734 9.23984 17.5734 8.59375C17.5734 7.94766 18.0992 7.42188 18.7453 7.42188C19.3914 7.42188 19.9172 7.94766 19.9172 8.59375C19.9172 9.23984 19.3918 9.76562 18.7453 9.76562Z" fill="#FD8467"/>
</svg>
