<svg width="25" height="25" viewBox="0 0 25 25" fill="none" xmlns="http://www.w3.org/2000/svg">
<path d="M19.7917 8.85418C19.7917 8.75001 19.7917 8.69793 19.7917 8.59376C19.7917 6.71876 18.2813 5.20834 16.4063 5.20834C15.5208 5.20834 14.7396 5.57293 14.1146 6.09376C13.3854 4.63543 11.875 3.64584 10.1563 3.64584C7.70833 3.64584 5.72917 5.62501 5.72917 8.07293C5.72917 8.33334 5.78125 8.59376 5.78125 8.85418C4.01042 9.06251 2.60417 10.5729 2.60417 12.4479C2.60417 14.4792 4.21875 16.0938 6.25 16.0938H6.30209C6.45834 16.1458 6.61458 16.1458 6.77083 16.1458H19.7917C21.8229 16.1458 23.4375 14.5313 23.4375 12.5C23.4375 10.4688 21.8229 8.85418 19.7917 8.85418Z" fill="#FF6F00" fill-opacity="0.5"/>
<path d="M17.2396 14.0625L13.0729 9.375L8.90625 14.0625H11.4583V21.3542H14.5833V14.0625H17.2396Z" fill="#FF6F00"/>
</svg>
