<svg width="553" height="419" viewBox="0 0 553 419" fill="none" xmlns="http://www.w3.org/2000/svg">
<path d="M202.895 178.572V318.616C202.897 319.687 202.687 320.747 202.278 321.737C201.869 322.727 201.268 323.626 200.51 324.383C199.753 325.14 198.853 325.741 197.863 326.15C196.873 326.559 195.812 326.769 194.74 326.767H9.87972C8.80829 326.769 7.74706 326.559 6.75687 326.15C5.76667 325.741 4.86698 325.141 4.10936 324.383C3.35175 323.626 2.7511 322.727 2.34185 321.737C1.9326 320.747 1.7228 319.687 1.72447 318.616V178.572" fill="white"/>
<path d="M194.74 328.271H9.87969C8.6111 328.271 7.35489 328.021 6.18282 327.536C5.01075 327.051 3.94579 326.34 3.04876 325.443C2.15173 324.547 1.44021 323.482 0.954836 322.311C0.469466 321.139 0.219756 319.884 0.219971 318.616V178.572H3.22931V318.616C3.22985 320.379 3.93069 322.069 5.17776 323.315C6.42483 324.562 8.11607 325.262 9.87969 325.263H194.74C196.504 325.262 198.195 324.562 199.442 323.315C200.689 322.069 201.39 320.379 201.391 318.616V178.572H204.4V318.616C204.397 321.176 203.379 323.63 201.568 325.44C199.757 327.25 197.301 328.268 194.74 328.271V328.271Z" fill="#F9D5FF"/>
<path d="M201.571 152.133C200.678 151.232 199.613 150.518 198.44 150.032C197.268 149.547 196.01 149.3 194.74 149.306H9.87969C7.31864 149.309 4.86328 150.327 3.05234 152.137C1.2414 153.947 0.222783 156.401 0.219971 158.961L0.219971 180.075H204.4V158.961C204.409 157.692 204.163 156.433 203.677 155.261C203.191 154.088 202.475 153.025 201.571 152.133Z" fill="#F9D5FF"/>
<path d="M16.801 169.969C19.726 169.969 22.0973 167.599 22.0973 164.676C22.0973 161.752 19.726 159.382 16.801 159.382C13.8759 159.382 11.5047 161.752 11.5047 164.676C11.5047 167.599 13.8759 169.969 16.801 169.969Z" fill="#F94F74"/>
<path d="M34.8869 169.969C37.8119 169.969 40.1831 167.599 40.1831 164.676C40.1831 161.752 37.8119 159.382 34.8869 159.382C31.9618 159.382 29.5906 161.752 29.5906 164.676C29.5906 167.599 31.9618 169.969 34.8869 169.969Z" fill="#F5B870"/>
<path d="M53.003 169.969C55.928 169.969 58.2992 167.599 58.2992 164.676C58.2992 161.752 55.928 159.382 53.003 159.382C50.0779 159.382 47.7067 161.752 47.7067 164.676C47.7067 167.599 50.0779 169.969 53.003 169.969Z" fill="#6FB895"/>
<path d="M194.74 328.271H9.87969C8.6111 328.271 7.35489 328.021 6.18282 327.536C5.01075 327.051 3.94579 326.34 3.04876 325.443C2.15173 324.547 1.44021 323.482 0.954836 322.311C0.469466 321.139 0.219756 319.884 0.219971 318.616V262.31H3.22931V318.617C3.22985 320.379 3.93069 322.07 5.17776 323.316C6.42483 324.563 8.11607 325.263 9.87969 325.264H194.74C196.504 325.263 198.195 324.563 199.442 323.316C200.689 322.07 201.39 320.379 201.391 318.617V262.31H204.4V318.617C204.397 321.176 203.378 323.63 201.567 325.44C199.756 327.25 197.301 328.268 194.74 328.271V328.271Z" fill="#F9D5FF"/>
<path d="M94.3859 140.329C87.174 126.972 93.1189 124.176 80.8392 111.403C68.5596 98.6614 76.3563 70.3225 73.1729 55.7932C72.133 50.9505 67.6501 43.6052 65.4411 36.6496C62.6797 27.9063 72.6872 20.7566 80.0922 26.1194C82.5755 27.9647 84.7944 30.1417 86.687 32.5895C87.4422 33.5459 88.3809 34.3415 89.448 34.9295C92.8268 36.8469 96.2378 38.6997 100.948 41.3649C117.289 50.6276 113.943 69.6085 121.447 78.8712C128.95 88.1338 153.478 84.0389 167.317 105.163C197.269 150.86 125.995 198.994 94.3859 140.329Z" fill="url(#paint0_linear)"/>
<path d="M152.017 43.215C152.017 43.215 154.388 77.6014 150.165 84.589C148.355 87.6136 145.518 89.8862 142.172 90.9919L140.71 91.4796L90.487 104.123C86.584 105.407 82.331 105.088 78.6634 103.235C74.9958 101.382 72.2141 98.1473 70.9303 94.2425C69.6465 90.3377 69.9657 86.0826 71.8178 82.4133C73.6698 78.7439 76.9029 75.961 80.8058 74.6765L131.03 62.0334L126.612 89.172L128.691 39.8025" fill="url(#paint1_linear)"/>
<path d="M128.659 39.77L130.51 33.2696C131.282 30.5992 133.017 28.3103 135.379 26.8463C137.741 25.3822 140.562 24.8473 143.296 25.345C146.029 25.8427 148.481 27.3376 150.176 29.5403C151.871 31.7429 152.689 34.4966 152.471 37.2678L152.017 43.2151L128.659 39.77Z" fill="#FDC068"/>
<path d="M177.485 132.009C194.248 160.87 210.653 230.78 213.284 234.81L179.889 231.885L145.421 154.76L63.1997 141.531L102.118 117.513L148.832 116.311C154.584 116.072 160.291 117.408 165.34 120.174C170.389 122.941 174.588 127.032 177.485 132.009V132.009Z" fill="url(#paint2_linear)"/>
<path d="M227.091 248.591L188.043 242.091C185.022 240.53 184.339 239.556 182.293 235.852L179.889 231.919L213.284 234.844L229.852 244.626C232.256 246.316 229.885 249.728 227.091 248.591Z" fill="#2B2B2B"/>
<path d="M102.28 118.488C99.5837 103.082 89.578 105.293 91.6574 94.3723C93.7368 83.452 86.7195 69.5738 75.4143 71.2618C66.6751 72.5619 66.0256 72.2697 62.3547 72.822C50.725 74.5447 41.9213 86.6351 47.2816 97.7831C47.2816 97.7831 51.5695 101.781 52.122 105.291C52.6744 108.801 45.3647 115.139 47.2166 125.734L102.28 118.488Z" fill="url(#paint3_linear)"/>
<path d="M58.9763 73.67C57.9368 74.8075 58.098 78.3505 62.5497 79.7802C66.9681 81.2428 74.7319 84.2331 77.5908 84.1681C80.4497 84.1031 84.4451 81.0152 83.6006 76.5952L78.2082 71.7526L61.1853 72.9551L58.9763 73.67Z" fill="white"/>
<path d="M102.28 118.943H102.345C102.461 118.921 102.563 118.854 102.63 118.756C102.697 118.659 102.723 118.539 102.703 118.423C101.338 110.655 98.1217 107.275 95.5553 104.545C94.7445 103.736 93.9959 102.866 93.3156 101.945C93.2467 101.85 93.1429 101.786 93.0271 101.768C92.9114 101.75 92.7931 101.778 92.6984 101.847C92.6036 101.916 92.5401 102.02 92.5219 102.136C92.5037 102.252 92.5321 102.37 92.6011 102.465C93.3065 103.426 94.0887 104.328 94.94 105.163C97.4432 107.795 100.527 111.11 101.859 118.586C101.875 118.686 101.926 118.777 102.003 118.843C102.081 118.908 102.179 118.944 102.28 118.943V118.943Z" fill="#2B2B2B"/>
<path d="M79.6047 121.478L131.063 129.604C141.263 130.936 148.378 138.704 152.373 148.227C164.653 177.608 135.253 248.103 135.091 249.5L106.99 240.53L112.612 163.989L51.0184 155.766L79.6047 121.478Z" fill="url(#paint4_linear)"/>
<path d="M146.786 267.799L107.315 252.166C106.203 251.698 105.316 250.816 104.843 249.706C104.37 248.595 104.348 247.344 104.781 246.218L106.99 240.563L135.091 249.533L149.06 263.769C151.301 265.394 149.352 268.872 146.786 267.799Z" fill="#2B2B2B"/>
<path d="M46.9891 124.046C47.7036 132.366 52.674 144.944 68.365 143.026L80.9688 141.109C95.2628 139.351 102.864 126.483 102.117 117.545L46.9891 124.046Z" fill="url(#paint5_linear)"/>
<path d="M71.7434 121.121L65.8636 146.309L54.7209 138.086L62.9072 122.161L71.7434 121.121Z" fill="#2B2B2B"/>
<path d="M73.9849 79.9414L88.311 74.5812C88.311 74.5812 85.3225 70.9736 77.6558 70.9736L73.9849 79.9414Z" fill="#2B2B2B"/>
<path d="M73.7899 176.893C72.9454 176.698 57.5143 172.28 44.2927 167.175C39.5806 165.361 35.6072 162.027 33.0009 157.701C30.3946 153.375 29.304 148.303 29.9016 143.287C32.1105 124.663 38.8353 96.0621 39.2248 94.762L40.1343 91.7722C40.4268 90.8934 40.6868 89.9844 40.9793 89.107C43.7082 80.8839 52.804 76.2363 60.9582 79.0965C64.3838 80.3096 67.278 82.6819 69.1406 85.8036C71.0031 88.9252 71.7169 92.5998 71.1585 96.1922C70.996 97.2321 70.8014 98.2396 70.6064 99.28L70.0215 102.367C69.6315 104.415 69.177 106.463 68.722 108.51C67.8125 112.605 59.3988 138.119 59.3988 138.119C59.3988 138.119 83.2106 153.492 83.6331 153.719" fill="url(#paint6_linear)"/>
<path d="M83.6006 153.687C84.8676 154.5 86.1345 155.312 87.4015 156.157L89.8704 157.815C90.6824 158.4 91.5274 158.952 92.3069 159.537C94.4584 161.094 95.9959 163.356 96.6518 165.931C97.3076 168.505 97.0402 171.227 95.8961 173.625C94.752 176.022 92.8036 177.942 90.3904 179.049C87.9772 180.157 85.252 180.383 82.6894 179.688C81.7149 179.428 80.7725 179.136 79.8305 178.843L76.972 177.964C75.8996 177.639 74.8276 177.282 73.7556 176.924" fill="#FDC068"/>
<path d="M79.4102 58.6209L69.307 59.1732C68.0628 59.2421 66.8172 59.0645 65.6418 58.6506C64.4664 58.2366 63.3842 57.5945 62.4575 56.7609C61.5309 55.9274 60.7779 54.919 60.2418 53.7935C59.7057 52.6681 59.3972 51.4478 59.3338 50.2027L58.7813 38.0147C58.4243 30.9296 64.7587 22.4793 73.1417 22.0219C75.1342 21.9147 77.1283 22.2014 79.01 22.8655C80.8918 23.5296 82.6243 24.5582 84.1085 25.8924C85.5928 27.2266 86.7998 28.8404 87.6605 30.6414C88.5212 32.4425 89.0188 34.3956 89.1247 36.3891L89.6118 47.3095C89.6854 48.7226 89.4799 50.1364 89.0069 51.47C88.5339 52.8036 87.8027 54.0308 86.8552 55.0814C85.9077 56.132 84.7624 56.9854 83.4849 57.5927C82.2074 58.2001 80.8228 58.5495 79.4102 58.6209V58.6209Z" fill="#FDC068"/>
<path d="M86.979 42.5978C86.028 42.5978 85.2571 41.8265 85.2571 40.875C85.2571 39.9236 86.028 39.1523 86.979 39.1523C87.93 39.1523 88.7009 39.9236 88.7009 40.875C88.7009 41.8265 87.93 42.5978 86.979 42.5978Z" fill="#2B2B2B"/>
<path d="M74.8944 80.2666L63.4596 76.1713C62.8234 75.9458 62.2665 75.54 61.8569 75.0033C61.4472 74.4667 61.2026 73.8223 61.1527 73.1489L59.3663 50.6579C60.0808 46.8877 75.7718 46.3029 75.7718 46.3029L80.4497 75.1963C80.5608 75.9318 80.489 76.6834 80.2406 77.3845C79.9922 78.0856 79.5749 78.7147 79.0257 79.216C78.4764 79.7173 77.8121 80.0755 77.0915 80.2587C76.3709 80.4419 75.6162 80.4446 74.8944 80.2666Z" fill="#FDC068"/>
<path d="M82.9511 46.2054C83.0312 46.2035 83.1096 46.1811 83.1786 46.1403L84.5751 45.23C84.7446 45.0905 84.8839 44.9179 84.9844 44.7227C85.0849 44.5276 85.1446 44.314 85.1598 44.095C85.175 43.8759 85.1454 43.6561 85.0728 43.4489C85.0002 43.2417 84.8862 43.0515 84.7376 42.8899L82.4979 40.4198C82.4615 40.3705 82.4153 40.3293 82.362 40.2989C82.3088 40.2685 82.2498 40.2496 82.1888 40.2434C82.1278 40.2372 82.0662 40.2438 82.0079 40.2629C81.9497 40.2819 81.896 40.313 81.8505 40.354C81.8049 40.3951 81.7685 40.4452 81.7435 40.5012C81.7184 40.5571 81.7054 40.6178 81.7052 40.6791C81.705 40.7404 81.7177 40.8011 81.7423 40.8572C81.767 40.9134 81.8031 40.9637 81.8484 41.0051L84.0881 43.4752C84.2182 43.6164 84.2882 43.8029 84.2831 43.9949C84.2845 44.0916 84.2614 44.187 84.216 44.2723C84.1705 44.3576 84.1041 44.43 84.0231 44.4826L82.6911 45.3614C82.595 45.4284 82.528 45.5296 82.5035 45.6442C82.479 45.7589 82.499 45.8786 82.5594 45.9791C82.5967 46.0499 82.6533 46.1088 82.7226 46.1488C82.7919 46.1889 82.8711 46.2085 82.9511 46.2054V46.2054Z" fill="#2B2B2B"/>
<path d="M82.8861 51.4052H83.0486C84.1531 51.3402 85.3225 50.5265 85.485 48.838C85.4979 48.7215 85.4641 48.6046 85.3909 48.5131C85.3176 48.4215 85.2111 48.3628 85.0946 48.3499C84.9781 48.337 84.8613 48.3708 84.7698 48.4441C84.6783 48.5173 84.6196 48.624 84.6067 48.7405C84.6012 49.1769 84.4363 49.5962 84.1432 49.9195C83.85 50.2427 83.4488 50.4475 83.0152 50.4953C82.2028 50.5603 81.2586 50.0081 80.9358 48.6755C80.9209 48.6178 80.8947 48.5636 80.8589 48.516C80.8231 48.4684 80.7782 48.4283 80.7269 48.3981C80.6756 48.3678 80.6188 48.348 80.5598 48.3397C80.5008 48.3314 80.4408 48.3348 80.3831 48.3497C80.3254 48.3646 80.2713 48.3907 80.2237 48.4266C80.1761 48.4624 80.1361 48.5073 80.1058 48.5587C80.0756 48.61 80.0557 48.6668 80.0475 48.7258C80.0392 48.7848 80.0426 48.8449 80.0575 48.9026C80.4496 50.6579 81.7166 51.4052 82.8861 51.4052Z" fill="#2B2B2B"/>
<path d="M77.7533 58.6859L71.256 58.2958L78.7928 65.0233L77.7533 58.6859Z" fill="#2B2B2B"/>
<path d="M77.1358 43.0854C76.1848 43.0854 75.4139 42.3142 75.4139 41.3627C75.4139 40.4113 76.1848 39.64 77.1358 39.64C78.0868 39.64 78.8577 40.4113 78.8577 41.3627C78.8577 42.3142 78.0868 43.0854 77.1358 43.0854Z" fill="#2B2B2B"/>
<path d="M70.7039 22.0566C71.9059 26.412 86.1345 34.3421 89.383 34.8302C89.383 34.8302 88.7984 21.0167 70.7039 22.0566Z" fill="url(#paint7_linear)"/>
<path d="M70.7039 22.0566C70.7039 22.0566 68.527 56.9307 68.527 65.0233C68.527 73.1159 60.9902 70.9714 53.3239 76.5939C43.4157 70.1911 41.6287 51.4703 51.0499 45.7827C59.0088 40.9725 56.6698 38.5024 60.277 30.9639C63.8843 23.4253 70.7039 22.0566 70.7039 22.0566Z" fill="url(#paint8_linear)"/>
<path d="M64.6291 122.421C64.725 122.419 64.8177 122.386 64.8936 122.328C64.9696 122.269 65.0248 122.188 65.0512 122.096L69.6315 106.367C69.6486 106.311 69.6546 106.253 69.6491 106.195C69.6437 106.137 69.6269 106.081 69.5998 106.03C69.5726 105.978 69.5357 105.933 69.491 105.896C69.4463 105.859 69.3947 105.831 69.3393 105.814C69.2838 105.797 69.2256 105.791 69.1678 105.796C69.11 105.802 69.0539 105.819 69.0026 105.846C68.9513 105.873 68.9059 105.91 68.8689 105.955C68.8319 105.999 68.8041 106.051 68.787 106.106L64.2067 121.836C64.1748 121.948 64.1875 122.068 64.242 122.171C64.2965 122.274 64.3886 122.352 64.4991 122.388C64.5373 122.414 64.5833 122.426 64.6291 122.421V122.421Z" fill="#2B2B2B"/>
<path d="M127.164 76.3663C127.278 76.3605 127.385 76.315 127.468 76.2378C127.551 76.1606 127.605 76.0567 127.619 75.9441L128.204 62.8783C128.208 62.7618 128.166 62.6483 128.087 62.5629C128.007 62.4774 127.897 62.427 127.781 62.4227C127.664 62.4184 127.551 62.4606 127.466 62.5399C127.38 62.6192 127.33 62.7293 127.326 62.8458L126.741 75.9116C126.738 75.9694 126.747 76.0271 126.766 76.0814C126.786 76.1357 126.817 76.1855 126.856 76.2279C126.896 76.2703 126.943 76.3043 126.996 76.3281C127.048 76.3519 127.105 76.3649 127.163 76.3663H127.164Z" fill="#2B2B2B"/>
<path d="M53.9735 149.787C54.0569 149.787 54.1384 149.762 54.2078 149.716C54.2772 149.67 54.3314 149.604 54.3634 149.527L59.7558 138.279C59.7814 138.228 59.7967 138.172 59.8007 138.115C59.8048 138.058 59.7976 138.001 59.7795 137.946C59.7614 137.892 59.7328 137.842 59.6953 137.799C59.6579 137.755 59.6122 137.72 59.561 137.694C59.5099 137.669 59.4541 137.653 59.397 137.649C59.34 137.645 59.2826 137.652 59.2283 137.67C59.174 137.689 59.1238 137.717 59.0806 137.755C59.0373 137.792 59.0019 137.838 58.9763 137.889L53.5839 149.135C53.5561 149.203 53.5445 149.276 53.5501 149.35C53.5557 149.423 53.5783 149.494 53.6161 149.557C53.6539 149.62 53.7059 149.674 53.7679 149.713C53.8299 149.753 53.9003 149.777 53.9735 149.785V149.787Z" fill="#2B2B2B"/>
<path d="M154.81 177.348C154.92 177.349 155.026 177.31 155.11 177.238C155.194 177.167 155.249 177.067 155.265 176.958L157.149 158.725C157.774 152.719 156.165 146.694 152.629 141.801C149.093 136.909 143.878 133.492 137.982 132.204L106.665 125.313C106.553 125.287 106.436 125.307 106.338 125.368C106.241 125.429 106.172 125.526 106.146 125.639C106.12 125.751 106.14 125.868 106.201 125.966C106.262 126.063 106.359 126.133 106.471 126.159L137.788 133.049C143.467 134.288 148.49 137.579 151.895 142.293C155.299 147.007 156.846 152.811 156.24 158.595L154.356 176.828C154.349 176.886 154.354 176.944 154.37 177C154.386 177.056 154.413 177.108 154.449 177.153C154.486 177.198 154.53 177.236 154.581 177.264C154.632 177.292 154.688 177.309 154.746 177.315C154.762 177.334 154.785 177.345 154.81 177.348Z" fill="#2B2B2B"/>
<path d="M112.611 164.445C112.721 164.446 112.828 164.407 112.911 164.335C112.995 164.264 113.049 164.164 113.065 164.055L113.683 157.522C113.689 157.464 113.684 157.406 113.668 157.35C113.652 157.294 113.625 157.242 113.589 157.197C113.552 157.152 113.508 157.114 113.457 157.086C113.406 157.058 113.35 157.04 113.292 157.034C113.235 157.027 113.176 157.033 113.121 157.049C113.065 157.065 113.013 157.092 112.968 157.128C112.922 157.164 112.885 157.209 112.857 157.26C112.829 157.311 112.811 157.367 112.804 157.424L112.19 163.957C112.183 164.015 112.188 164.074 112.204 164.129C112.22 164.185 112.247 164.237 112.283 164.283C112.319 164.328 112.364 164.366 112.415 164.394C112.466 164.421 112.522 164.439 112.58 164.445H112.611Z" fill="#2B2B2B"/>
<path d="M170.145 117.546H117.685V124.031H170.145V117.546Z" fill="#F9D5FF"/>
<path d="M175.012 63.8208H232.039C232.518 63.8033 232.996 63.8808 233.444 64.0488C233.892 64.2167 234.302 64.4717 234.649 64.7987C234.996 65.1258 235.274 65.5183 235.465 65.9531C235.657 66.3879 235.759 66.8563 235.765 67.3307C235.778 67.531 235.758 67.7321 235.706 67.926L229.638 119.986C229.494 121.117 228.939 122.158 228.077 122.914C227.214 123.67 226.103 124.088 224.951 124.091H163.835L170.385 67.9277C170.555 66.8178 171.109 65.8009 171.954 65.0515C172.798 64.3021 173.879 63.867 175.012 63.8208V63.8208Z" fill="#F9D5FF"/>
<path d="M205.457 97.6814C207.75 95.5382 208.038 92.1545 206.101 90.1237C204.164 88.0929 200.735 88.184 198.443 90.3272C196.151 92.4704 195.862 95.854 197.799 97.8848C199.736 99.9157 203.165 99.8246 205.457 97.6814Z" fill="white"/>
<path d="M331.147 230.822C331.023 230.805 330.897 230.813 330.777 230.846C330.656 230.879 330.543 230.935 330.445 231.012C330.346 231.089 330.264 231.185 330.203 231.295C330.142 231.404 330.103 231.525 330.089 231.649C330.076 231.774 330.087 231.9 330.122 232.02C330.158 232.14 330.217 232.252 330.296 232.349C330.375 232.446 330.473 232.526 330.583 232.585C330.694 232.643 330.815 232.679 330.94 232.69C332.06 232.74 333.365 232.862 334.735 232.922C334.996 232.924 335.247 232.823 335.435 232.641C335.629 232.487 335.77 232.275 335.838 232.036C335.844 231.789 335.754 231.55 335.587 231.367C335.421 231.185 335.191 231.074 334.945 231.057C333.637 230.935 332.327 230.937 331.147 230.822Z" fill="#2B2B2B"/>
<path d="M289.612 216.198C289.314 215.872 288.621 216.029 288.296 216.327C288.216 216.422 288.157 216.531 288.12 216.649C288.083 216.767 288.071 216.891 288.083 217.014C288.095 217.137 288.131 217.257 288.19 217.365C288.249 217.474 288.328 217.57 288.425 217.647C290.347 219.33 292.409 220.845 294.588 222.178C294.753 222.303 294.958 222.365 295.165 222.351C295.372 222.337 295.567 222.249 295.715 222.103L295.975 221.865C296.088 221.635 296.112 221.372 296.042 221.126C295.972 220.88 295.814 220.669 295.597 220.534C293.484 219.259 291.482 217.809 289.612 216.198V216.198Z" fill="#2B2B2B"/>
<path d="M284.416 210.895C282.832 209.03 281.458 206.996 280.318 204.829C280.258 204.719 280.177 204.621 280.08 204.542C279.982 204.463 279.869 204.405 279.749 204.37C279.628 204.335 279.502 204.326 279.377 204.341C279.253 204.356 279.133 204.396 279.024 204.458C278.913 204.518 278.816 204.599 278.737 204.697C278.658 204.795 278.6 204.908 278.566 205.029C278.531 205.15 278.521 205.277 278.536 205.401C278.551 205.526 278.591 205.647 278.654 205.756C279.846 208.033 281.278 210.174 282.927 212.144C283.011 212.248 283.115 212.335 283.233 212.398C283.352 212.461 283.481 212.499 283.615 212.511C283.748 212.523 283.882 212.508 284.01 212.466C284.137 212.425 284.255 212.358 284.356 212.27C284.544 212.094 284.656 211.852 284.667 211.595C284.678 211.337 284.588 211.086 284.416 210.895V210.895Z" fill="#2B2B2B"/>
<path d="M277.436 198.133C276.647 195.788 276.085 193.373 275.757 190.921C275.709 190.679 275.569 190.466 275.368 190.324C275.166 190.183 274.918 190.125 274.675 190.163C274.432 190.201 274.213 190.332 274.064 190.528C273.914 190.724 273.846 190.97 273.874 191.215C274.219 193.77 274.796 196.289 275.598 198.738C275.641 198.856 275.707 198.964 275.792 199.056C275.877 199.148 275.98 199.222 276.094 199.274C276.208 199.326 276.331 199.354 276.456 199.357C276.581 199.361 276.705 199.339 276.822 199.294C276.945 199.275 277.058 199.213 277.14 199.119C277.276 198.999 277.376 198.843 277.429 198.668C277.481 198.494 277.483 198.308 277.436 198.133Z" fill="#2B2B2B"/>
<path d="M241.214 139.819C241.611 139.337 241.697 138.776 241.395 138.575L240.264 137.336C238.955 135.901 237.584 134.398 236.341 132.906C236.264 132.803 236.167 132.716 236.056 132.65C235.945 132.584 235.823 132.541 235.695 132.524C235.568 132.506 235.438 132.514 235.314 132.546C235.189 132.579 235.072 132.636 234.97 132.715C234.868 132.793 234.782 132.891 234.718 133.003C234.653 133.114 234.612 133.238 234.595 133.366C234.579 133.494 234.588 133.624 234.622 133.748C234.656 133.873 234.714 133.989 234.793 134.091C236.102 135.526 237.409 137.087 238.716 138.52L239.845 139.758C240.02 139.946 240.261 140.057 240.517 140.069C240.773 140.08 241.023 139.99 241.214 139.819V139.819Z" fill="#2B2B2B"/>
<path d="M302.179 224.082C302.068 224.022 301.945 223.986 301.819 223.976C301.694 223.966 301.567 223.983 301.448 224.025C301.328 224.066 301.219 224.132 301.127 224.219C301.034 224.305 300.961 224.41 300.911 224.526C300.851 224.638 300.815 224.76 300.805 224.887C300.795 225.013 300.812 225.14 300.853 225.26C300.895 225.379 300.961 225.489 301.047 225.581C301.133 225.674 301.238 225.748 301.354 225.798C303.622 226.712 306.015 227.633 308.473 228.494C308.626 228.567 308.798 228.592 308.966 228.566C309.134 228.541 309.291 228.465 309.415 228.348C309.543 228.232 309.553 228.105 309.689 227.863C309.732 227.75 309.752 227.629 309.746 227.508C309.74 227.387 309.709 227.269 309.655 227.16C309.601 227.052 309.526 226.956 309.433 226.879C309.34 226.801 309.233 226.744 309.117 226.71C306.744 226.002 304.426 225.124 302.179 224.082V224.082Z" fill="#2B2B2B"/>
<path d="M294.031 144.935C296.078 143.593 298.261 142.475 300.545 141.597C300.668 141.578 300.781 141.516 300.863 141.422C300.993 141.284 301.082 141.113 301.124 140.927C301.165 140.742 301.156 140.549 301.098 140.369C301.055 140.251 300.989 140.143 300.904 140.051C300.819 139.959 300.716 139.885 300.602 139.833C300.489 139.782 300.365 139.753 300.24 139.75C300.115 139.746 299.991 139.768 299.874 139.813C297.427 140.692 295.107 141.893 292.975 143.385C292.771 143.525 292.63 143.741 292.584 143.986C292.538 144.23 292.591 144.483 292.73 144.688C292.87 144.894 293.086 145.035 293.33 145.081C293.573 145.127 293.825 145.074 294.03 144.934L294.031 144.935Z" fill="#2B2B2B"/>
<path d="M283.815 155.741C283.879 155.682 283.82 155.619 284.01 155.562C285.393 153.542 286.917 151.624 288.572 149.822C288.737 149.629 288.821 149.38 288.805 149.127C288.79 148.873 288.677 148.636 288.491 148.464C288.304 148.293 288.058 148.201 287.805 148.208C287.552 148.216 287.312 148.321 287.135 148.503C285.385 150.384 283.792 152.406 282.372 154.548C282.301 154.651 282.25 154.768 282.224 154.891C282.198 155.014 282.197 155.141 282.22 155.264C282.244 155.388 282.292 155.505 282.362 155.61C282.431 155.714 282.521 155.804 282.626 155.873C282.817 155.961 283.029 155.994 283.238 155.971C283.448 155.948 283.647 155.868 283.815 155.741V155.741Z" fill="#2B2B2B"/>
<path d="M252.177 148.694C250.31 147.172 248.449 145.524 246.594 143.751C246.402 143.586 246.153 143.502 245.9 143.517C245.648 143.532 245.411 143.645 245.24 143.833C245.069 144.02 244.977 144.266 244.984 144.52C244.992 144.774 245.097 145.015 245.278 145.192C247.134 146.964 249.055 148.677 250.922 150.2C251.109 150.327 251.333 150.389 251.559 150.377C251.785 150.364 252.001 150.278 252.173 150.131C252.342 149.93 252.435 149.676 252.435 149.413C252.436 149.151 252.345 148.896 252.177 148.694V148.694Z" fill="#2B2B2B"/>
<path d="M315.31 140.756C313.568 139.238 310.915 138.557 307.607 138.595C307.363 138.606 307.132 138.713 306.965 138.892C306.798 139.071 306.708 139.309 306.713 139.554C306.718 139.8 306.819 140.033 306.994 140.205C307.169 140.377 307.403 140.473 307.648 140.474C310.459 140.411 312.742 141.08 314.124 142.203C314.312 142.33 314.535 142.392 314.761 142.379C314.987 142.367 315.203 142.28 315.375 142.133L315.439 142.075C315.518 141.98 315.578 141.871 315.615 141.753C315.651 141.635 315.664 141.511 315.652 141.388C315.639 141.265 315.603 141.146 315.544 141.037C315.486 140.929 315.406 140.833 315.31 140.756V140.756Z" fill="#2B2B2B"/>
<path d="M316.266 228.655C316.021 228.594 315.761 228.634 315.545 228.765C315.328 228.896 315.173 229.108 315.112 229.354C315.052 229.6 315.091 229.861 315.222 230.078C315.353 230.295 315.564 230.451 315.81 230.511C318.28 231.108 320.78 231.575 323.298 231.911C323.447 231.933 323.6 231.919 323.743 231.871C323.886 231.823 324.015 231.742 324.121 231.634C324.271 231.462 324.368 231.248 324.398 231.021C324.42 230.775 324.346 230.529 324.192 230.336C324.037 230.143 323.814 230.017 323.57 229.984C321.091 229.621 318.617 229.135 316.266 228.655Z" fill="#2B2B2B"/>
<path d="M285.387 163.884C285.263 163.867 285.137 163.875 285.016 163.908C284.896 163.941 284.783 163.997 284.684 164.074C284.586 164.151 284.503 164.247 284.442 164.357C284.381 164.466 284.343 164.587 284.329 164.711C284.315 164.836 284.326 164.962 284.362 165.082C284.397 165.202 284.456 165.314 284.535 165.411C284.615 165.508 284.712 165.588 284.823 165.647C284.933 165.705 285.055 165.741 285.179 165.752C287.76 165.954 290.354 165.903 292.924 165.597C293.128 165.529 293.321 165.431 293.496 165.307C293.756 165.069 293.835 164.762 293.713 164.629C293.71 164.502 293.68 164.378 293.625 164.265C293.57 164.151 293.492 164.05 293.396 163.969C293.3 163.887 293.187 163.827 293.066 163.792C292.945 163.758 292.818 163.749 292.694 163.767C290.263 163.968 287.822 164.007 285.387 163.884V163.884Z" fill="#2B2B2B"/>
<path d="M315.48 148.147C314.831 150.448 313.646 152.561 312.023 154.313C311.944 154.407 311.884 154.517 311.847 154.635C311.811 154.753 311.798 154.877 311.81 155C311.822 155.123 311.859 155.242 311.917 155.351C311.976 155.46 312.056 155.555 312.152 155.633C312.334 155.774 312.561 155.844 312.79 155.831C313.02 155.818 313.238 155.723 313.403 155.563C313.42 155.548 313.43 155.526 313.431 155.503C313.432 155.48 313.424 155.458 313.409 155.441C315.228 153.5 316.572 151.16 317.332 148.608C317.393 148.362 317.353 148.101 317.222 147.884C317.092 147.667 316.88 147.511 316.634 147.45C316.389 147.389 316.129 147.429 315.913 147.56C315.696 147.691 315.54 147.903 315.48 148.15L315.48 148.147Z" fill="#2B2B2B"/>
<path d="M306.45 158.944C304.417 160.294 302.207 161.353 299.883 162.092C299.658 162.195 299.478 162.376 299.376 162.601C299.274 162.827 299.258 163.082 299.329 163.319C299.372 163.437 299.438 163.545 299.523 163.637C299.608 163.729 299.71 163.803 299.824 163.854C299.938 163.906 300.061 163.934 300.186 163.938C300.311 163.941 300.436 163.92 300.552 163.874C302.975 162.978 305.303 161.846 307.505 160.494L307.632 160.377C307.798 160.231 307.901 160.027 307.923 159.807C307.944 159.587 307.881 159.368 307.747 159.192C307.604 158.992 307.39 158.854 307.148 158.808C306.906 158.762 306.656 158.811 306.45 158.944Z" fill="#2B2B2B"/>
<path d="M264.59 158.636L264.851 158.397C264.916 158.286 264.958 158.162 264.975 158.034C264.991 157.905 264.981 157.775 264.946 157.651C264.911 157.526 264.851 157.41 264.769 157.31C264.688 157.209 264.587 157.126 264.473 157.066C262.399 155.972 260.278 154.563 258.157 153.154C258.053 153.084 257.937 153.035 257.815 153.01C257.692 152.984 257.566 152.983 257.443 153.007C257.32 153.03 257.204 153.078 257.099 153.147C256.995 153.216 256.905 153.305 256.835 153.408C256.765 153.512 256.716 153.629 256.69 153.751C256.665 153.874 256.664 154.001 256.688 154.124C256.711 154.247 256.759 154.364 256.827 154.469C256.896 154.573 256.985 154.663 257.088 154.734C259.151 156.208 261.3 157.558 263.523 158.776C263.695 158.862 263.888 158.895 264.078 158.87C264.269 158.845 264.447 158.764 264.59 158.636Z" fill="#2B2B2B"/>
<path d="M273.994 175.89C273.592 178.425 273.374 180.987 273.343 183.554C273.376 183.793 273.488 184.014 273.662 184.181C273.836 184.349 274.061 184.452 274.3 184.475C274.415 184.486 274.532 184.472 274.641 184.434C274.751 184.395 274.85 184.334 274.934 184.253C275.033 184.147 275.105 184.018 275.144 183.878C275.182 183.738 275.187 183.591 275.156 183.449C275.237 180.986 275.472 178.53 275.858 176.097C275.879 175.852 275.805 175.609 275.649 175.419C275.494 175.23 275.271 175.108 275.028 175.081C274.785 175.054 274.541 175.123 274.348 175.274C274.155 175.425 274.028 175.645 273.995 175.888L273.994 175.89Z" fill="#2B2B2B"/>
<path d="M278.582 161.139C278.37 161.693 278.164 162.121 277.958 162.55C275.629 161.974 273.347 161.224 271.131 160.305C271.017 160.251 270.893 160.22 270.767 160.215C270.64 160.211 270.515 160.232 270.397 160.278C270.279 160.323 270.172 160.393 270.082 160.482C269.992 160.57 269.921 160.677 269.873 160.794C269.826 160.911 269.803 161.037 269.805 161.164C269.808 161.29 269.836 161.415 269.889 161.53C269.941 161.645 270.016 161.749 270.11 161.833C270.203 161.918 270.313 161.983 270.433 162.024C272.767 162.88 275.037 163.666 277.26 164.269C276.671 165.568 276.173 166.905 275.769 168.273C275.7 168.518 275.726 168.781 275.844 169.008C275.961 169.234 276.161 169.407 276.401 169.49C276.554 169.534 276.716 169.537 276.871 169.5C277.025 169.463 277.168 169.387 277.285 169.279C277.428 169.168 277.542 169.023 277.617 168.858C278.362 166.507 279.257 164.206 280.295 161.969C280.396 161.741 280.407 161.482 280.324 161.246C280.242 161.01 280.073 160.814 279.852 160.698C279.741 160.637 279.619 160.601 279.493 160.591C279.366 160.58 279.24 160.596 279.12 160.638C279.001 160.679 278.891 160.745 278.798 160.832C278.706 160.918 278.632 161.023 278.582 161.139V161.139Z" fill="#2B2B2B"/>
<path d="M231.501 128.12C231.665 127.974 231.769 127.771 231.79 127.551C231.811 127.332 231.749 127.112 231.615 126.937C230.846 125.965 230.084 124.866 229.317 123.892C229.177 123.687 228.962 123.545 228.718 123.499C228.474 123.453 228.222 123.506 228.017 123.646C227.813 123.787 227.672 124.003 227.626 124.247C227.58 124.492 227.633 124.744 227.772 124.95C228.542 125.921 229.302 127.021 230.07 127.994C230.248 128.192 230.495 128.316 230.761 128.339C231.026 128.363 231.29 128.284 231.501 128.12V128.12Z" fill="#2B2B2B"/>
<path d="M522.605 413.192H477.826L494.539 406.451H505.891L522.605 413.192Z" fill="white"/>
<path d="M522.605 414.697H477.826C477.478 414.7 477.14 414.581 476.87 414.361C476.601 414.141 476.417 413.834 476.35 413.493C476.288 413.151 476.344 412.799 476.508 412.493C476.672 412.187 476.935 411.945 477.254 411.808L493.966 405.067C494.149 404.994 494.343 404.953 494.539 404.945H505.892C506.089 404.941 506.285 404.983 506.464 405.067L523.177 411.808C523.499 411.939 523.766 412.179 523.931 412.485C524.096 412.792 524.149 413.146 524.082 413.488C524.014 413.829 523.83 414.137 523.56 414.357C523.291 414.578 522.953 414.698 522.605 414.697V414.697ZM485.565 411.688H514.835L505.59 407.954H494.809L485.565 411.688Z" fill="#F9D5FF"/>
<path d="M503.663 369.434H496.737V405.969H503.663V369.434Z" fill="white"/>
<path d="M503.663 407.474H496.737C496.539 407.476 496.342 407.439 496.159 407.364C495.975 407.289 495.809 407.178 495.668 407.038C495.528 406.898 495.418 406.731 495.343 406.548C495.268 406.364 495.23 406.168 495.232 405.97V369.435C495.23 369.237 495.268 369.04 495.343 368.857C495.418 368.674 495.528 368.507 495.668 368.367C495.809 368.227 495.975 368.116 496.159 368.041C496.342 367.966 496.539 367.929 496.737 367.93H503.663C503.861 367.928 504.058 367.966 504.241 368.041C504.425 368.116 504.591 368.227 504.731 368.367C504.872 368.507 504.982 368.673 505.057 368.857C505.132 369.04 505.17 369.237 505.168 369.435V405.97C505.17 406.168 505.132 406.365 505.057 406.548C504.982 406.731 504.872 406.898 504.731 407.038C504.591 407.178 504.425 407.289 504.241 407.364C504.058 407.439 503.861 407.476 503.663 407.474ZM498.243 404.466H502.158V370.939H498.243V404.466Z" fill="#F9D5FF"/>
<path d="M505.169 370.097H495.231V376.417H505.169V370.097Z" fill="#2B2B2B"/>
<path d="M506.283 330.612H494.117V374.55H506.283V330.612Z" fill="#F9D5FF"/>
<path d="M506.283 342.199H494.117V347.465H506.283V342.199Z" fill="#2B2B2B"/>
<path d="M517.666 339.039H482.764V345.359H517.666V339.039Z" fill="#F9D5FF"/>
<path d="M449.385 323.841L450.831 298.05C451.042 294.285 452.69 290.745 455.435 288.158C458.18 285.571 461.813 284.135 465.586 284.145L487.298 284.235L484.919 326.882C484.847 328.268 484.244 329.573 483.234 330.525C482.225 331.478 480.887 332.006 479.498 331.998H456.913C456.303 331.996 455.696 331.915 455.106 331.757C451.523 330.913 449.174 327.512 449.385 323.841Z" fill="white"/>
<path d="M479.498 333.501H456.913C456.182 333.5 455.454 333.409 454.745 333.231C450.499 332.237 447.638 328.265 447.879 323.781L449.325 297.989C449.561 293.842 451.378 289.943 454.403 287.094C457.427 284.245 461.429 282.662 465.586 282.672L488.894 282.762L486.424 327.001C486.321 328.764 485.545 330.42 484.257 331.63C482.968 332.839 481.266 333.508 479.498 333.501V333.501ZM465.526 285.651C462.147 285.657 458.899 286.954 456.447 289.276C453.995 291.598 452.524 294.769 452.336 298.14L450.891 323.931C450.776 325.36 451.174 326.783 452.012 327.946C452.851 329.11 454.076 329.937 455.468 330.281H455.498C455.961 330.398 456.436 330.459 456.913 330.462H479.498C480.5 330.46 481.463 330.076 482.191 329.389C482.918 328.701 483.356 327.761 483.413 326.762L485.702 285.683L465.586 285.592C465.556 285.651 465.556 285.651 465.526 285.651Z" fill="#F9D5FF"/>
<path d="M536.547 325.015H476.712C470.9 325.015 466.503 319.567 466.895 312.858L470.418 252.969C470.809 246.257 475.838 240.809 481.68 240.809H541.516C547.327 240.809 551.724 246.257 551.333 252.966L547.809 312.855C547.418 319.567 542.359 325.015 536.547 325.015Z" fill="white"/>
<path d="M536.547 326.519H476.712C475.244 326.52 473.793 326.215 472.451 325.624C471.108 325.034 469.903 324.17 468.912 323.089C466.443 320.47 465.148 316.708 465.389 312.766L468.912 252.877C469.364 245.384 475.085 239.305 481.68 239.305H541.516C542.983 239.305 544.434 239.609 545.777 240.2C547.119 240.791 548.324 241.654 549.315 242.736C551.784 245.354 553.079 249.116 552.838 253.058L549.315 312.947C548.863 320.44 543.142 326.519 536.547 326.519ZM481.68 242.314C476.651 242.314 472.255 247.129 471.924 253.057L468.4 312.947C468.22 316.077 469.214 319.026 471.111 321.042C471.824 321.817 472.69 322.436 473.653 322.86C474.617 323.285 475.658 323.506 476.712 323.51H536.547C541.576 323.51 545.972 318.695 546.304 312.766L549.827 252.877C550.008 249.746 549.013 246.798 547.117 244.782C546.403 244.007 545.538 243.388 544.574 242.963C543.61 242.539 542.569 242.318 541.516 242.314H481.68Z" fill="#F9D5FF"/>
<path d="M511.583 323.841L513.028 298.05C513.239 294.285 514.887 290.745 517.633 288.158C520.378 285.571 524.011 284.135 527.784 284.145L549.496 284.235L547.659 317.43C547.44 321.368 545.72 325.072 542.852 327.782C539.984 330.491 536.186 331.999 532.24 331.995H519.111C518.501 331.993 517.894 331.912 517.304 331.755C513.751 330.913 511.372 327.512 511.583 323.841Z" fill="white"/>
<path d="M532.241 333.501H519.111C518.38 333.5 517.652 333.409 516.943 333.23C514.872 332.708 513.051 331.476 511.796 329.749C510.542 328.022 509.933 325.91 510.077 323.781L511.522 297.989C511.756 293.852 513.564 289.96 516.576 287.112C519.588 284.264 523.577 282.675 527.724 282.672H527.784L551.092 282.762L549.165 317.551C548.915 321.867 547.022 325.923 543.876 328.889C540.729 331.854 536.566 333.505 532.241 333.501V333.501ZM527.725 285.651C524.346 285.657 521.098 286.953 518.646 289.276C516.193 291.598 514.722 294.769 514.534 298.14L513.088 323.931C512.908 326.911 514.895 329.649 517.666 330.281H517.696C518.158 330.398 518.634 330.459 519.111 330.462H532.241C535.804 330.466 539.233 329.105 541.821 326.658C544.41 324.212 545.961 320.866 546.154 317.31L547.901 285.711L527.785 285.621C527.756 285.651 527.756 285.651 527.724 285.651H527.725Z" fill="#F9D5FF"/>
<path d="M487.492 325.319H542.536C543.442 325.318 544.339 325.496 545.175 325.842C546.012 326.188 546.773 326.695 547.413 327.335C548.053 327.975 548.561 328.735 548.907 329.571C549.253 330.407 549.431 331.303 549.431 332.208V332.208C549.432 333.113 549.254 334.01 548.908 334.846C548.561 335.683 548.054 336.443 547.413 337.083C546.773 337.723 546.012 338.23 545.175 338.576C544.338 338.922 543.441 339.1 542.536 339.099H487.491L487.492 325.319Z" fill="white"/>
<path d="M542.536 323.395H487.491V327.244H542.536C543.192 327.238 543.843 327.362 544.451 327.609C545.059 327.856 545.612 328.221 546.078 328.682C546.544 329.144 546.915 329.694 547.167 330.299C547.42 330.904 547.55 331.554 547.55 332.21C547.55 332.866 547.42 333.515 547.167 334.121C546.915 334.726 546.544 335.275 546.078 335.737C545.612 336.199 545.059 336.564 544.451 336.811C543.843 337.057 543.192 337.181 542.536 337.176H487.491V341.025H542.536C543.699 341.033 544.852 340.811 545.93 340.371C547.007 339.932 547.986 339.284 548.812 338.464C549.637 337.645 550.292 336.671 550.739 335.597C551.186 334.524 551.416 333.372 551.416 332.21C551.416 331.047 551.186 329.896 550.739 328.822C550.292 327.749 549.637 326.775 548.812 325.955C547.986 325.136 547.007 324.488 545.93 324.048C544.852 323.609 543.699 323.387 542.536 323.395Z" fill="#F9D5FF"/>
<path d="M505.169 339.1H450.125C449.219 339.101 448.322 338.924 447.485 338.578C446.648 338.231 445.888 337.724 445.247 337.084C444.607 336.443 444.099 335.683 443.753 334.847C443.407 334.01 443.229 333.114 443.23 332.208V332.208C443.23 331.303 443.407 330.407 443.753 329.57C444.1 328.734 444.607 327.974 445.248 327.334C445.888 326.694 446.649 326.187 447.486 325.841C448.322 325.495 449.219 325.317 450.125 325.318H505.169L505.169 339.1Z" fill="white"/>
<path d="M441.304 332.208C441.31 334.544 442.242 336.783 443.894 338.435C445.547 340.087 447.787 341.018 450.125 341.024H505.169V337.174H450.125C448.815 337.162 447.563 336.634 446.641 335.704C445.718 334.774 445.201 333.518 445.201 332.209C445.201 330.899 445.718 329.643 446.641 328.713C447.563 327.783 448.815 327.255 450.125 327.243H505.169V323.393H450.125C448.966 323.39 447.817 323.615 446.745 324.057C445.674 324.499 444.7 325.148 443.88 325.967C443.06 326.787 442.411 327.76 441.969 328.831C441.527 329.902 441.301 331.05 441.304 332.208V332.208Z" fill="#F9D5FF"/>
<path d="M542.661 323.646H518.847C514.044 323.646 510.151 327.536 510.151 332.335C510.151 337.135 514.044 341.025 518.847 341.025H542.661C547.464 341.025 551.357 337.135 551.357 332.335C551.357 327.536 547.464 323.646 542.661 323.646Z" fill="#F9D5FF"/>
<path d="M315.68 268.235H460.495V305.404H315.68V268.235Z" fill="#F9D5FF"/>
<path d="M303.1 267.612H471.831V270.218H303.1V267.612Z" fill="#96B5C8"/>
<path d="M314.435 269.198H316.869V411.922H314.435V269.198Z" fill="#96B5C8"/>
<path d="M458.062 269.198H460.495V411.922H458.062V269.198Z" fill="#96B5C8"/>
<path d="M329.742 174.921H454.07V250.312H329.742V174.921Z" fill="#2B2B2B"/>
<path d="M388.788 185.139H444.495V187.814H388.788V185.139Z" fill="#5E41F4"/>
<path d="M339.317 185.139H376.727V187.814H339.317V185.139Z" fill="#FFA300"/>
<path d="M415.658 192.867H444.495V195.542H415.658V192.867Z" fill="#FF288C"/>
<path d="M339.317 192.867H403.597V195.542H339.317V192.867Z" fill="#3ACDFF"/>
<path d="M388.788 200.633H444.495V203.308H388.788V200.633Z" fill="#5E41F4"/>
<path d="M339.354 200.633H381.774V203.308H339.354V200.633Z" fill="#FF75C2"/>
<path d="M388.788 208.399H444.495V211.074H388.788V208.399Z" fill="#FFA300"/>
<path d="M339.317 208.399H376.727V211.074H339.317V208.399Z" fill="#FF288C"/>
<path d="M388.788 216.127H444.495V218.803H388.788V216.127Z" fill="#FF288C"/>
<path d="M339.317 216.127H376.727V218.803H339.317V216.127Z" fill="#5E41F4"/>
<path d="M424.046 223.856H444.495V226.531H424.046V223.856Z" fill="#3ACDFF"/>
<path d="M339.354 223.856H412.058V226.531H339.354V223.856Z" fill="#5E41F4"/>
<path d="M401.852 231.622H444.495V234.297H401.852V231.622Z" fill="#5E41F4"/>
<path d="M339.354 231.622H389.827V234.297H339.354V231.622Z" fill="#FFA300"/>
<path d="M388.788 239.388H444.495V242.063H388.788V239.388Z" fill="#3ACDFF"/>
<path d="M339.317 239.388H376.727V242.063H339.317V239.388Z" fill="#FF288C"/>
<path d="M357.532 266.31H365.084L380.737 245.094C380.822 244.978 380.934 244.884 381.062 244.819C381.19 244.754 381.332 244.72 381.476 244.72H402.335C402.479 244.72 402.621 244.754 402.75 244.819C402.878 244.884 402.99 244.978 403.075 245.094L418.728 266.31H426.28C426.524 266.31 426.758 266.407 426.931 266.579C427.103 266.752 427.2 266.986 427.2 267.23C427.2 267.475 427.103 267.709 426.931 267.881C426.758 268.054 426.524 268.151 426.28 268.151H418.388C418.351 268.159 418.314 268.164 418.276 268.167H365.536C365.498 268.164 365.46 268.159 365.423 268.151H357.532C357.288 268.151 357.054 268.054 356.881 267.881C356.709 267.709 356.612 267.475 356.612 267.23C356.612 266.986 356.709 266.752 356.881 266.579C357.054 266.407 357.288 266.31 357.532 266.31V266.31ZM401.872 246.562H381.941L367.371 266.31H416.442L401.872 246.562Z" fill="#2B2B2B"/>
<path d="M508.392 275.422L460.937 306.666L460.006 307.266C457.669 308.803 454.935 309.62 452.14 309.616C449.346 309.612 446.613 308.787 444.281 307.244C441.948 305.701 440.117 303.506 439.014 300.931C437.91 298.357 437.583 295.514 438.072 292.755L447.754 238.637C448.23 235.975 449.691 233.591 451.844 231.963C453.998 230.335 456.685 229.583 459.368 229.856C462.051 230.13 464.532 231.41 466.314 233.44C468.096 235.47 469.048 238.1 468.979 240.804L467.557 295.772L444.718 281.867L492.172 250.623C495.452 248.466 499.451 247.704 503.29 248.504C507.13 249.304 510.495 251.601 512.646 254.89C514.797 258.178 515.557 262.189 514.759 266.04C513.961 269.89 511.671 273.265 508.392 275.422V275.422Z" fill="url(#paint9_linear)"/>
<path d="M491.817 285.158L402.57 279.316C398.747 279.308 394.994 280.341 391.712 282.305L308.919 331.898L323.689 356.639L325.166 356.173L326.616 355.679L329.542 354.692C331.484 354.006 333.4 353.293 335.341 352.609C337.255 351.923 339.17 351.183 341.085 350.469C342.999 349.756 344.886 349.016 346.801 348.275C354.377 345.312 361.899 342.185 369.338 338.976C373.031 337.358 376.778 335.74 380.443 334.066L385.969 331.57L391.467 329.02C395.132 327.346 398.77 325.563 402.408 323.835L405.143 322.519L406.713 321.74L409.328 321.889L416.084 322.245C418.326 322.356 420.597 322.464 422.839 322.547L429.595 322.821C431.838 322.903 434.108 322.958 436.351 323.041C438.594 323.096 440.864 323.205 443.107 323.232L449.863 323.37C452.105 323.425 454.375 323.425 456.618 323.452C465.644 323.534 474.643 323.479 483.668 323.232L490.424 323.013C492.667 322.901 494.937 322.849 497.18 322.711L500.572 322.519L503.963 322.3L507.355 322.053L509.051 321.916L510.746 321.751L491.817 285.158Z" fill="url(#paint10_linear)"/>
<path d="M439.408 288.626C434.011 288.426 428.741 290.296 424.672 293.855C420.602 297.415 418.038 302.397 417.503 307.786L416.108 322.244C418.343 322.354 420.604 322.463 422.839 322.545L429.595 322.819C431.837 322.901 434.107 322.956 436.35 323.038C438.593 323.093 440.863 323.203 443.106 323.23L449.862 323.367C452.104 323.423 454.375 323.423 456.617 323.45C465.644 323.532 474.642 323.477 483.668 323.23L490.424 323.011C492.666 322.899 494.937 322.846 497.179 322.709L500.571 322.517L503.962 322.298L507.354 322.051L509.05 321.914L510.745 321.749L496.996 295.173L490.862 292.909L439.408 288.626Z" fill="#2B2B2B"/>
<path d="M490.723 291.247C491.422 289.302 491.791 287.253 491.817 285.185C491.899 281.701 483.583 276.215 484.022 265.655C484.378 257.536 493.349 245.741 507.462 246.235L518.811 247.003C531.201 247.442 540.801 258.523 541.129 267.162H541.184C541.184 267.409 541.157 267.656 541.157 267.875V268.095H541.129C540.091 282.468 530.107 281.59 533.635 291.876L490.723 291.247Z" fill="url(#paint11_linear)"/>
<path d="M533.692 291.878L491.872 285.185L440.561 290.946C435.227 291.793 430.416 294.649 427.108 298.929C423.799 303.21 422.243 308.595 422.755 313.987L432.52 413.775L461.102 410.949L461.293 409.358L461.457 407.767L461.813 404.585C462.004 402.446 462.223 400.333 462.387 398.221C462.743 393.97 463.044 389.745 463.317 385.521C463.864 377.073 464.22 368.652 464.467 360.231C464.578 356.035 464.713 351.81 464.74 347.614L464.822 341.305L464.85 334.996C464.858 333.706 464.857 332.416 464.854 331.125L465.397 331.074C466.901 330.937 468.433 330.745 469.964 330.58C471.496 330.415 473 330.251 474.532 330.059L479.1 329.483C480.632 329.291 482.136 329.072 483.667 328.851C486.922 328.357 499.722 326.053 510.937 324.023C516.423 323.015 521.521 320.498 525.665 316.755C529.808 313.011 532.834 308.187 534.404 302.82L533.692 291.878Z" fill="url(#paint12_linear)"/>
<path d="M500.925 236.855L511.291 237.211C512.565 237.26 513.836 237.055 515.031 236.609C516.226 236.163 517.321 235.485 518.254 234.613C519.187 233.741 519.939 232.693 520.466 231.529C520.994 230.365 521.287 229.108 521.329 227.83L521.876 212.168C521.949 210.122 521.619 208.081 520.906 206.163C520.192 204.244 519.108 202.486 517.716 200.988C516.324 199.49 514.651 198.282 512.793 197.433C510.935 196.584 508.928 196.11 506.888 196.04V196.04C504.847 195.966 502.812 196.297 500.899 197.013C498.986 197.728 497.233 198.816 495.739 200.212C494.245 201.608 493.041 203.285 492.194 205.149C491.347 207.012 490.875 209.025 490.805 211.071L490.313 225.444C490.26 226.893 490.493 228.337 490.998 229.695C491.504 231.054 492.271 232.298 493.257 233.358C494.243 234.418 495.428 235.273 496.744 235.873C498.059 236.473 499.48 236.806 500.925 236.855V236.855Z" fill="#FDC068"/>
<path d="M492.036 215.569C492.034 215.982 491.887 216.381 491.623 216.696C491.358 217.012 490.991 217.225 490.586 217.297L490.696 213.869C491.076 213.962 491.414 214.18 491.657 214.488C491.9 214.796 492.033 215.177 492.036 215.569Z" fill="#2B2B2B"/>
<path d="M503.004 252.764L496.958 248.32C496.958 248.32 501.854 246.153 505.546 246.237L503.004 252.764Z" fill="#2B2B2B"/>
<path d="M508.447 254.903L521.931 250.46L521.575 220.781L505.055 220.205L502.457 250.103C502.382 250.864 502.498 251.63 502.794 252.334C503.091 253.038 503.558 253.657 504.153 254.134C504.748 254.61 505.452 254.931 506.202 255.065C506.952 255.199 507.724 255.144 508.447 254.903V254.903Z" fill="#FDC068"/>
<path d="M489.684 219.3C486.648 219.3 484.296 217.654 484.296 215.569C484.296 213.485 486.675 211.839 489.684 211.839C492.719 211.839 495.072 213.485 495.072 215.569C495.072 217.654 492.718 219.3 489.684 219.3ZM489.684 212.828C487.304 212.828 485.28 214.09 485.28 215.571C485.28 217.052 487.304 218.314 489.684 218.314C492.063 218.314 494.087 217.052 494.087 215.571C494.087 214.09 492.063 212.826 489.684 212.826V212.828Z" fill="#2B2B2B"/>
<path d="M500.843 219.3C497.807 219.3 495.455 217.654 495.455 215.569C495.455 213.485 497.836 211.839 500.843 211.839C503.879 211.839 506.231 213.485 506.231 215.569C506.231 217.654 503.879 219.3 500.843 219.3ZM500.843 212.828C498.463 212.828 496.439 214.09 496.439 215.571C496.439 217.052 498.463 218.314 500.843 218.314C503.222 218.314 505.246 217.052 505.246 215.571C505.246 214.09 503.222 212.826 500.843 212.826V212.828Z" fill="#2B2B2B"/>
<path d="M495.154 215.377L492.854 217.928C492.744 218.047 492.659 218.188 492.605 218.342C492.551 218.496 492.53 218.66 492.543 218.822C492.556 218.985 492.603 219.143 492.68 219.287C492.757 219.43 492.863 219.556 492.991 219.656L494.387 220.56" fill="#FDC068"/>
<path d="M494.387 221.055C494.29 221.053 494.195 221.025 494.113 220.973L492.692 220.04C492.508 219.901 492.357 219.723 492.248 219.519C492.139 219.316 492.076 219.091 492.062 218.86C492.044 218.627 492.074 218.392 492.149 218.171C492.224 217.949 492.343 217.745 492.5 217.571L494.797 215.02C494.842 214.971 494.896 214.932 494.956 214.904C495.016 214.876 495.081 214.861 495.147 214.858C495.214 214.856 495.28 214.866 495.342 214.889C495.404 214.912 495.461 214.947 495.509 214.992C495.558 215.037 495.597 215.092 495.625 215.152C495.652 215.212 495.668 215.277 495.67 215.344C495.673 215.41 495.662 215.476 495.64 215.538C495.617 215.601 495.582 215.658 495.537 215.706L493.239 218.257C493.175 218.327 493.125 218.409 493.092 218.498C493.059 218.588 493.044 218.683 493.048 218.778C493.079 218.955 493.165 219.118 493.294 219.244L494.661 220.122C494.718 220.156 494.767 220.201 494.805 220.255C494.843 220.309 494.869 220.37 494.882 220.435C494.895 220.499 494.894 220.566 494.88 220.63C494.865 220.695 494.837 220.755 494.798 220.808C494.76 220.884 494.701 220.947 494.628 220.991C494.555 221.035 494.472 221.057 494.387 221.055V221.055Z" fill="#2B2B2B"/>
<path d="M494.716 228.022C494.542 228.018 494.368 227.999 494.197 227.967C493.75 227.857 493.331 227.656 492.964 227.378C492.597 227.1 492.291 226.75 492.063 226.349C492.033 226.29 492.014 226.225 492.008 226.158C492.003 226.091 492.011 226.024 492.031 225.961C492.051 225.897 492.084 225.838 492.127 225.787C492.17 225.736 492.223 225.694 492.282 225.663C492.399 225.603 492.535 225.589 492.662 225.625C492.789 225.66 492.897 225.743 492.966 225.855C493.12 226.131 493.328 226.372 493.577 226.565C493.826 226.758 494.111 226.899 494.416 226.98C495.072 227.117 495.838 226.815 496.659 226.13C496.76 226.044 496.892 226.003 497.024 226.014C497.156 226.025 497.278 226.088 497.365 226.189C497.451 226.29 497.494 226.421 497.485 226.553C497.476 226.686 497.415 226.81 497.315 226.898C496.412 227.638 495.537 228.022 494.716 228.022Z" fill="#2B2B2B"/>
<path d="M503.578 236.964L510.334 237.184L503.004 243.63L503.578 236.964Z" fill="#2B2B2B"/>
<path d="M500.378 217.736C501.345 217.736 502.128 216.95 502.128 215.981C502.128 215.011 501.345 214.225 500.378 214.225C499.411 214.225 498.627 215.011 498.627 215.981C498.627 216.95 499.411 217.736 500.378 217.736Z" fill="#2B2B2B"/>
<path d="M495.947 215.158H494.744C494.678 215.16 494.612 215.148 494.551 215.124C494.49 215.1 494.434 215.064 494.387 215.018C494.34 214.972 494.302 214.917 494.276 214.856C494.251 214.795 494.238 214.73 494.238 214.664C494.238 214.598 494.251 214.533 494.276 214.472C494.302 214.411 494.34 214.356 494.387 214.31C494.434 214.264 494.49 214.228 494.551 214.204C494.612 214.18 494.678 214.169 494.744 214.17H495.947C496.013 214.169 496.078 214.18 496.139 214.204C496.201 214.228 496.257 214.264 496.304 214.31C496.351 214.356 496.389 214.411 496.414 214.472C496.44 214.533 496.453 214.598 496.453 214.664C496.453 214.73 496.44 214.795 496.414 214.856C496.389 214.917 496.351 214.972 496.304 215.018C496.257 215.064 496.201 215.1 496.139 215.124C496.078 215.148 496.013 215.16 495.947 215.158V215.158Z" fill="#2B2B2B"/>
<path d="M513.424 214.721H505.547C505.419 214.717 505.297 214.664 505.208 214.572C505.118 214.479 505.068 214.356 505.068 214.227C505.068 214.098 505.118 213.975 505.208 213.883C505.297 213.79 505.419 213.737 505.547 213.733H513.424C513.49 213.732 513.556 213.743 513.617 213.767C513.678 213.791 513.734 213.827 513.781 213.873C513.828 213.919 513.866 213.974 513.892 214.035C513.917 214.096 513.93 214.161 513.93 214.227C513.93 214.293 513.917 214.358 513.892 214.419C513.866 214.48 513.828 214.535 513.781 214.581C513.734 214.627 513.678 214.663 513.617 214.687C513.556 214.711 513.49 214.723 513.424 214.721V214.721Z" fill="#2B2B2B"/>
<path d="M293.329 314.864L312.338 356.777C312.819 357.831 313.691 358.656 314.769 359.076C315.846 359.496 317.045 359.478 318.109 359.026L323.443 356.749L311.162 330.389L297.106 312.56C295.49 310.475 292.235 312.45 293.329 314.864Z" fill="#2B2B2B"/>
<path d="M411.405 418.026L457.327 417.943C458.481 417.944 459.589 417.49 460.412 416.68C461.236 415.87 461.709 414.768 461.731 413.611L461.868 407.796L432.848 408.152L410.858 413.637C408.287 414.242 408.75 418.026 411.405 418.026Z" fill="#2B2B2B"/>
<path d="M510.115 196.012H503.332C500.112 196.014 497.024 197.298 494.747 199.581C492.47 201.865 491.19 204.961 491.188 208.191V208.191L495.972 201.278L500.075 206.545C500.467 207.059 500.973 207.475 501.552 207.76C502.131 208.046 502.768 208.193 503.413 208.191V208.191C503.97 208.189 504.523 208.297 505.038 208.51C505.553 208.723 506.021 209.036 506.415 209.432C506.81 209.827 507.122 210.296 507.334 210.813C507.547 211.33 507.655 211.883 507.653 212.442V219.355H511.373V218.23C511.373 218.044 511.432 217.862 511.542 217.712C511.652 217.562 511.808 217.451 511.985 217.396C512.162 217.341 512.353 217.344 512.528 217.405C512.704 217.467 512.855 217.582 512.96 217.736L521.713 230.848L522.287 211.209V208.191C522.279 204.958 520.993 201.861 518.711 199.578C516.429 197.295 513.338 196.013 510.115 196.012V196.012Z" fill="#9F70A7"/>
<path d="M516.953 223.03C520.17 223.03 522.779 220.414 522.779 217.188C522.779 213.961 520.17 211.345 516.953 211.345C513.735 211.345 511.127 213.961 511.127 217.188C511.127 220.414 513.735 223.03 516.953 223.03Z" fill="#FDC068"/>
<path d="M472.562 283.456L498.19 291.164L514.135 257.726C515.826 254.169 518.857 251.431 522.56 250.114C526.264 248.798 530.338 249.011 533.885 250.706C537.432 252.402 540.163 255.441 541.476 259.155C542.788 262.87 542.576 266.955 540.885 270.513L519.551 315.358L519.032 316.455C517.483 319.71 514.708 322.215 511.317 323.419C507.926 324.623 504.198 324.427 500.952 322.874L500.733 322.762L464.246 304.494" fill="url(#paint13_linear)"/>
<path d="M464.22 304.496L457.573 301.177C455.178 299.976 453.318 297.917 452.362 295.408C451.406 292.899 451.422 290.122 452.408 287.625C453.394 285.127 455.277 283.091 457.687 281.919C460.097 280.746 462.857 280.522 465.423 281.29L472.562 283.43L464.22 304.496Z" fill="#FDC068"/>
<path d="M447.246 241.448L448.786 234.419C449.344 231.882 450.831 229.647 452.953 228.156C455.075 226.665 457.677 226.026 460.245 226.367C462.814 226.707 465.161 228.001 466.825 229.993C468.488 231.985 469.345 234.53 469.228 237.125L468.906 244.341L447.246 241.448Z" fill="#FDC068"/>
<path d="M484.788 285.679H484.733C484.668 285.672 484.605 285.653 484.548 285.621C484.491 285.59 484.441 285.547 484.4 285.496C484.36 285.445 484.33 285.387 484.312 285.324C484.294 285.261 484.288 285.196 484.296 285.131C484.569 282.278 484.268 280.33 481.861 277.642C481.773 277.544 481.726 277.414 481.732 277.282C481.738 277.149 481.796 277.024 481.893 276.934C481.99 276.844 482.119 276.796 482.251 276.8C482.383 276.804 482.508 276.86 482.6 276.957C485.253 279.892 485.608 282.141 485.307 285.214C485.287 285.339 485.225 285.455 485.13 285.539C485.036 285.624 484.915 285.674 484.788 285.679V285.679Z" fill="#2B2B2B"/>
<path d="M500.104 287.215C500.028 287.213 499.954 287.195 499.886 287.16C499.826 287.13 499.773 287.088 499.73 287.037C499.687 286.986 499.654 286.927 499.634 286.863C499.614 286.799 499.606 286.732 499.612 286.666C499.617 286.599 499.636 286.534 499.667 286.475L502.812 280.111C502.842 280.05 502.883 279.995 502.934 279.95C502.985 279.906 503.044 279.871 503.109 279.85C503.173 279.828 503.241 279.82 503.308 279.825C503.376 279.83 503.442 279.849 503.502 279.88C503.562 279.911 503.615 279.954 503.659 280.006C503.702 280.059 503.735 280.119 503.755 280.184C503.775 280.249 503.781 280.317 503.774 280.385C503.767 280.452 503.747 280.518 503.715 280.577L500.57 286.941C500.526 287.026 500.459 287.097 500.376 287.145C500.294 287.194 500.2 287.218 500.104 287.215Z" fill="#2B2B2B"/>
<path d="M187.728 350.809L187.203 355.256C187.118 355.984 187.314 356.718 187.752 357.306L190.43 360.894C191.538 362.379 190.968 364.508 189.265 365.239L185.151 367.008C184.477 367.298 183.941 367.834 183.65 368.509L181.882 372.623C181.15 374.324 179.021 374.895 177.537 373.788L173.948 371.11C173.361 370.671 172.627 370.474 171.899 370.561L167.452 371.086C165.612 371.303 164.053 369.744 164.27 367.905L164.796 363.458C164.881 362.73 164.685 361.996 164.247 361.409L161.57 357.818C160.462 356.334 161.033 354.205 162.735 353.474L166.849 351.705C167.523 351.414 168.06 350.878 168.35 350.204L170.119 346.09C170.85 344.389 172.979 343.818 174.463 344.925L178.052 347.603C178.64 348.041 179.373 348.239 180.102 348.152L184.549 347.627C186.387 347.41 187.945 348.97 187.728 350.809Z" fill="#F9D5FF"/>
<path d="M130.728 383.809L130.203 388.256C130.118 388.984 130.314 389.718 130.752 390.306L133.43 393.894C134.538 395.379 133.968 397.508 132.265 398.239L128.151 400.008C127.477 400.298 126.941 400.834 126.65 401.509L124.882 405.623C124.15 407.324 122.021 407.895 120.537 406.788L116.948 404.11C116.361 403.671 115.627 403.474 114.899 403.561L110.452 404.086C108.612 404.303 107.053 402.744 107.27 400.905L107.796 396.458C107.881 395.73 107.685 394.996 107.247 394.409L104.57 390.818C103.462 389.334 104.033 387.205 105.735 386.474L109.849 384.705C110.523 384.414 111.06 383.878 111.35 383.204L113.119 379.09C113.85 377.389 115.979 376.818 117.463 377.925L121.052 380.603C121.64 381.041 122.373 381.239 123.102 381.152L127.549 380.627C129.387 380.41 130.945 381.97 130.728 383.809Z" fill="#F9D5FF"/>
<g clip-path="url(#clip0)">
<path d="M377.9 116.787L380.617 125.598C381.321 127.881 383.108 129.668 385.391 130.372L394.202 133.089C394.776 133.266 394.776 134.079 394.202 134.256L385.391 136.973C383.108 137.677 381.321 139.464 380.617 141.747L377.9 150.559C377.723 151.133 376.91 151.133 376.733 150.559L374.016 141.748C373.312 139.465 371.525 137.678 369.242 136.974L360.431 134.256C359.857 134.079 359.857 133.266 360.431 133.089L369.242 130.372C371.525 129.668 373.312 127.881 374.016 125.598L376.733 116.787C376.91 116.212 377.723 116.212 377.9 116.787Z" fill="#DBECFD"/>
</g>
<g clip-path="url(#clip1)">
<path d="M438.899 90.7871L441.617 99.5981C442.321 101.881 444.108 103.668 446.391 104.372L455.201 107.089C455.775 107.266 455.775 108.079 455.201 108.256L446.391 110.973C444.108 111.677 442.321 113.464 441.617 115.747L438.899 124.559C438.722 125.133 437.91 125.133 437.733 124.559L435.016 115.748C434.312 113.465 432.524 111.678 430.241 110.974L421.431 108.256C420.856 108.079 420.856 107.266 421.431 107.089L430.241 104.372C432.524 103.668 434.312 101.881 435.016 99.5981L437.733 90.7871C437.91 90.2121 438.722 90.2121 438.899 90.7871Z" fill="#DBECFD"/>
</g>
<g clip-path="url(#clip2)">
<path d="M431.9 30.7868L434.617 39.5978C435.321 41.8808 437.108 43.6678 439.391 44.3718L448.202 47.0888C448.776 47.2658 448.776 48.0788 448.202 48.2558L439.391 50.9728C437.108 51.6768 435.321 53.4638 434.617 55.7468L431.9 64.5588C431.723 65.1328 430.91 65.1328 430.733 64.5588L428.016 55.7478C427.312 53.4648 425.525 51.6778 423.242 50.9738L414.431 48.2558C413.857 48.0788 413.857 47.2658 414.431 47.0888L423.242 44.3718C425.525 43.6678 427.312 41.8808 428.016 39.5978L430.733 30.7868C430.91 30.2118 431.723 30.2118 431.9 30.7868Z" fill="#DBECFD"/>
</g>
<path d="M26.7284 378.809L26.2033 383.256C26.1176 383.984 26.3138 384.718 26.7519 385.306L29.4301 388.894C30.5383 390.379 29.9676 392.508 28.2651 393.239L24.1511 395.008C23.4768 395.298 22.9406 395.834 22.6504 396.509L20.8815 400.623C20.1505 402.324 18.021 402.895 16.5368 401.788L12.9479 399.11C12.3606 398.671 11.6268 398.474 10.8986 398.561L6.45156 399.086C4.61223 399.303 3.05343 397.744 3.27039 395.905L3.79552 391.458C3.8812 390.73 3.68497 389.996 3.2469 389.409L0.570131 385.818C-0.538165 384.334 0.0325662 382.205 1.73509 381.474L5.84905 379.705C6.52342 379.414 7.05961 378.878 7.34981 378.204L9.11866 374.09C9.84969 372.389 11.9792 371.818 13.4634 372.925L17.0522 375.603C17.6395 376.041 18.3733 376.239 19.1016 376.152L23.5486 375.627C25.3866 375.41 26.9454 376.97 26.7284 378.809Z" fill="#F9D5FF"/>
<path d="M80.7284 347.809L80.2033 352.256C80.1176 352.984 80.3138 353.718 80.7519 354.306L83.4301 357.894C84.5383 359.379 83.9676 361.508 82.2651 362.239L78.1511 364.008C77.4768 364.298 76.9406 364.834 76.6504 365.509L74.8815 369.623C74.1505 371.324 72.021 371.895 70.5368 370.788L66.9479 368.11C66.3606 367.671 65.6268 367.474 64.8986 367.561L60.4516 368.086C58.6122 368.303 57.0534 366.744 57.2704 364.905L57.7955 360.458C57.8812 359.73 57.685 358.996 57.2469 358.409L54.5701 354.818C53.4618 353.334 54.0326 351.205 55.7351 350.474L59.849 348.705C60.5234 348.414 61.0596 347.878 61.3498 347.204L63.1187 343.09C63.8497 341.389 65.9792 340.818 67.4634 341.925L71.0522 344.603C71.6395 345.041 72.3733 345.239 73.1016 345.152L77.5486 344.627C79.3866 344.41 80.9454 345.97 80.7284 347.809Z" fill="#F9D5FF"/>
<path d="M371.899 0.43125L374.617 9.24225C375.321 11.5252 377.108 13.3122 379.391 14.0162L388.201 16.7332C388.775 16.9102 388.775 17.7232 388.201 17.9002L379.391 20.6173C377.108 21.3213 375.321 23.1083 374.617 25.3913L371.899 34.2033C371.722 34.7773 370.91 34.7773 370.733 34.2033L368.016 25.3923C367.312 23.1093 365.524 21.3222 363.241 20.6182L354.431 17.9002C353.856 17.7232 353.856 16.9102 354.431 16.7332L363.241 14.0162C365.524 13.3122 367.312 11.5252 368.016 9.24225L370.733 0.43125C370.91 -0.14375 371.722 -0.14375 371.899 0.43125Z" fill="#DBECFD"/>
<defs>
<linearGradient id="paint0_linear" x1="135.434" y1="42.7028" x2="100.749" y2="132.804" gradientUnits="userSpaceOnUse">
<stop stop-color="#9774AC"/>
<stop offset="0.401" stop-color="#9774AC"/>
<stop offset="0.501" stop-color="#A7A7AE"/>
<stop offset="0.591" stop-color="#E89AC0"/>
<stop offset="1" stop-color="#BFE7D1"/>
</linearGradient>
<linearGradient id="paint1_linear" x1="111.416" y1="123.006" x2="111.416" y2="63.8533" gradientUnits="userSpaceOnUse">
<stop stop-color="#F89D9A"/>
<stop offset="0.409" stop-color="#F5943B"/>
<stop offset="0.499" stop-color="#F05052"/>
<stop offset="0.599" stop-color="#ECE674"/>
<stop offset="1" stop-color="#E1EEC3"/>
</linearGradient>
<linearGradient id="paint2_linear" x1="138.242" y1="244.469" x2="138.242" y2="115.748" gradientUnits="userSpaceOnUse">
<stop stop-color="#FFE0C2"/>
<stop offset="0.401" stop-color="#CA7CD5"/>
<stop offset="0.591" stop-color="#B8C1FC"/>
<stop offset="1" stop-color="#D2D4D4"/>
</linearGradient>
<linearGradient id="paint3_linear" x1="-20118.1" y1="-30661.2" x2="-20118.1" y2="-37812.5" gradientUnits="userSpaceOnUse">
<stop stop-color="#F89D9A"/>
<stop offset="0.409" stop-color="#F5943B"/>
<stop offset="0.499" stop-color="#F05052"/>
<stop offset="0.599" stop-color="#ECE674"/>
<stop offset="1" stop-color="#E1EEC3"/>
</linearGradient>
<linearGradient id="paint4_linear" x1="-30177.2" y1="-36448.8" x2="-30177.2" y2="-73955.7" gradientUnits="userSpaceOnUse">
<stop stop-color="#FFE0C2"/>
<stop offset="0.401" stop-color="#CA7CD5"/>
<stop offset="0.591" stop-color="#B8C1FC"/>
<stop offset="1" stop-color="#D2D4D4"/>
</linearGradient>
<linearGradient id="paint5_linear" x1="-19532.1" y1="-7217.29" x2="-19532.1" y2="-14740" gradientUnits="userSpaceOnUse">
<stop stop-color="#FFE0C2"/>
<stop offset="0.401" stop-color="#CA7CD5"/>
<stop offset="0.591" stop-color="#B8C1FC"/>
<stop offset="1" stop-color="#D2D4D4"/>
</linearGradient>
<linearGradient id="paint6_linear" x1="-21288.3" y1="-56035.2" x2="-21288.3" y2="-67876.5" gradientUnits="userSpaceOnUse">
<stop stop-color="#F89D9A"/>
<stop offset="0.409" stop-color="#F5943B"/>
<stop offset="0.499" stop-color="#F05052"/>
<stop offset="0.599" stop-color="#ECE674"/>
<stop offset="1" stop-color="#E1EEC3"/>
</linearGradient>
<linearGradient id="paint7_linear" x1="-6324.82" y1="-10014.8" x2="-6324.82" y2="-7194.54" gradientUnits="userSpaceOnUse">
<stop stop-color="#9774AC"/>
<stop offset="0.401" stop-color="#9774AC"/>
<stop offset="0.501" stop-color="#A7A7AE"/>
<stop offset="0.591" stop-color="#E89AC0"/>
<stop offset="1" stop-color="#BFE7D1"/>
</linearGradient>
<linearGradient id="paint8_linear" x1="-10114.4" y1="-43774.7" x2="-10114.4" y2="-31786.1" gradientUnits="userSpaceOnUse">
<stop stop-color="#9774AC"/>
<stop offset="0.401" stop-color="#9774AC"/>
<stop offset="0.501" stop-color="#A7A7AE"/>
<stop offset="0.591" stop-color="#E89AC0"/>
<stop offset="1" stop-color="#BFE7D1"/>
</linearGradient>
<linearGradient id="paint9_linear" x1="476.471" y1="325.553" x2="476.471" y2="226.535" gradientUnits="userSpaceOnUse">
<stop stop-color="#F89D9A"/>
<stop offset="0.263" stop-color="#F5943B"/>
<stop offset="0.499" stop-color="#F05052"/>
<stop offset="0.758" stop-color="#ECE674"/>
<stop offset="1" stop-color="#E1EEC3"/>
</linearGradient>
<linearGradient id="paint10_linear" x1="409.832" y1="278.901" x2="409.832" y2="390.892" gradientUnits="userSpaceOnUse">
<stop stop-color="#9774AC"/>
<stop offset="0.401" stop-color="#47A6D3"/>
<stop offset="0.501" stop-color="#A7A7AE"/>
<stop offset="0.591" stop-color="#E89AC0"/>
<stop offset="1" stop-color="#BFE7D1"/>
</linearGradient>
<linearGradient id="paint11_linear" x1="34322.2" y1="-20012.2" x2="34322.2" y2="-32166.7" gradientUnits="userSpaceOnUse">
<stop stop-color="#F89D9A"/>
<stop offset="0.263" stop-color="#F5943B"/>
<stop offset="0.499" stop-color="#F05052"/>
<stop offset="0.758" stop-color="#ECE674"/>
<stop offset="1" stop-color="#E1EEC3"/>
</linearGradient>
<linearGradient id="paint12_linear" x1="56288.3" y1="31174.5" x2="56288.3" y2="72624.4" gradientUnits="userSpaceOnUse">
<stop stop-color="#9774AC"/>
<stop offset="0.401" stop-color="#47A6D3"/>
<stop offset="0.501" stop-color="#A7A7AE"/>
<stop offset="0.591" stop-color="#E89AC0"/>
<stop offset="1" stop-color="#BFE7D1"/>
</linearGradient>
<linearGradient id="paint13_linear" x1="44711.5" y1="-33002.3" x2="44711.5" y2="-52952.3" gradientUnits="userSpaceOnUse">
<stop stop-color="#F89D9A"/>
<stop offset="0.263" stop-color="#F5943B"/>
<stop offset="0.499" stop-color="#F05052"/>
<stop offset="0.758" stop-color="#ECE674"/>
<stop offset="1" stop-color="#E1EEC3"/>
</linearGradient>
<clipPath id="clip0">
<rect width="34.634" height="34.634" fill="white" transform="translate(360 116.356)"/>
</clipPath>
<clipPath id="clip1">
<rect width="34.634" height="34.634" fill="white" transform="translate(421 90.3558)"/>
</clipPath>
<clipPath id="clip2">
<rect width="34.634" height="34.634" fill="white" transform="translate(414 30.3558)"/>
</clipPath>
</defs>
</svg>
