<svg width="385" height="354" viewBox="0 0 385 354" fill="none" xmlns="http://www.w3.org/2000/svg">
<circle cx="191" cy="177" r="177" fill="#E5E5E5" fill-opacity="0.5"/>
<g opacity="0.3">
<g opacity="0.3">
<path opacity="0.3" d="M383.243 28.5042V352.458H1.7167V28.5042H383.243ZM384.491 27.2556H0.468964V353.707H384.491V27.2556Z" fill="#C4ECFE"/>
</g>
<g opacity="0.3">
<g opacity="0.3">
<g opacity="0.3">
<path opacity="0.3" d="M94.5323 27.2556H93.3651V353.707H94.5323V27.2556Z" fill="#C4ECFE"/>
</g>
<g opacity="0.3">
<path opacity="0.3" d="M143.395 27.2556H142.228V353.707H143.395V27.2556Z" fill="#C4ECFE"/>
</g>
<g opacity="0.3">
<path opacity="0.3" d="M94.5323 27.2556H93.3651V353.707H94.5323V27.2556Z" fill="#C4ECFE"/>
</g>
<g opacity="0.3">
<path opacity="0.3" d="M45.6693 27.2556H44.5021V353.707H45.6693V27.2556Z" fill="#C4ECFE"/>
</g>
<g opacity="0.3">
<path opacity="0.3" d="M192.258 27.2556H191.091V353.707H192.258V27.2556Z" fill="#C4ECFE"/>
</g>
<g opacity="0.3">
<path opacity="0.3" d="M241.122 27.2556H239.954V353.707H241.122V27.2556Z" fill="#C4ECFE"/>
</g>
<g opacity="0.3">
<path opacity="0.3" d="M289.381 27.2556H288.214V353.707H289.381V27.2556Z" fill="#C4ECFE"/>
</g>
<g opacity="0.3">
<path opacity="0.3" d="M337.64 27.2556H336.473V353.707H337.64V27.2556Z" fill="#C4ECFE"/>
</g>
</g>
</g>
</g>
<path d="M320.574 126.701V122.674C329.711 122.674 337.439 108.697 345.61 93.875C355.592 75.75 366.942 55.2084 384.531 55.2084V59.2362C369.317 59.2362 359.053 77.8445 349.111 95.8084C340.377 111.718 332.086 126.701 320.574 126.701Z" fill="#F9D5FF"/>
<path d="M45.1058 95.8889C38.1024 95.8889 32.9504 89.9681 27.5167 83.6847C20.795 75.9111 13.1878 67.0903 0.468964 67.0903V63.0625C15.0393 63.0625 23.6528 73.0111 30.5757 81.0264C35.6069 86.8264 39.9539 91.8611 45.1058 91.8611V95.8889V95.8889Z" fill="#F9D5FF"/>
<path d="M34.6007 129.279C35.5121 129.279 36.2509 128.54 36.2509 127.628C36.2509 126.716 35.5121 125.976 34.6007 125.976C33.6893 125.976 32.9504 126.716 32.9504 127.628C32.9504 128.54 33.6893 129.279 34.6007 129.279Z" fill="#BFD9FF"/>
<path d="M230.214 290.431C231.125 290.431 231.864 289.691 231.864 288.779C231.864 287.867 231.125 287.128 230.214 287.128C229.303 287.128 228.564 287.867 228.564 288.779C228.564 289.691 229.303 290.431 230.214 290.431Z" fill="#BFD9FF"/>
<path d="M365.936 167.463C366.847 167.463 367.586 166.723 367.586 165.811C367.586 164.899 366.847 164.16 365.936 164.16C365.024 164.16 364.285 164.899 364.285 165.811C364.285 166.723 365.024 167.463 365.936 167.463Z" fill="#BFD9FF"/>
<path d="M162.675 48.4417C163.586 48.4417 164.325 47.7023 164.325 46.7903C164.325 45.8783 163.586 45.1389 162.675 45.1389C161.764 45.1389 161.025 45.8783 161.025 46.7903C161.025 47.7023 161.764 48.4417 162.675 48.4417Z" fill="#BFD9FF"/>
<path d="M27.9595 62.6194C28.8709 62.6194 29.6097 61.8801 29.6097 60.968C29.6097 60.056 28.8709 59.3167 27.9595 59.3167C27.0481 59.3167 26.3092 60.056 26.3092 60.968C26.3092 61.8801 27.0481 62.6194 27.9595 62.6194Z" fill="#BFD9FF"/>
<path d="M175.957 262.357C176.802 262.357 177.487 261.672 177.487 260.826C177.487 259.981 176.802 259.296 175.957 259.296C175.113 259.296 174.428 259.981 174.428 260.826C174.428 261.672 175.113 262.357 175.957 262.357Z" fill="#BFD9FF"/>
<path d="M22.888 166.254C21.6805 166.254 20.6743 165.247 20.6743 164.039V102.656C20.6743 101.447 21.6805 100.44 22.888 100.44C24.0955 100.44 25.1018 101.447 25.1018 102.656V164.039C25.1018 165.247 24.0955 166.254 22.888 166.254Z" fill="url(#paint0_linear)"/>
<path d="M22.888 119.21C21.8415 119.21 20.8755 118.445 20.7145 117.357C20.1108 113.651 16.8103 111.074 13.0269 111.356C11.8194 111.436 10.7326 110.55 10.6521 109.301C10.5716 108.053 11.4571 107.006 12.7049 106.925C18.7423 106.482 24.0955 110.631 25.0615 116.632C25.2628 117.84 24.4578 118.968 23.2503 119.17C23.1295 119.21 23.0088 119.21 22.888 119.21Z" fill="#CAE6C4"/>
<path d="M22.888 119.21C22.7673 119.21 22.6465 119.21 22.5258 119.169C21.3183 118.968 20.5133 117.84 20.7146 116.632C21.7208 110.671 27.0338 106.482 33.0712 106.925C34.2787 107.006 35.2044 108.093 35.1239 109.301C35.0434 110.51 33.9567 111.436 32.7492 111.356C29.006 111.074 25.7055 113.651 25.0615 117.357C24.9005 118.444 23.9345 119.21 22.888 119.21Z" fill="#CAE6C4"/>
<path d="M22.888 130.326C21.8415 130.326 20.8755 129.561 20.7145 128.474C20.1108 124.768 16.8103 122.19 13.0269 122.472C11.8194 122.553 10.7326 121.667 10.6521 120.418C10.5716 119.21 11.4571 118.122 12.7049 118.042C18.7423 117.599 24.0955 121.747 25.0615 127.749C25.2628 128.957 24.4578 130.085 23.2503 130.286C23.1295 130.326 23.0088 130.326 22.888 130.326Z" fill="#CAE6C4"/>
<path d="M22.888 130.326C22.7673 130.326 22.6465 130.326 22.5258 130.286C21.3183 130.085 20.5133 128.957 20.7146 127.749C21.7208 121.788 27.0338 117.599 33.0712 118.042C34.2787 118.122 35.2044 119.21 35.1239 120.418C35.0434 121.626 33.9567 122.553 32.7492 122.472C29.006 122.19 25.7055 124.768 25.0615 128.474C24.9005 129.561 23.9345 130.326 22.888 130.326Z" fill="#CAE6C4"/>
<path d="M269.417 353.707C228.483 351.049 215.08 295.022 191.212 272.91C167.344 250.797 115.744 266.626 104.555 206.29C97.0681 165.972 63.4999 164.2 35.5264 149.337C20.2718 141.242 1.87772 152.278 1.87772 169.597V353.667L269.417 353.707Z" fill="url(#paint1_linear)"/>
<path d="M243.577 353.707C283.706 353.707 282.418 292.807 317.314 284.751C331.241 281.529 338.848 271.218 345.288 260.021C356.034 241.372 384.491 248.904 384.491 270.453V353.747L243.577 353.707Z" fill="url(#paint2_linear)"/>
<path d="M363.561 351.331H16.5286V352.982H363.561V351.331Z" fill="#2B2B2B"/>
<path d="M106.97 91.0958L130.033 146.84L127.779 143.014L160.703 191.065C164.245 196.221 162.917 203.31 157.765 206.854C153.055 210.076 146.817 209.271 143.073 205.243L103.267 162.71C102.421 161.824 101.818 160.817 101.375 159.769L101.013 158.883L77.9495 103.139C74.6088 95.1235 78.4325 85.8999 86.4422 82.5972C94.4519 79.2541 103.669 83.0805 106.97 91.0958Z" fill="#8670BD"/>
<path d="M300.208 100.642C293.728 95.6875 284.43 96.9361 279.479 103.421L256.537 133.428L227.396 130.286C222.486 129.763 217.696 132.703 216.086 137.576C214.235 143.215 217.294 149.257 222.888 151.11L260.16 163.435C265.151 165.086 270.826 163.515 274.166 159.125L275.052 157.997L302.985 121.425C307.936 114.94 306.688 105.636 300.208 100.642Z" fill="url(#paint3_linear)"/>
<path d="M271.752 141.644C273.804 128.997 282.82 129.924 279.922 120.096L260.804 133.992V154.533L263.339 165.851L274.529 161.179L271.752 141.644Z" fill="#2B2B2B"/>
<path d="M252.472 203.068C250.781 207.297 249.171 210.681 247.32 215.031C241.927 217.125 236.292 215.514 233.555 211.889C230.335 207.62 230.818 201.699 234.48 197.993L241.766 190.582L252.472 203.068Z" fill="#2B2B2B"/>
<path d="M135.345 162.186C134.903 167.825 130.395 172.175 124.921 172.618L116.307 173.142C113.651 165.126 112.282 157.836 112.282 151.271V148.975L124.921 149.982C131.16 150.425 135.828 155.903 135.345 162.186Z" fill="#2B2B2B"/>
<path d="M194.036 218.736C221.29 218.736 243.384 196.627 243.384 169.354C243.384 142.082 221.29 119.973 194.036 119.973C166.783 119.973 144.689 142.082 144.689 169.354C144.689 196.627 166.783 218.736 194.036 218.736Z" fill="#5BCF9C"/>
<path d="M194.029 187.601C192.862 187.601 191.735 187.078 190.971 186.192L175.515 168.268C174.066 166.576 174.267 164.039 175.917 162.589C177.608 161.139 180.143 161.34 181.592 162.992L193.667 177.008L208.761 155.46C210.049 153.647 212.544 153.204 214.356 154.493C216.167 155.782 216.61 158.279 215.322 160.092L197.249 185.87C196.525 186.876 195.398 187.521 194.15 187.561C194.15 187.601 194.11 187.601 194.029 187.601Z" fill="white"/>
<path d="M271.47 143.779C272.798 128.876 282.981 130.447 279.922 120.096C276.863 109.744 282.619 96.0902 294.05 97.0972C302.864 97.8625 303.509 97.5805 307.252 97.9027C316.308 98.7083 322.587 106.442 322.989 114.94C323.311 122.23 320.856 144.303 320.574 147.767L271.47 143.779Z" fill="url(#paint4_linear)"/>
<path d="M313.571 157.232L307.735 204.478L304.837 228.121C303.871 236.015 302.945 243.869 301.858 251.724L289.381 346.135L260.965 342.389C260.763 340.375 260.683 338.361 260.522 336.347C260.401 334.333 260.321 332.319 260.2 330.305L260.039 327.285C259.999 326.278 259.958 325.271 259.918 324.264L259.717 318.262C259.475 310.247 259.395 302.232 259.435 294.257C259.475 278.267 259.999 262.357 260.804 246.487C261.005 242.54 261.246 238.553 261.448 234.605L261.81 228.644L261.971 225.664L262.172 222.683L262.615 216.762C262.776 214.789 262.937 212.815 263.098 210.842C263.42 206.894 263.822 202.947 264.225 199C265.07 191.105 266.076 183.251 267.244 175.437C268.451 167.624 270.222 155.46 272.074 147.686L313.571 157.232Z" fill="url(#paint5_linear)"/>
<g opacity="0.3">
<g opacity="0.3">
<g opacity="0.3">
<g opacity="0.3">
<g opacity="0.3">
<path opacity="0.3" d="M270.021 327.083C269.216 327.083 268.411 326.56 268.129 325.754C267.727 324.707 268.29 323.539 269.337 323.176L272.074 322.169C273.12 321.767 274.287 322.33 274.65 323.378C275.052 324.425 274.489 325.593 273.442 325.955L270.705 326.962C270.504 327.043 270.262 327.083 270.021 327.083Z" fill="white"/>
</g>
<g opacity="0.3">
<path opacity="0.3" d="M280.727 342.993C280.445 342.993 280.164 342.953 279.882 342.792C278.876 342.308 278.433 341.14 278.916 340.133L280.164 337.435C280.647 336.428 281.814 335.985 282.82 336.468C283.826 336.951 284.269 338.119 283.786 339.126L282.538 341.825C282.216 342.55 281.492 342.993 280.727 342.993Z" fill="white"/>
</g>
<g opacity="0.3">
<path opacity="0.3" d="M264.708 340.899C263.903 340.899 263.098 340.375 262.816 339.569L261.81 336.83C261.407 335.783 261.971 334.615 263.017 334.253C264.064 333.85 265.231 334.414 265.593 335.461L266.6 338.2C267.002 339.247 266.439 340.415 265.392 340.778C265.191 340.858 264.949 340.899 264.708 340.899Z" fill="white"/>
</g>
</g>
</g>
<g opacity="0.3">
<g opacity="0.3">
<g opacity="0.3">
<path opacity="0.3" d="M292.118 325.271L291.635 328.976C291.474 329.017 291.313 329.057 291.152 329.057C290.87 329.057 290.588 328.976 290.307 328.855L287.61 327.607C286.604 327.124 286.161 325.955 286.644 324.949C287.127 323.942 288.294 323.499 289.3 323.982L291.997 325.23C292.037 325.23 292.078 325.271 292.118 325.271Z" fill="white"/>
</g>
</g>
</g>
</g>
<g opacity="0.3">
<g opacity="0.3">
<g opacity="0.3">
<g opacity="0.3">
<path opacity="0.3" d="M271.349 264.331C270.544 264.331 269.739 263.807 269.457 263.001C269.055 261.954 269.618 260.786 270.665 260.424L273.402 259.417C274.448 259.014 275.616 259.578 275.978 260.625C276.38 261.672 275.817 262.84 274.77 263.203L272.033 264.21C271.832 264.29 271.591 264.331 271.349 264.331Z" fill="white"/>
</g>
<g opacity="0.3">
<path opacity="0.3" d="M282.055 280.24C281.774 280.24 281.492 280.2 281.21 280.039C280.204 279.555 279.761 278.387 280.244 277.38L281.492 274.682C281.975 273.675 283.142 273.232 284.148 273.715C285.155 274.198 285.597 275.367 285.114 276.373L283.867 279.072C283.545 279.797 282.82 280.24 282.055 280.24Z" fill="white"/>
</g>
<g opacity="0.3">
<path opacity="0.3" d="M266.036 278.146C265.231 278.146 264.426 277.622 264.144 276.817L263.138 274.078C262.736 273.031 263.299 271.863 264.346 271.5C265.392 271.097 266.559 271.661 266.922 272.708L267.928 275.447C268.33 276.494 267.767 277.663 266.72 278.025C266.519 278.106 266.278 278.146 266.036 278.146Z" fill="white"/>
</g>
</g>
<g opacity="0.3">
<g opacity="0.3">
<path opacity="0.3" d="M270.142 294.499C269.337 294.499 268.532 293.975 268.25 293.169C267.888 292.122 268.411 290.954 269.457 290.592L272.235 289.585C273.281 289.222 274.448 289.746 274.811 290.793C275.173 291.84 274.65 293.008 273.603 293.371L270.826 294.378C270.584 294.458 270.383 294.499 270.142 294.499Z" fill="white"/>
</g>
<g opacity="0.3">
<path opacity="0.3" d="M280.848 310.368C280.566 310.368 280.285 310.287 280.003 310.167C278.997 309.683 278.554 308.475 279.037 307.468L280.285 304.81C280.768 303.803 281.975 303.36 282.981 303.843C283.987 304.326 284.43 305.535 283.947 306.542L282.699 309.2C282.337 309.925 281.613 310.368 280.848 310.368Z" fill="white"/>
</g>
<g opacity="0.3">
<path opacity="0.3" d="M264.869 308.314C264.064 308.314 263.259 307.79 262.977 306.985L261.971 304.206C261.609 303.158 262.132 301.99 263.178 301.628C264.225 301.265 265.392 301.789 265.754 302.836L266.761 305.615C267.123 306.662 266.6 307.831 265.553 308.193C265.312 308.274 265.11 308.314 264.869 308.314Z" fill="white"/>
</g>
</g>
</g>
<g opacity="0.3">
<g opacity="0.3">
<g opacity="0.3">
<path opacity="0.3" d="M292.48 266.304C292.198 266.304 291.917 266.224 291.635 266.103L288.978 264.854C287.972 264.371 287.529 263.162 288.012 262.155C288.495 261.149 289.703 260.705 290.709 261.189L293.366 262.437C294.372 262.921 294.815 264.129 294.332 265.136C293.969 265.861 293.245 266.304 292.48 266.304Z" fill="white"/>
</g>
<g opacity="0.3">
<path opacity="0.3" d="M297.874 252.69C297.592 252.69 297.31 252.61 297.028 252.489C296.022 252.005 295.579 250.797 296.062 249.79L297.31 247.132C297.793 246.125 299.001 245.682 300.007 246.165C301.013 246.649 301.456 247.857 300.973 248.864L299.725 251.522C299.363 252.247 298.638 252.69 297.874 252.69Z" fill="white"/>
</g>
</g>
<g opacity="0.3">
<g opacity="0.3">
<path opacity="0.3" d="M291.273 296.472C290.991 296.472 290.709 296.392 290.427 296.271L287.771 295.022C286.765 294.539 286.322 293.331 286.805 292.324C287.288 291.317 288.495 290.874 289.502 291.357L292.158 292.606C293.164 293.089 293.607 294.297 293.124 295.304C292.762 296.029 292.037 296.472 291.273 296.472Z" fill="white"/>
</g>
<g opacity="0.3">
<path opacity="0.3" d="M298.598 276.293L297.793 282.496C297.471 282.737 297.069 282.858 296.666 282.858C296.384 282.858 296.103 282.778 295.821 282.657C294.815 282.174 294.372 280.965 294.855 279.958L296.103 277.3C296.545 276.374 297.632 275.931 298.598 276.293Z" fill="white"/>
</g>
</g>
</g>
</g>
<g opacity="0.3">
<g opacity="0.3">
<g opacity="0.3">
<g opacity="0.3">
<path opacity="0.3" d="M272.677 201.578C271.872 201.578 271.067 201.054 270.786 200.249C270.423 199.201 270.947 198.033 271.993 197.671L274.77 196.664C275.817 196.301 276.984 196.825 277.346 197.872C277.708 198.919 277.185 200.087 276.139 200.45L273.362 201.457C273.12 201.537 272.919 201.578 272.677 201.578Z" fill="white"/>
</g>
<g opacity="0.3">
<path opacity="0.3" d="M283.384 217.487C283.102 217.487 282.82 217.447 282.538 217.286C281.532 216.803 281.089 215.635 281.572 214.628L282.82 211.929C283.303 210.922 284.47 210.479 285.477 210.962C286.483 211.446 286.926 212.614 286.443 213.621L285.195 216.319C284.873 217.044 284.148 217.487 283.384 217.487Z" fill="white"/>
</g>
<g opacity="0.3">
<path opacity="0.3" d="M267.364 215.393C266.559 215.393 265.754 214.869 265.473 214.064L264.466 211.325C264.064 210.278 264.627 209.11 265.674 208.747C266.72 208.344 267.888 208.908 268.25 209.956L269.256 212.694C269.659 213.742 269.095 214.91 268.049 215.272C267.847 215.353 267.606 215.393 267.364 215.393Z" fill="white"/>
</g>
</g>
<g opacity="0.3">
<g opacity="0.3">
<path opacity="0.3" d="M271.47 231.746C270.665 231.746 269.86 231.222 269.578 230.417C269.216 229.369 269.739 228.201 270.786 227.839L273.563 226.832C274.609 226.469 275.776 226.993 276.139 228.04C276.501 229.087 275.978 230.256 274.931 230.618L272.154 231.625C271.913 231.706 271.711 231.746 271.47 231.746Z" fill="white"/>
</g>
<g opacity="0.3">
<path opacity="0.3" d="M282.176 247.615C281.894 247.615 281.613 247.535 281.331 247.414C280.325 246.931 279.882 245.722 280.365 244.715L281.613 242.057C282.096 241.05 283.303 240.607 284.309 241.09C285.316 241.574 285.758 242.782 285.275 243.789L284.028 246.447C283.665 247.172 282.941 247.615 282.176 247.615Z" fill="white"/>
</g>
<g opacity="0.3">
<path opacity="0.3" d="M266.197 245.561C265.392 245.561 264.587 245.037 264.305 244.232L263.299 241.453C262.937 240.405 263.46 239.237 264.507 238.875C265.553 238.512 266.72 239.036 267.083 240.083L268.089 242.862C268.451 243.91 267.928 245.078 266.881 245.44C266.64 245.521 266.439 245.561 266.197 245.561Z" fill="white"/>
</g>
</g>
</g>
<g opacity="0.3">
<g opacity="0.3">
<g opacity="0.3">
<path opacity="0.3" d="M293.808 203.551C293.527 203.551 293.245 203.471 292.963 203.35L290.307 202.101C289.3 201.618 288.858 200.41 289.341 199.403C289.824 198.396 291.031 197.953 292.037 198.436L294.694 199.685C295.7 200.168 296.143 201.376 295.66 202.383C295.298 203.108 294.573 203.551 293.808 203.551Z" fill="white"/>
</g>
<g opacity="0.3">
<path opacity="0.3" d="M299.202 189.937C298.92 189.937 298.638 189.857 298.357 189.736C297.35 189.253 296.908 188.044 297.391 187.037L298.638 184.379C299.121 183.372 300.329 182.929 301.335 183.412C302.341 183.896 302.784 185.104 302.301 186.111L301.053 188.769C300.691 189.494 299.967 189.937 299.202 189.937Z" fill="white"/>
</g>
<g opacity="0.3">
<path opacity="0.3" d="M307.896 203.028L307.735 204.478L307.413 207.217L306.809 205.565C306.447 204.558 306.93 203.43 307.896 203.028Z" fill="white"/>
</g>
</g>
<g opacity="0.3">
<g opacity="0.3">
<path opacity="0.3" d="M292.601 233.719C292.319 233.719 292.037 233.639 291.756 233.518L289.099 232.269C288.093 231.786 287.65 230.578 288.133 229.571C288.616 228.564 289.824 228.121 290.83 228.604L293.486 229.853C294.493 230.336 294.935 231.544 294.452 232.551C294.09 233.276 293.366 233.719 292.601 233.719Z" fill="white"/>
</g>
<g opacity="0.3">
<path opacity="0.3" d="M297.994 220.105C297.713 220.105 297.431 220.025 297.149 219.904C296.143 219.421 295.7 218.212 296.183 217.205L297.431 214.547C297.914 213.54 299.121 213.097 300.128 213.581C301.134 214.064 301.577 215.272 301.094 216.279L299.846 218.937C299.484 219.662 298.759 220.105 297.994 220.105Z" fill="white"/>
</g>
</g>
</g>
</g>
<g opacity="0.3">
<g opacity="0.3">
<g opacity="0.3">
<g opacity="0.3">
<path opacity="0.3" d="M287.61 151.271L286.523 153.567C286.201 154.292 285.436 154.735 284.712 154.735C284.43 154.735 284.148 154.694 283.867 154.533C282.86 154.05 282.418 152.882 282.901 151.875L283.625 150.344L287.61 151.271Z" fill="white"/>
</g>
</g>
<g opacity="0.3">
<g opacity="0.3">
<path opacity="0.3" d="M272.798 168.993C271.993 168.993 271.188 168.469 270.906 167.664C270.544 166.617 271.067 165.449 272.114 165.086L274.891 164.079C275.937 163.717 277.105 164.24 277.467 165.287C277.829 166.335 277.306 167.503 276.259 167.865L273.482 168.872C273.241 168.953 273.039 168.993 272.798 168.993Z" fill="white"/>
</g>
<g opacity="0.3">
<path opacity="0.3" d="M283.504 184.862C283.223 184.862 282.941 184.782 282.659 184.661C281.653 184.178 281.21 182.969 281.693 181.962L282.941 179.304C283.424 178.297 284.631 177.854 285.638 178.337C286.644 178.821 287.087 180.029 286.604 181.036L285.356 183.694C284.994 184.419 284.269 184.862 283.504 184.862Z" fill="white"/>
</g>
<g opacity="0.3">
<path opacity="0.3" d="M268.21 182.687C267.968 182.768 267.767 182.808 267.525 182.808C267.042 182.808 266.6 182.647 266.237 182.365C266.519 180.271 266.801 178.176 267.123 176.122C267.686 176.324 268.169 176.726 268.371 177.331L269.377 180.11C269.779 181.157 269.256 182.325 268.21 182.687Z" fill="white"/>
</g>
</g>
</g>
<g opacity="0.3">
<g opacity="0.3">
<g opacity="0.3">
<path opacity="0.3" d="M293.929 170.967C293.647 170.967 293.366 170.886 293.084 170.765L290.427 169.517C289.421 169.033 288.978 167.825 289.461 166.818C289.944 165.811 291.152 165.368 292.158 165.851L294.815 167.1C295.821 167.583 296.264 168.792 295.781 169.798C295.418 170.523 294.694 170.967 293.929 170.967Z" fill="white"/>
</g>
<g opacity="0.3">
<path opacity="0.3" d="M301.939 154.573L301.214 156.185C300.892 156.91 300.168 157.353 299.403 157.353C299.121 157.353 298.84 157.312 298.558 157.192C297.552 156.748 297.109 155.54 297.552 154.533L297.954 153.647L301.939 154.573Z" fill="white"/>
</g>
<g opacity="0.3">
<path opacity="0.3" d="M311.518 173.826L311.196 176.525C310.995 176.686 310.794 176.847 310.552 176.928C310.311 177.008 310.069 177.048 309.868 177.048C309.063 177.048 308.258 176.565 307.976 175.719L306.97 172.98C306.567 171.933 307.131 170.765 308.177 170.403C309.224 170 310.391 170.564 310.753 171.611L311.518 173.826Z" fill="white"/>
</g>
</g>
</g>
</g>
</g>
<path d="M289.622 186.111C291.595 198.879 295.016 219.34 288.093 229.974C281.17 240.607 292.842 264.774 288.817 276.857C284.792 288.94 294.291 309.119 293.044 318.585L303.951 235.492L289.622 186.111Z" fill="#2B2B2B"/>
<path d="M338.566 242.782C337.922 238.956 337.358 235.129 336.795 231.303L335.024 219.824C335.024 219.824 319.81 155.54 320.534 147.767L271.55 142.812C271.027 148.975 275.616 156.95 282.941 161.26L283.062 163.233L283.545 169.033C283.706 170.967 283.907 172.9 284.108 174.833C284.35 176.767 284.511 178.7 284.792 180.593C285.718 188.286 286.845 195.979 288.133 203.592L288.616 206.451L289.139 209.311L290.146 215.031C290.87 218.857 291.554 222.643 292.359 226.469L293.527 232.189L294.774 237.868C295.579 241.654 296.425 245.44 297.391 249.226C301.134 264.331 305.239 279.354 309.747 294.338C312.041 301.829 314.416 309.281 316.952 316.732L318.884 322.29L319.85 325.069L320.896 327.849C321.581 329.701 322.265 331.554 322.949 333.407C323.674 335.26 324.358 337.113 325.163 338.925L350.158 325.794L338.566 242.782Z" fill="url(#paint6_linear)"/>
<g opacity="0.3">
<g opacity="0.3">
<g opacity="0.3">
<g opacity="0.3">
<g opacity="0.3">
<path opacity="0.3" d="M326.974 320.599C326.692 320.599 326.411 320.558 326.129 320.397L323.432 319.149C322.426 318.665 321.983 317.497 322.466 316.49C322.949 315.483 324.116 315.04 325.123 315.524L327.819 316.772C328.825 317.256 329.268 318.424 328.785 319.431C328.463 320.156 327.739 320.599 326.974 320.599Z" fill="white"/>
</g>
<g opacity="0.3">
<path opacity="0.3" d="M348.347 312.865C348.266 312.865 348.226 312.865 348.145 312.865C347.34 312.865 346.535 312.342 346.254 311.536C345.891 310.489 346.415 309.321 347.461 308.958L347.783 308.838L348.347 312.865Z" fill="white"/>
</g>
<g opacity="0.3">
<path opacity="0.3" d="M332.368 306.985C332.086 306.985 331.804 306.904 331.522 306.783C330.516 306.3 330.073 305.092 330.556 304.085L331.804 301.426C332.287 300.419 333.494 299.976 334.501 300.46C335.507 300.943 335.95 302.151 335.467 303.158L334.219 305.817C333.857 306.542 333.132 306.985 332.368 306.985Z" fill="white"/>
</g>
<g opacity="0.3">
<path opacity="0.3" d="M342.873 326.721C342.068 326.721 341.263 326.197 340.981 325.392L339.975 322.613C339.612 321.565 340.136 320.397 341.182 320.035C342.229 319.672 343.396 320.196 343.758 321.243L344.764 324.022C345.127 325.069 344.603 326.238 343.557 326.6C343.315 326.681 343.114 326.721 342.873 326.721Z" fill="white"/>
</g>
</g>
<g opacity="0.3">
<g opacity="0.3">
<path opacity="0.3" d="M334.219 333.326L333.696 334.414L329.671 336.508C329.107 335.944 328.946 335.018 329.309 334.253L330.556 331.594C331.039 330.587 332.247 330.144 333.253 330.628C334.259 331.111 334.702 332.319 334.219 333.326Z" fill="white"/>
</g>
</g>
</g>
</g>
<g opacity="0.3">
<g opacity="0.3">
<g opacity="0.3">
<g opacity="0.3">
<path opacity="0.3" d="M307.171 255.872C306.366 255.872 305.561 255.349 305.279 254.543C304.877 253.496 305.44 252.328 306.487 251.965L309.224 250.958C310.27 250.555 311.438 251.119 311.8 252.167C312.202 253.214 311.639 254.382 310.592 254.744L307.855 255.751C307.654 255.832 307.413 255.872 307.171 255.872Z" fill="white"/>
</g>
<g opacity="0.3">
<path opacity="0.3" d="M317.878 271.782C317.596 271.782 317.314 271.742 317.032 271.58C316.026 271.097 315.583 269.929 316.066 268.922L317.314 266.224C317.797 265.217 318.964 264.774 319.971 265.257C320.977 265.74 321.42 266.908 320.937 267.915L319.689 270.614C319.367 271.339 318.642 271.782 317.878 271.782Z" fill="white"/>
</g>
<g opacity="0.3">
<path opacity="0.3" d="M302.663 269.526C302.059 267.311 301.496 265.136 300.892 262.921C301.697 262.921 302.462 263.444 302.744 264.25L303.75 266.989C304.112 267.996 303.629 269.083 302.663 269.526Z" fill="white"/>
</g>
</g>
<g opacity="0.3">
<g opacity="0.3">
<path opacity="0.3" d="M309.425 284.912L307.211 285.718C306.849 284.429 306.447 283.14 306.085 281.851L308.057 281.126C309.103 280.764 310.27 281.287 310.633 282.335C310.995 283.382 310.472 284.55 309.425 284.912Z" fill="white"/>
</g>
<g opacity="0.3">
<path opacity="0.3" d="M316.67 301.91C316.388 301.91 316.107 301.829 315.825 301.708C314.819 301.225 314.376 300.017 314.859 299.01L316.107 296.351C316.59 295.344 317.797 294.901 318.803 295.385C319.81 295.868 320.252 297.076 319.769 298.083L318.522 300.742C318.159 301.467 317.435 301.91 316.67 301.91Z" fill="white"/>
</g>
</g>
</g>
<g opacity="0.3">
<g opacity="0.3">
<g opacity="0.3">
<path opacity="0.3" d="M328.302 257.846C328.021 257.846 327.739 257.765 327.457 257.645L324.801 256.396C323.794 255.913 323.352 254.704 323.835 253.697C324.318 252.69 325.525 252.247 326.531 252.731L329.188 253.979C330.194 254.463 330.637 255.671 330.154 256.678C329.792 257.403 329.067 257.846 328.302 257.846Z" fill="white"/>
</g>
<g opacity="0.3">
<path opacity="0.3" d="M333.696 244.232C333.414 244.232 333.132 244.151 332.851 244.031C331.844 243.547 331.402 242.339 331.885 241.332L333.132 238.674C333.615 237.667 334.823 237.224 335.829 237.707C336.835 238.19 337.278 239.399 336.795 240.406L335.547 243.064C335.185 243.789 334.461 244.232 333.696 244.232Z" fill="white"/>
</g>
</g>
<g opacity="0.3">
<g opacity="0.3">
<path opacity="0.3" d="M327.095 288.014C326.813 288.014 326.531 287.933 326.25 287.813L323.593 286.564C322.587 286.081 322.144 284.872 322.627 283.865C323.11 282.858 324.318 282.415 325.324 282.899L327.98 284.147C328.987 284.631 329.429 285.839 328.946 286.846C328.584 287.571 327.86 288.014 327.095 288.014Z" fill="white"/>
</g>
<g opacity="0.3">
<path opacity="0.3" d="M332.488 274.4C332.207 274.4 331.925 274.319 331.643 274.199C330.637 273.715 330.194 272.507 330.677 271.5L331.925 268.842C332.408 267.835 333.615 267.392 334.622 267.875C335.628 268.358 336.07 269.567 335.587 270.574L334.34 273.232C333.978 273.957 333.253 274.4 332.488 274.4Z" fill="white"/>
</g>
<g opacity="0.3">
<path opacity="0.3" d="M342.993 294.096C342.188 294.096 341.383 293.572 341.102 292.767L340.095 290.028C339.693 288.981 340.256 287.813 341.303 287.45C342.349 287.047 343.517 287.611 343.879 288.658L344.885 291.397C345.288 292.445 344.724 293.613 343.678 293.975C343.476 294.056 343.235 294.096 342.993 294.096Z" fill="white"/>
</g>
</g>
</g>
</g>
<g opacity="0.3">
<g opacity="0.3">
<g opacity="0.3">
<g opacity="0.3">
<path opacity="0.3" d="M289.139 199.685C288.858 200.289 288.294 200.692 287.65 200.813C287.409 199.363 287.167 197.913 286.966 196.463L288.173 197.026C289.18 197.469 289.622 198.678 289.139 199.685Z" fill="white"/>
</g>
<g opacity="0.3">
<path opacity="0.3" d="M308.499 193.119C307.695 193.119 306.89 192.596 306.608 191.79C306.246 190.743 306.769 189.575 307.815 189.213L310.592 188.206C311.639 187.843 312.806 188.367 313.168 189.414C313.531 190.461 313.007 191.629 311.961 191.992L309.184 192.999C308.942 193.079 308.741 193.119 308.499 193.119Z" fill="white"/>
</g>
<g opacity="0.3">
<path opacity="0.3" d="M292.722 187.239C292.44 187.239 292.158 187.158 291.876 187.038C290.87 186.554 290.427 185.346 290.91 184.339L292.158 181.681C292.641 180.674 293.849 180.231 294.855 180.714C295.861 181.197 296.304 182.406 295.821 183.413L294.573 186.071C294.211 186.796 293.486 187.239 292.722 187.239Z" fill="white"/>
</g>
<g opacity="0.3">
<path opacity="0.3" d="M319.206 209.029C318.924 209.029 318.642 208.989 318.361 208.828C317.354 208.344 316.912 207.176 317.395 206.169L318.642 203.471C319.125 202.464 320.293 202.021 321.299 202.504C322.305 202.988 322.748 204.156 322.265 205.163L321.017 207.861C320.695 208.586 319.971 209.029 319.206 209.029Z" fill="white"/>
</g>
<g opacity="0.3">
<path opacity="0.3" d="M303.187 206.935C302.382 206.935 301.577 206.411 301.295 205.606L300.289 202.867C299.886 201.819 300.45 200.651 301.496 200.289C302.543 199.886 303.71 200.45 304.072 201.497L305.078 204.236C305.481 205.283 304.917 206.451 303.871 206.814C303.67 206.894 303.428 206.935 303.187 206.935Z" fill="white"/>
</g>
</g>
<g opacity="0.3">
<g opacity="0.3">
<path opacity="0.3" d="M307.292 223.288C306.487 223.288 305.682 222.764 305.4 221.958C305.038 220.911 305.561 219.743 306.608 219.381L309.385 218.374C310.431 218.011 311.599 218.535 311.961 219.582C312.323 220.629 311.8 221.797 310.753 222.16L307.976 223.167C307.735 223.247 307.533 223.288 307.292 223.288Z" fill="white"/>
</g>
<g opacity="0.3">
<path opacity="0.3" d="M294.573 213.581L293.325 216.239C292.963 216.964 292.239 217.407 291.514 217.407C291.232 217.407 290.951 217.326 290.669 217.206C290.629 217.206 290.588 217.165 290.548 217.165C290.427 216.44 290.266 215.756 290.146 215.031L289.944 213.983L290.951 211.889C291.434 210.882 292.641 210.439 293.647 210.922C294.613 211.406 295.056 212.574 294.573 213.581Z" fill="white"/>
</g>
<g opacity="0.3">
<path opacity="0.3" d="M317.998 239.157C317.717 239.157 317.435 239.076 317.153 238.956C316.147 238.472 315.704 237.264 316.187 236.257L317.435 233.599C317.918 232.592 319.125 232.149 320.132 232.632C321.138 233.115 321.58 234.324 321.098 235.331L319.85 237.989C319.488 238.714 318.763 239.157 317.998 239.157Z" fill="white"/>
</g>
<g opacity="0.3">
<path opacity="0.3" d="M302.019 237.103C301.214 237.103 300.409 236.579 300.128 235.774L299.121 232.995C298.759 231.947 299.282 230.779 300.329 230.417C301.375 230.054 302.543 230.578 302.905 231.625L303.911 234.404C304.273 235.452 303.75 236.62 302.704 236.982C302.462 237.063 302.261 237.103 302.019 237.103Z" fill="white"/>
</g>
</g>
</g>
<g opacity="0.3">
<g opacity="0.3">
<g opacity="0.3">
<path opacity="0.3" d="M329.349 195.053C329.148 195.053 328.946 194.972 328.785 194.892L326.129 193.643C325.123 193.16 324.68 191.951 325.163 190.945C325.646 189.938 326.853 189.495 327.86 189.978L328.302 190.179C328.624 191.871 328.987 193.482 329.349 195.053Z" fill="white"/>
</g>
</g>
<g opacity="0.3">
<g opacity="0.3">
<path opacity="0.3" d="M328.423 225.261C328.141 225.261 327.86 225.181 327.578 225.06L324.921 223.811C323.915 223.328 323.472 222.119 323.955 221.112C324.438 220.106 325.646 219.662 326.652 220.146L329.309 221.394C330.315 221.878 330.757 223.086 330.274 224.093C329.912 224.818 329.188 225.261 328.423 225.261Z" fill="white"/>
</g>
<g opacity="0.3">
<path opacity="0.3" d="M333.092 211.486C333.052 211.486 333.011 211.446 332.971 211.446C331.965 210.963 331.522 209.754 332.005 208.747L332.327 208.103C332.569 209.311 332.85 210.439 333.092 211.486Z" fill="white"/>
</g>
</g>
</g>
</g>
<g opacity="0.3">
<g opacity="0.3">
<g opacity="0.3">
<g opacity="0.3">
<path opacity="0.3" d="M289.26 167.1C288.938 167.825 288.214 168.268 287.449 168.268C287.167 168.268 286.885 168.188 286.604 168.067L283.947 166.818C283.706 166.697 283.504 166.536 283.343 166.375L283.142 163.878C283.706 163.072 284.752 162.75 285.678 163.153L288.334 164.402C289.3 164.885 289.743 166.093 289.26 167.1Z" fill="white"/>
</g>
<g opacity="0.3">
<path opacity="0.3" d="M308.62 160.535C307.815 160.535 307.01 160.011 306.729 159.206C306.366 158.158 306.89 156.99 307.936 156.628L310.713 155.621C311.76 155.258 312.927 155.782 313.289 156.829C313.651 157.876 313.128 159.045 312.082 159.407L309.304 160.414C309.063 160.495 308.862 160.535 308.62 160.535Z" fill="white"/>
</g>
<g opacity="0.3">
<path opacity="0.3" d="M292.842 154.654C292.561 154.654 292.279 154.614 291.997 154.453C290.991 153.969 290.548 152.801 291.031 151.794L292.279 149.096C292.762 148.089 293.929 147.646 294.935 148.129C295.942 148.613 296.384 149.781 295.901 150.788L294.654 153.486C294.332 154.211 293.607 154.654 292.842 154.654Z" fill="white"/>
</g>
<g opacity="0.3">
<path opacity="0.3" d="M319.327 176.404C319.045 176.404 318.763 176.324 318.481 176.203C317.475 175.719 317.032 174.511 317.515 173.504L318.763 170.846C319.246 169.839 320.454 169.396 321.46 169.879C322.466 170.363 322.909 171.571 322.426 172.578L321.178 175.236C320.816 175.961 320.091 176.404 319.327 176.404Z" fill="white"/>
</g>
<g opacity="0.3">
<path opacity="0.3" d="M303.347 174.35C302.543 174.35 301.738 173.826 301.456 173.021L300.45 170.242C300.087 169.195 300.611 168.026 301.657 167.664C302.703 167.301 303.871 167.825 304.233 168.872L305.239 171.651C305.601 172.699 305.078 173.867 304.032 174.229C303.79 174.31 303.589 174.35 303.347 174.35Z" fill="white"/>
</g>
</g>
</g>
</g>
</g>
<path d="M313.571 59.6389C320.662 59.6389 326.411 53.8863 326.411 46.7903C326.411 39.6942 320.662 33.9417 313.571 33.9417C306.48 33.9417 300.731 39.6942 300.731 46.7903C300.731 53.8863 306.48 59.6389 313.571 59.6389Z" fill="#EA7068"/>
<path d="M301.295 68.8624C307.274 68.8624 312.122 64.0116 312.122 58.0277C312.122 52.0439 307.274 47.193 301.295 47.193C295.315 47.193 290.468 52.0439 290.468 58.0277C290.468 64.0116 295.315 68.8624 301.295 68.8624Z" fill="#2B2B2B"/>
<path d="M290.065 88.4375L300.409 88.7999C305.762 89.0013 310.27 84.8125 310.431 79.4555L310.995 63.868C311.277 55.2888 304.595 48.1194 296.022 47.7972C287.449 47.5152 280.284 54.2013 279.962 62.7805L279.48 77.0791C279.238 83.1208 283.987 88.1958 290.065 88.4375Z" fill="#FDC068"/>
<path d="M281.21 67.2111C281.21 68.0972 280.566 68.8222 279.761 68.943L279.882 65.4791C280.647 65.6805 281.21 66.3652 281.21 67.2111Z" fill="#2B2B2B"/>
<path d="M297.592 106.401L309.948 102.333C310.592 102.132 311.035 101.487 311.035 100.803L310.673 72.4069L294.171 71.843L291.554 101.649C291.273 104.911 294.452 107.449 297.592 106.401Z" fill="#FDC068"/>
<path d="M283.545 72.6486C283.464 72.6486 283.343 72.6084 283.263 72.5681L281.814 71.6417C281.452 71.3597 281.25 70.9167 281.21 70.4736C281.17 70.0306 281.331 69.5875 281.613 69.225L283.907 66.6875C284.108 66.4861 284.39 66.4861 284.631 66.6472C284.833 66.8486 284.833 67.1306 284.672 67.3722L282.377 69.9097C282.257 70.0708 282.176 70.232 282.216 70.4333C282.216 70.5945 282.297 70.7958 282.458 70.9167L283.826 71.7625C284.068 71.9236 284.148 72.2056 283.987 72.4472C283.867 72.5681 283.706 72.6486 283.545 72.6486Z" fill="#2B2B2B"/>
<path d="M285.114 78.4888C284.953 78.4888 284.752 78.4888 284.591 78.4485C283.182 78.1666 282.498 76.8777 282.458 76.8374C282.337 76.5957 282.418 76.2735 282.659 76.1527C282.901 76.0318 283.223 76.1124 283.343 76.3541C283.343 76.3541 283.867 77.2805 284.792 77.4416C285.477 77.5624 286.241 77.2805 287.046 76.5957C287.248 76.4346 287.57 76.4346 287.771 76.6763C287.932 76.8777 287.932 77.1999 287.69 77.4013C286.805 78.1263 285.919 78.4888 285.114 78.4888Z" fill="#2B2B2B"/>
<path d="M292.722 88.5181L299.443 88.7597L292.158 95.1639L292.722 88.5181Z" fill="#2B2B2B"/>
<path d="M289.502 69.4264C290.48 69.4264 291.273 68.633 291.273 67.6542C291.273 66.6754 290.48 65.882 289.502 65.882C288.524 65.882 287.731 66.6754 287.731 67.6542C287.731 68.633 288.524 69.4264 289.502 69.4264Z" fill="#2B2B2B"/>
<path d="M239.27 353.022L285.114 352.861C287.529 352.861 289.461 350.928 289.502 348.511L289.622 342.711L260.643 343.114L238.707 348.632C236.131 349.276 236.614 353.062 239.27 353.022Z" fill="#2B2B2B"/>
<path d="M308.499 353.022L318.159 352.982L350.56 336.911C352.694 335.864 353.619 333.246 352.613 331.071L350.158 325.794L324.318 338.925L316.469 346.457L307.936 348.592C305.4 349.276 305.883 353.062 308.499 353.022Z" fill="#2B2B2B"/>
<path d="M255.209 203.39L248.93 208.103C244.221 211.647 237.539 210.721 233.997 206.008C230.777 201.739 231.26 195.818 234.923 192.112L242.208 184.701" fill="#FDC068"/>
<path d="M242.168 184.701L273.724 152.519L270.584 156.426L294.774 113.208C298.759 106.079 307.775 103.542 314.899 107.529C322.023 111.517 324.559 120.539 320.574 127.668L296.384 170.886L295.942 171.692C295.257 172.94 294.291 173.988 293.245 174.793L255.249 203.431L242.168 184.701Z" fill="url(#paint7_linear)"/>
<path d="M310.15 146.84C310.069 146.84 309.949 146.8 309.868 146.76C309.586 146.599 309.465 146.236 309.626 145.954L320.051 127.346C320.212 127.064 320.574 126.943 320.856 127.104C321.138 127.265 321.259 127.628 321.098 127.91L310.673 146.518C310.552 146.719 310.351 146.84 310.15 146.84Z" fill="#2B2B2B"/>
<path d="M277.869 143.618C277.749 143.618 277.668 143.578 277.588 143.537C277.306 143.376 277.185 143.014 277.346 142.732L291.393 118.283C291.554 118.001 291.917 117.881 292.198 118.042C292.48 118.203 292.601 118.565 292.44 118.847L278.393 143.296C278.272 143.497 278.071 143.618 277.869 143.618Z" fill="#2B2B2B"/>
<path d="M279.963 62.7402L285.799 56.2958L289.22 59.4374C292.118 62.136 294.251 65.5597 295.298 69.386C296.465 73.5749 297.833 78.5694 297.914 78.7708C300.731 86.7055 305.32 89.3235 312.283 89.3235H315.865L311.156 62.7805C311.156 54.4027 303.992 47.636 295.62 47.636H295.137C286.765 47.5958 279.963 54.3624 279.963 62.7402Z" fill="#EA7068"/>
<path d="M300.53 262.357C300.248 262.357 300.007 262.196 299.967 261.914C296.545 249.106 287.972 206.21 285.96 193.563C285.919 193.24 286.121 192.918 286.443 192.878C286.765 192.838 287.087 193.039 287.127 193.361C289.139 206.008 297.713 248.864 301.134 261.632C301.214 261.954 301.013 262.276 300.691 262.357C300.651 262.357 300.57 262.357 300.53 262.357Z" fill="#2B2B2B"/>
<path d="M113.49 130.447C112.081 114.578 101.254 116.269 104.514 105.233C107.775 94.2375 101.616 79.6972 89.4609 80.7444C80.0828 81.5903 79.3985 81.2278 75.4541 81.5903C71.6706 81.9125 64.0634 86.5847 61.2057 88.4778C54.5242 92.8681 56.8587 99.675 60.0787 107.851C60.0787 107.851 53.679 104.065 53.9205 107.65C54.162 111.235 55.2085 125.292 56.1745 136.167L113.49 130.447Z" fill="#8670BD"/>
<path d="M113.289 132.501C115.18 140.799 116.549 156.104 117.756 164.482C118.964 172.86 119.93 181.237 120.775 189.656L121.339 195.979L121.62 199.121L121.862 202.262L122.345 208.586L122.747 214.91L122.949 218.092L123.11 221.274L123.432 227.597C123.713 231.826 123.552 236.056 123.512 240.285C123.23 257.242 122.627 274.239 121.54 291.236L121.137 297.6L120.654 303.964C120.493 306.099 120.292 308.233 120.131 310.328L119.849 313.51L119.527 316.692L118.883 323.056C118.763 324.103 118.682 325.19 118.561 326.238L118.199 329.419C117.958 331.554 117.716 333.689 117.434 335.783C117.153 337.918 116.871 340.053 116.509 342.147L86.0799 344.081L79.6803 244.031C79.318 235.653 78.1508 227.396 77.225 219.099L74.3673 194.207L68.6921 144.464L113.289 132.501Z" fill="url(#paint8_linear)"/>
<path d="M91.5136 190.219C96.1423 224.617 89.0182 231.061 93.2444 256.033C97.6718 282.093 85.114 296.472 84.792 325.271L76.7018 208.788L91.5136 190.219Z" fill="#2B2B2B"/>
<path d="M104.152 148.935C102.623 157.594 100.53 166.093 98.3159 174.592C96.0619 183.05 93.6067 191.468 90.9904 199.806C88.3742 208.183 85.5165 216.481 82.6185 224.737L73.6026 249.508C67.5651 266.022 34.3592 343.315 32.3065 347.303L2.28021 343.074L31.4612 238.069C32.6687 233.84 33.8359 229.611 35.0434 225.382L38.7464 212.735L53.1155 166.375L56.1342 136.207L104.152 148.935Z" fill="url(#paint9_linear)"/>
<path d="M56.1342 136.207C56.8587 144.585 64.9086 154.775 79.479 153.607L91.2319 152.278C104.514 151.231 114.174 138.422 113.369 129.4L56.1342 136.207Z" fill="url(#paint10_linear)"/>
<path d="M93.7285 71.5611L82.7403 71.9639C77.0651 72.1652 72.2754 67.6944 72.0742 62.0152L71.5107 45.4208C71.1484 36.2777 78.2726 28.625 87.369 28.3027C96.4654 27.9805 104.113 35.1097 104.435 44.2125L104.958 59.4375C105.2 65.9222 100.168 71.3597 93.7285 71.5611Z" fill="#EA7068"/>
<path d="M104.675 50.818C103.83 50.6569 103.146 49.8916 103.146 49.0055C103.146 48.1597 103.75 47.4347 104.555 47.2333L104.675 50.818Z" fill="#2B2B2B"/>
<path d="M71.3888 85.9805L97.6719 102.132L92.1174 81.3888L71.3888 85.9805Z" fill="white"/>
<path d="M85.7177 90.693L71.4291 85.9805L71.7913 54.5236L89.3402 53.9194L92.1174 85.618C92.3991 89.1222 89.0182 91.7805 85.7177 90.693Z" fill="#EA7068"/>
<path d="M100.65 54.8458C100.489 54.8458 100.288 54.7652 100.208 54.6041C100.047 54.3625 100.127 54.0402 100.369 53.8791L101.818 52.9527C101.979 52.8319 102.059 52.6305 102.059 52.4291C102.059 52.2277 102.019 52.0263 101.858 51.8652L99.4026 49.1666C99.2013 48.9652 99.2013 48.6027 99.4428 48.4014C99.6441 48.2 100.006 48.2 100.208 48.4416L102.663 51.1402C102.985 51.5027 103.146 51.9861 103.146 52.4694C103.106 52.9527 102.904 53.4361 102.502 53.7583L102.462 53.7986L100.972 54.7652C100.852 54.8458 100.731 54.8458 100.65 54.8458Z" fill="#2B2B2B"/>
<path d="M90.8697 71.6819L83.8662 70.7152L91.5137 78.7708L90.8697 71.6819Z" fill="#2B2B2B"/>
<path d="M94.2909 51.3014C95.3134 51.3014 96.1424 50.4719 96.1424 49.4486C96.1424 48.4253 95.3134 47.5958 94.2909 47.5958C93.2683 47.5958 92.4394 48.4253 92.4394 49.4486C92.4394 50.4719 93.2683 51.3014 94.2909 51.3014Z" fill="#2B2B2B"/>
<path d="M139.532 353.062L90.7489 352.861C88.2132 352.861 86.1202 350.807 86.08 348.269L85.9592 342.107L116.79 342.55L140.135 348.39C142.832 349.035 142.309 353.062 139.532 353.062Z" fill="#2B2B2B"/>
<path d="M55.772 353.063L7.02966 352.861C4.49394 352.861 2.40096 350.807 2.36071 348.27L2.19971 342.067L33.0309 342.51L56.3757 348.35C59.0725 349.035 58.5895 353.063 55.772 353.063Z" fill="#2B2B2B"/>
<path d="M118.32 143.578L130.958 144.585C137.197 145.068 141.866 150.546 141.383 156.829C140.94 162.468 136.432 166.818 130.958 167.261L118.28 168.268" fill="#EA7068"/>
<path d="M55.5707 124.043C58.3882 131.696 59.4749 165.771 59.4749 165.771C59.4749 173.061 65.9551 178.619 73.1598 177.492L116.388 168.268C116.388 168.268 78.9155 150.626 78.7143 150.868C78.513 151.11 60.1592 132.501 55.5707 124.043Z" fill="#2B2B2B"/>
<path d="M118.28 168.268L75.5748 171.651C67.8871 172.256 61.1654 166.738 60.1592 159.206L59.9982 157.997L52.9948 104.468C51.8678 95.8486 57.9455 87.9542 66.5186 86.8264C75.1321 85.6986 83.021 91.7806 84.148 100.36L91.1917 153.889L75.6151 140.194L118.36 143.578" fill="#8670BD"/>
<path d="M87.8107 43.9709L104.434 43.0445L105.762 40.1042C108.338 34.3445 104.152 27.8597 97.8329 27.8597H75.6151C70.3424 27.8597 66.2771 32.532 67.0419 37.7681L71.5901 69.7486L81.1293 52.4695L81.733 62.0556H81.7733L81.894 66.9292C81.9745 69.6278 84.1882 71.7625 86.885 71.7625L93.6872 71.7222C99.8454 71.7222 104.796 66.7278 104.796 60.6056V57.625C104.796 56.175 103.629 54.9667 102.18 54.9667C100.852 54.9667 99.2014 54.9667 97.8329 54.9667C96.1021 54.9667 94.4519 55.8931 93.5664 57.3834L93.5262 57.4639C92.6407 58.9139 91.0709 59.8 89.3805 59.8L87.4082 59.8403C85.8385 59.8403 84.5505 58.632 84.5102 57.1014L84.1077 48.2C83.987 45.9445 85.6372 44.0917 87.8107 43.9709Z" fill="#2B2B2B"/>
<path d="M97.4304 59.8403C97.4304 62.9819 102.18 62.6597 102.18 59.3972L97.4304 59.8403Z" fill="white"/>
<path d="M81.7733 59.5181L79.0765 59.7195C77.5873 59.8403 76.259 58.7125 76.1785 57.182L75.8968 52.9528C75.7761 51.4625 76.903 50.1334 78.4325 50.0528C79.9218 49.932 81.25 51.0598 81.3305 52.5903L81.7733 59.5181Z" fill="#EA7068"/>
<path d="M113.409 130.085C113.087 130.085 112.846 129.843 112.806 129.561C112.041 122.19 103.548 108.174 103.468 108.013C103.307 107.731 103.387 107.368 103.669 107.167C103.951 107.006 104.313 107.086 104.514 107.368C104.877 107.932 113.208 121.747 114.013 129.4C114.053 129.722 113.812 130.044 113.49 130.044C113.45 130.085 113.45 130.085 113.409 130.085Z" fill="#2B2B2B"/>
<path d="M88.1327 132.3C87.8509 132.3 87.5692 132.058 87.5289 131.776L85.6372 116.471C85.597 116.149 85.8385 115.826 86.1605 115.786C86.4825 115.746 86.8044 115.988 86.8447 116.31L88.7364 131.615C88.7767 131.938 88.5352 132.26 88.2132 132.3C88.1729 132.3 88.1729 132.3 88.1327 132.3Z" fill="#2B2B2B"/>
<path d="M78.7143 236.056C78.6338 236.056 78.5533 236.056 78.513 236.015C78.191 235.895 78.03 235.532 78.1508 235.25C88.2534 208.667 96.9876 177.17 97.1084 176.847C97.1889 176.525 97.5109 176.324 97.8329 176.445C98.1549 176.525 98.3561 176.847 98.2354 177.169C98.1549 177.492 89.3804 209.029 79.2778 235.653C79.1973 235.895 78.9558 236.056 78.7143 236.056Z" fill="#2B2B2B"/>
<path d="M287.288 353.707C308.781 353.707 318.602 322.169 343.919 325.231C351.526 326.157 360.019 310.569 363.48 304.689C369.236 294.942 384.491 298.889 384.491 310.126V353.707H287.288Z" fill="url(#paint11_linear)"/>
<defs>
<linearGradient id="paint0_linear" x1="22.888" y1="100.44" x2="22.888" y2="166.254" gradientUnits="userSpaceOnUse">
<stop offset="0.2594" stop-color="#CAE6C4"/>
<stop offset="0.4772" stop-color="#CDE7C7"/>
<stop offset="0.6541" stop-color="#D6ECD1"/>
<stop offset="0.8167" stop-color="#E5F3E2"/>
<stop offset="0.9698" stop-color="#FBFDFA"/>
<stop offset="0.9958" stop-color="white"/>
</linearGradient>
<linearGradient id="paint1_linear" x1="184.981" y1="196.962" x2="58.0518" y2="352.63" gradientUnits="userSpaceOnUse">
<stop stop-color="#FFD8A1"/>
<stop offset="0.9958" stop-color="white"/>
</linearGradient>
<linearGradient id="paint2_linear" x1="314.034" y1="268.099" x2="314.034" y2="350.284" gradientUnits="userSpaceOnUse">
<stop stop-color="#C0DDFC"/>
<stop offset="0.1856" stop-color="#D3E7FD"/>
<stop offset="0.4877" stop-color="#EBF4FE"/>
<stop offset="0.766" stop-color="#FAFCFF"/>
<stop offset="0.9958" stop-color="white"/>
</linearGradient>
<linearGradient id="paint3_linear" x1="260.781" y1="99.7829" x2="260.781" y2="190.917" gradientUnits="userSpaceOnUse">
<stop stop-color="#F48B94"/>
<stop offset="0.405" stop-color="#F4A9A6"/>
<stop offset="0.4989" stop-color="#FED3B5"/>
<stop offset="0.599" stop-color="#DBECC2"/>
<stop offset="1" stop-color="#ADDCC8"/>
</linearGradient>
<linearGradient id="paint4_linear" x1="297.244" y1="99.7828" x2="297.244" y2="190.917" gradientUnits="userSpaceOnUse">
<stop stop-color="#F48B94"/>
<stop offset="0.405" stop-color="#F4A9A6"/>
<stop offset="0.4989" stop-color="#FED3B5"/>
<stop offset="0.599" stop-color="#DBECC2"/>
<stop offset="1" stop-color="#ADDCC8"/>
</linearGradient>
<linearGradient id="paint5_linear" x1="286.498" y1="152.68" x2="286.498" y2="347.36" gradientUnits="userSpaceOnUse">
<stop stop-color="#77879D"/>
<stop offset="0.0893" stop-color="#A1978E"/>
<stop offset="0.1883" stop-color="#C9A780"/>
<stop offset="0.2791" stop-color="#E5B275"/>
<stop offset="0.3578" stop-color="#F7B96F"/>
<stop offset="0.4155" stop-color="#FDBB6D"/>
<stop offset="0.4989" stop-color="#FDBB9F"/>
<stop offset="0.599" stop-color="#D1D2D1"/>
<stop offset="1" stop-color="#FECEAA"/>
</linearGradient>
<linearGradient id="paint6_linear" x1="310.834" y1="152.681" x2="310.834" y2="347.36" gradientUnits="userSpaceOnUse">
<stop stop-color="#77879D"/>
<stop offset="0.0893" stop-color="#A1978E"/>
<stop offset="0.1883" stop-color="#C9A780"/>
<stop offset="0.2791" stop-color="#E5B275"/>
<stop offset="0.3578" stop-color="#F7B96F"/>
<stop offset="0.4155" stop-color="#FDBB6D"/>
<stop offset="0.4989" stop-color="#FDBB9F"/>
<stop offset="0.599" stop-color="#D1D2D1"/>
<stop offset="1" stop-color="#FECEAA"/>
</linearGradient>
<linearGradient id="paint7_linear" x1="282.314" y1="99.7829" x2="282.314" y2="190.917" gradientUnits="userSpaceOnUse">
<stop stop-color="#F48B94"/>
<stop offset="0.405" stop-color="#F4A9A6"/>
<stop offset="0.4989" stop-color="#FED3B5"/>
<stop offset="0.599" stop-color="#DBECC2"/>
<stop offset="1" stop-color="#ADDCC8"/>
</linearGradient>
<linearGradient id="paint8_linear" x1="96.1432" y1="341.181" x2="96.1432" y2="148.641" gradientUnits="userSpaceOnUse">
<stop stop-color="#D96359"/>
<stop offset="0.3215" stop-color="#90979D"/>
<stop offset="0.5011" stop-color="#7E9DAE"/>
<stop offset="0.6828" stop-color="#B8C1FC"/>
<stop offset="1" stop-color="#D2D4D4"/>
</linearGradient>
<linearGradient id="paint9_linear" x1="51.5906" y1="341.131" x2="51.5906" y2="148.006" gradientUnits="userSpaceOnUse">
<stop stop-color="#D96359"/>
<stop offset="0.3215" stop-color="#90979D"/>
<stop offset="0.5011" stop-color="#7E9DAE"/>
<stop offset="0.6828" stop-color="#B8C1FC"/>
<stop offset="1" stop-color="#D2D4D4"/>
</linearGradient>
<linearGradient id="paint10_linear" x1="84.7751" y1="341.277" x2="84.7751" y2="148.65" gradientUnits="userSpaceOnUse">
<stop stop-color="#D96359"/>
<stop offset="0.3215" stop-color="#90979D"/>
<stop offset="0.5011" stop-color="#7E9DAE"/>
<stop offset="0.6828" stop-color="#B8C1FC"/>
<stop offset="1" stop-color="#D2D4D4"/>
</linearGradient>
<linearGradient id="paint11_linear" x1="335.889" y1="308.892" x2="335.889" y2="351.907" gradientUnits="userSpaceOnUse">
<stop stop-color="#FFD8A1"/>
<stop offset="0.9958" stop-color="white"/>
</linearGradient>
</defs>
</svg>
