<svg width="70" height="70" viewBox="0 0 70 70" fill="none" xmlns="http://www.w3.org/2000/svg">
<circle cx="35" cy="35" r="35" fill="#FF6F00" fill-opacity="0.5"/>
<g clip-path="url(#clip0)">
<path d="M52.2034 45.7966V42.8068L49.9254 42.4508C49.8542 42.2373 49.7119 41.9525 49.6407 41.739L50.922 39.8169L48.8576 37.7525L47.0068 39.1051C46.7932 38.9627 46.5085 38.8915 46.2949 38.8203L45.8678 36.5424H42.878L42.522 38.8203C42.3085 38.8915 42.0237 39.0339 41.8102 39.1051L39.8881 37.7525L37.7525 39.8881L39.0339 41.6678C38.8915 41.8813 38.8203 42.1661 38.7492 42.4508L36.5424 42.8068V45.7966L38.7492 46.1525C38.8203 46.3661 38.9627 46.6508 39.0339 46.8644L37.7525 48.7864L39.8881 50.922L41.8102 49.6407C42.0949 49.783 42.3085 49.8542 42.5932 49.9254L42.878 52.2034H45.8678L46.2237 49.9254C46.4373 49.8542 46.722 49.7119 46.9356 49.6407L48.8576 50.922L50.9932 48.7864L49.6407 46.9356C49.7831 46.722 49.8542 46.4373 49.9254 46.2237L52.2034 45.7966ZM44.3729 46.5085C43.1627 46.5085 42.2373 45.583 42.2373 44.3729C42.2373 43.1627 43.1627 42.2373 44.3729 42.2373C45.5831 42.2373 46.5085 43.1627 46.5085 44.3729C46.5085 45.583 45.5831 46.5085 44.3729 46.5085ZM32.1552 44.8192C32.0206 44.9858 31.8184 45.0833 31.6042 45.0847C31.6035 45.0847 31.602 45.0847 31.6006 45.0847C31.3878 45.0847 31.1856 44.9893 31.0503 44.8249L28.0982 41.2279C27.6604 41.4236 27.1849 41.6158 26.6845 41.8137C23.9068 42.9143 20.45 44.2846 20.2122 48.6049L20.1695 49.3559H32.383V49.0712C32.383 46.438 34.0914 43.5186 34.0914 43.5186L33.5533 43.0815L32.1552 44.8192Z" fill="#FF6F00"/>
<path d="M41.1367 29.5633C41.7411 27.6213 41.9105 24.0862 40.6313 21.9712C40.0241 20.9682 39.2873 20.3311 38.0657 20.0877C37.3781 19.2192 36.0846 18.7458 34.3612 18.7458H34.3605C31.7373 18.8049 29.8209 19.6071 28.6627 21.1298C27.2917 22.9337 26.9706 25.9114 27.8327 29.564C27.5387 29.942 27.2746 30.5464 27.3436 31.3707C27.5536 32.9112 28.1395 33.5447 28.6165 33.8039C28.8428 35.0276 29.5469 36.4185 30.1762 37.0806V39.6091C30.1662 39.6333 30.152 39.6554 30.1406 39.6789C30.1035 39.7565 30.0623 39.8319 30.0117 39.9045C29.9975 39.9252 29.9811 39.9451 29.9662 39.9658C29.9042 40.0476 29.8366 40.1266 29.7597 40.2028C29.6437 40.3181 29.517 40.4292 29.3703 40.5345L31.5949 43.2446L33.1824 41.2706L33.1881 41.2742L34.0928 40.1551L31.6611 38.7086C31.6419 38.6972 31.6205 38.6965 31.6006 38.6872V36.756L31.612 36.3495L31.2525 36.1452C30.9927 35.958 30.0964 34.5463 29.9683 33.2009L29.959 32.5631H29.312C29.2109 32.5232 28.892 32.1858 28.7588 31.2148C28.709 30.6183 29.0144 30.3712 29.0137 30.3712L29.4323 30.0915L29.3084 29.6039C28.4463 26.1983 28.6513 23.4953 29.796 21.9905C30.6787 20.8301 32.2249 20.2172 34.3769 20.1681C35.723 20.1681 36.6919 20.5069 37.0364 21.0964L37.2108 21.3946L37.5525 21.4423C38.5007 21.5762 38.9826 21.9926 39.414 22.7066C40.4455 24.4122 40.2626 27.81 39.6454 29.5391L39.4204 30.1249L39.9842 30.4068C40.0476 30.4517 40.2191 30.698 40.1764 31.2077C40.0796 32.262 39.7457 32.5439 39.6746 32.556H39.0574L38.9698 33.1667C38.7648 34.599 37.8814 35.958 37.6536 36.1373L37.2948 36.3417V38.3726L39.0652 36.6022C39.5279 35.8718 40.0988 34.799 40.2982 33.8295C40.8086 33.5867 41.4464 32.956 41.5937 31.333C41.6607 30.5328 41.44 29.9434 41.1367 29.5633Z" fill="#FF6F00"/>
</g>
<defs>
<clipPath id="clip0">
<rect width="35.5932" height="35.5932" fill="white" transform="translate(16.6102 16.6102)"/>
</clipPath>
</defs>
</svg>
