<svg width="90" height="90" viewBox="0 0 90 90" fill="none" xmlns="http://www.w3.org/2000/svg">
<path d="M22.8206 41.265C22.8206 41.265 21.8306 53.8088 21.69 57.9994C21.4725 64.4513 45 72.6563 45 72.6563C45 72.6563 68.5556 64.3706 68.31 58.0013C68.1488 53.8088 67.0181 41.2669 67.0181 41.2669H22.8206V41.265Z" fill="url(#paint0_radial)"/>
<path d="M67.545 77.5894C65.4056 77.5894 63.6712 76.3425 63.6712 75.1857C63.6712 68.2407 65.4056 60.0919 67.545 60.0919C69.6844 60.0919 71.4188 68.1507 71.4188 75.1857C71.4188 76.5657 69.6844 77.5894 67.545 77.5894Z" fill="url(#paint1_radial)"/>
<path d="M84.3338 32.0344L45 14.8744L5.66625 32.0344H0.0168762V34.4981L45 54.1219L89.9831 34.4981V32.0344H84.3338Z" fill="white"/>
<path d="M89.9831 32.0344L45 51.6581L0.0168762 32.0344L45 12.4106L89.9831 32.0344Z" fill="url(#paint2_radial)"/>
<path d="M68.5556 60.0919H66.6562V51.1894V42.2869L56.2819 37.7344L45.9075 33.1819L46.6706 31.4419L57.045 35.9944L67.4194 40.5469C68.1094 40.8506 68.5556 41.5331 68.5556 42.2869V51.1894V60.0919Z" fill="#C97A1F"/>
<path d="M46.6819 31.4587C46.6819 31.4587 46.8094 31.5131 46.8112 31.5131L57.0544 36.0094L67.4119 40.5544C67.8581 40.7494 68.2125 41.1112 68.3962 41.5425C68.4937 41.7712 68.5481 42.0225 68.5481 42.2812V51.1706V60.06C68.5481 60.06 68.3231 60.0619 68.3212 60.0619C68.3212 60.0619 68.0794 60.0619 68.0794 60.06L66.6656 60.045V52.4494V51.1575V43.4119L66.6562 42.2775L56.2987 37.7325L56.1937 37.6875L45.945 33.1875L46.59 31.6744C46.5881 31.6744 46.6819 31.4587 46.6819 31.4587Z" fill="#CA7B1F"/>
<path d="M46.695 31.4756C46.695 31.4738 46.8225 31.5281 46.8244 31.5281L57.0637 36.0244L67.4025 40.5638C67.8431 40.7569 68.2069 41.1206 68.3887 41.5463C68.4862 41.7731 68.5406 42.0206 68.5406 42.2775L68.5388 51.1519L68.5369 60.0262C68.5369 60.0281 68.3137 60.03 68.3119 60.03C68.31 60.03 68.0719 60.0281 68.0719 60.0262L66.675 59.9981L66.6769 52.4156V51.1256L66.6788 43.3931L66.66 42.2663L56.3194 37.7269L56.2144 37.68L45.9806 33.1875L46.6031 31.6856C46.6012 31.6894 46.695 31.4756 46.695 31.4756Z" fill="#CA7C1F"/>
<path d="M46.7062 31.4906C46.7081 31.4888 46.8337 31.5413 46.8356 31.5431L57.0713 36.0394L67.3931 40.5713C67.8281 40.7625 68.2013 41.1263 68.3813 41.5482C68.4788 41.7732 68.5313 42.0188 68.5313 42.2738L68.5294 51.135L68.5275 59.9963C68.5275 59.9982 68.3063 60.0019 68.3025 60.0019C68.3006 60.0019 68.0625 60 68.0625 59.9963L66.6825 59.9532L66.6844 52.3838V51.0975L66.6863 43.38L66.6581 42.2625L56.3344 37.7306L56.2294 37.6838L46.0144 33.1988L46.6162 31.7081C46.6162 31.7063 46.7062 31.4925 46.7062 31.4906Z" fill="#CB7D1F"/>
<path d="M46.7194 31.5075C46.7212 31.5038 46.8469 31.5563 46.8506 31.5581L57.0844 36.0525L67.3875 40.5769C67.8169 40.7663 68.1994 41.1319 68.3775 41.5481C68.475 41.7694 68.5275 42.0131 68.5275 42.2663L68.5237 51.1144L68.52 59.9625C68.52 59.9663 68.3006 59.9681 68.2969 59.9681C68.2931 59.9681 68.0587 59.9644 68.0587 59.9606L66.6956 59.9044L66.6975 52.3481V51.0638L66.6994 43.3594L66.6619 42.2513L56.355 37.725L56.2481 37.6781L46.0519 33.2006L46.6312 31.7213C46.6294 31.7213 46.7175 31.5113 46.7194 31.5075Z" fill="#CC7E1E"/>
<path d="M46.7306 31.5225C46.7325 31.5188 46.8581 31.5694 46.8619 31.5713L57.0919 36.0657L67.3762 40.5844C67.8 40.77 68.1919 41.1394 68.3681 41.55C68.4638 41.7694 68.5163 42.0113 68.5163 42.2607L68.5125 51.0957L68.5087 59.9307C68.5087 59.9344 68.2912 59.9382 68.2856 59.9382C68.2819 59.9382 68.0494 59.9344 68.0494 59.9307L66.7031 59.8594L66.7069 52.3163V51.0338L66.7106 43.3425L66.6619 42.2438L56.3719 37.7232L56.265 37.6763L46.0875 33.2063L46.6444 31.7382C46.6425 31.7363 46.7287 31.5282 46.7306 31.5225Z" fill="#CC7F1E"/>
<path d="M46.7437 31.5394C46.7456 31.5338 46.8712 31.5844 46.8769 31.5863L57.1031 36.0806L67.3706 40.5919C67.7906 40.7756 68.19 41.145 68.3644 41.55C68.46 41.7675 68.5125 42.0056 68.5125 42.2531L68.5087 51.075L68.505 59.8969C68.505 59.9025 68.2894 59.9063 68.2837 59.9063C68.2781 59.9063 68.0475 59.9025 68.0475 59.8969L66.7144 59.8125L66.7181 52.2825V51.0019L66.7219 43.3238L66.6637 42.2344L56.3906 37.7213L56.2837 37.6744L46.125 33.2119L46.6594 31.755C46.6556 31.7513 46.7419 31.545 46.7437 31.5394Z" fill="#CD801E"/>
<path d="M46.755 31.5562C46.7569 31.5506 46.8825 31.5994 46.8881 31.6012L57.1106 36.0956L67.3594 40.5994C67.7737 40.7812 68.1825 41.1525 68.3531 41.5519C68.4487 41.7656 68.4994 42.0037 68.4994 42.2475L68.4937 51.0562L68.4881 59.865C68.4881 59.8706 68.2744 59.8762 68.2669 59.8762C68.2612 59.8762 68.0325 59.8706 68.0325 59.865L66.72 59.7656L66.7237 52.2487V50.9719L66.7275 43.3069L66.66 42.225L56.4037 37.7175L56.295 37.6706L46.155 33.2156L46.6669 31.77C46.6687 31.7681 46.7531 31.5619 46.755 31.5562Z" fill="#CD811E"/>
<path d="M46.7681 31.5712C46.7719 31.5637 46.8956 31.6125 46.9012 31.6162L57.12 36.1087L67.3519 40.6068C67.7606 40.7868 68.1787 41.16 68.3475 41.5537C68.4412 41.7656 68.4937 42 68.4937 42.2418L68.4881 51.0356L68.4825 59.8293C68.4825 59.8368 68.2706 59.8425 68.2631 59.8425C68.2556 59.8425 68.0306 59.8368 68.0306 59.8293L66.735 59.7168L66.7406 52.2131V50.9381L66.7462 43.2862L66.6694 42.2137L56.43 37.7137L56.3212 37.665L46.2 33.2156L46.6894 31.7812C46.6819 31.7831 46.7644 31.5787 46.7681 31.5712Z" fill="#CE821E"/>
<path d="M46.7794 31.5881C46.7831 31.5806 46.9069 31.6275 46.9144 31.6312L57.1294 36.1237L67.3425 40.6143C67.7456 40.7906 68.1731 41.1656 68.34 41.5556C68.4337 41.7656 68.4862 41.9981 68.4862 42.2381L68.4787 51.0187L68.4712 59.7993C68.4712 59.8068 68.2612 59.8143 68.2519 59.8143C68.2444 59.8143 68.0194 59.8068 68.0194 59.7993L66.7406 59.6718L66.7462 52.1812L66.7481 50.9081L66.7537 43.2712L66.6675 42.2081L56.445 37.7137L56.3362 37.665L46.2338 33.2231L46.7025 31.8C46.695 31.7981 46.7756 31.5956 46.7794 31.5881Z" fill="#CF831E"/>
<path d="M46.7925 31.605C46.7963 31.5975 46.9181 31.6425 46.9275 31.6462L57.1388 36.1387L67.335 40.6218C67.7344 40.7962 68.1694 41.1731 68.3344 41.5575C68.4281 41.7656 68.4787 41.9943 68.4787 42.2325L68.4712 51L68.4637 59.7675C68.4637 59.7768 68.2556 59.7843 68.2462 59.7843C68.2369 59.7843 68.0156 59.7768 68.0156 59.7675L66.7537 59.625L66.7594 52.1475L66.7612 50.8762L66.7669 43.2525L66.6712 42.1987L56.4656 37.7118L56.355 37.6631L46.2713 33.2287L46.7175 31.8168C46.7081 31.8131 46.7888 31.6125 46.7925 31.605Z" fill="#CF841E"/>
<path d="M46.8037 31.6199C46.8075 31.6106 46.9294 31.6556 46.9387 31.6593L57.1481 36.1518L67.3256 40.6293C67.7194 40.8018 68.1637 41.1787 68.3269 41.5593C68.4187 41.7637 68.4712 41.9906 68.4712 42.2268L68.4637 50.9812L68.4562 59.7355C68.4562 59.7449 68.25 59.7543 68.2406 59.7543C68.2312 59.7543 68.01 59.7468 68.01 59.7355L66.765 59.5799L66.7725 52.1156L66.7744 50.8462L66.7819 43.2356L66.6769 42.1912L56.4881 37.7099L56.3775 37.6612L46.3125 33.2343L46.7362 31.8337C46.7212 31.8299 46.8 31.6293 46.8037 31.6199Z" fill="#D0851E"/>
<path d="M46.8169 31.637C46.8206 31.6276 46.9425 31.6707 46.9538 31.6745L57.1594 36.1651L67.32 40.6351C67.7081 40.8057 68.1619 41.1845 68.3212 41.5595C68.4131 41.762 68.4637 41.9869 68.4637 42.2194L68.4544 50.9607L68.445 59.7019C68.445 59.7132 68.2406 59.7207 68.2294 59.7207C68.2181 59.7207 68.0006 59.7113 68.0006 59.7001L66.7725 59.5294L66.78 52.0782L66.7819 50.8126L66.7894 43.2151L66.675 42.1782L56.5031 37.7026L56.3925 37.6538L46.3463 33.2345L46.7475 31.8451C46.7344 31.8451 46.8113 31.6463 46.8169 31.637Z" fill="#D1861D"/>
<path d="M46.8281 31.6537C46.8338 31.6425 46.9538 31.6856 46.965 31.6912L57.1669 36.1818L67.3088 40.6443C67.6912 40.8131 68.1544 41.1937 68.3119 41.5631C68.4037 41.7637 68.4544 41.985 68.4544 42.2156L68.445 50.9437L68.4356 59.6718C68.4356 59.6831 68.2331 59.6925 68.2219 59.6925C68.2106 59.6925 67.995 59.6831 67.995 59.67L66.7838 59.4862L66.7913 52.0481L66.7931 50.7843L66.8006 43.2L66.6769 42.1725L56.5219 37.7043L56.4094 37.6556L46.3819 33.2437L46.7606 31.8656C46.7475 31.86 46.8225 31.6631 46.8281 31.6537Z" fill="#D1871D"/>
<path d="M46.8413 31.6688C46.8469 31.6576 46.9669 31.6988 46.9781 31.7044L57.1763 36.1951L67.2994 40.6519C67.6763 40.8169 68.1488 41.1994 68.3044 41.5651C68.3963 41.7619 68.445 41.9832 68.445 42.2119L68.4375 50.9251L68.4263 59.6382C68.4263 59.6513 68.2256 59.6607 68.2125 59.6607C68.1994 59.6607 67.9856 59.6494 67.9856 59.6363L66.7913 59.4376L66.8006 52.0126L66.8025 50.7507L66.8119 43.1794L66.6788 42.1613L56.5406 37.6988L56.4281 37.6501L46.4194 33.2457L46.7775 31.8788C46.7606 31.8751 46.8356 31.6801 46.8413 31.6688Z" fill="#D2881D"/>
<path d="M46.8525 31.6857C46.8581 31.6725 46.9781 31.7138 46.9913 31.7194L57.1856 36.21L67.2919 40.6594C67.665 40.8225 68.145 41.2069 68.2987 41.5669C68.3888 41.7619 68.4394 41.9794 68.4394 42.2063L68.4281 50.9063L68.4169 59.6063C68.4169 59.6194 68.2181 59.6307 68.205 59.6307C68.1919 59.6307 67.98 59.6194 67.98 59.6063L66.8006 59.3944L66.81 51.9825L66.8119 50.7225L66.8213 43.1663L66.6769 42.1575L56.5556 37.7025L56.4431 37.6519L46.4513 33.2532L46.7869 31.8975C46.7738 31.8919 46.8469 31.6969 46.8525 31.6857Z" fill="#D2891D"/>
<path d="M46.8656 31.7007C46.8713 31.6875 46.9913 31.7269 47.0044 31.7325L57.195 36.2232L67.2825 40.665C67.65 40.8263 68.1394 41.2125 68.2913 41.5669C68.3813 41.76 68.4319 41.9757 68.4319 42.1988L68.4188 50.8875L68.4075 59.5744C68.4075 59.5894 68.2106 59.6007 68.1956 59.6007C68.1806 59.6007 67.9725 59.5894 67.9725 59.5744L66.81 59.3475L66.8194 51.9488L66.8213 50.6925L66.8306 43.1494L66.6769 42.15L56.5725 37.7007L56.4581 37.65L46.485 33.2588L46.7981 31.9144C46.7869 31.9069 46.8581 31.7138 46.8656 31.7007Z" fill="#D38A1D"/>
<path d="M46.8769 31.7175C46.8825 31.7025 47.0025 31.7419 47.0175 31.7475L57.2062 36.2362L67.2769 40.6725C67.6387 40.8319 68.1375 41.2181 68.2856 41.5687C68.3756 41.7581 68.4244 41.9719 68.4244 42.1931L68.4112 50.8669L68.3981 59.5406C68.3981 59.5556 68.2031 59.5687 68.1881 59.5687C68.1731 59.5687 67.965 59.5556 67.965 59.5406L66.8194 59.3006L66.8306 51.915L66.8325 50.6606L66.8437 43.1306L66.6806 42.1387L56.5931 37.695L56.4787 37.6444L46.5244 33.2606L46.815 31.9275C46.8 31.9219 46.8713 31.7325 46.8769 31.7175Z" fill="#D48B1D"/>
<path d="M46.8881 31.7343C46.8956 31.7193 47.0138 31.7568 47.0288 31.7643L57.2138 36.2531L67.2656 40.6818C67.6219 40.8375 68.13 41.2275 68.2763 41.5725C68.3644 41.76 68.415 41.9718 68.415 42.1893L68.4019 50.85L68.3888 59.5106C68.3888 59.5275 68.1956 59.5406 68.1788 59.5406C68.1619 59.5406 67.9575 59.5275 67.9575 59.5106L66.8287 59.2556L66.84 51.8831L66.8419 50.6306L66.8531 43.1137L66.6806 42.1312L56.61 37.695L56.4956 37.6443L46.56 33.2681L46.8281 31.9462C46.8131 31.9368 46.8825 31.7493 46.8881 31.7343Z" fill="#D48C1D"/>
<path d="M46.9013 31.7493C46.9088 31.7324 47.0269 31.7699 47.0419 31.7774L57.2231 36.2662L67.2581 40.6874C67.6087 40.8412 68.1262 41.2331 68.2706 41.5724C68.3587 41.7581 68.4075 41.9662 68.4075 42.1837L68.3925 50.8312L68.3775 59.4787C68.3775 59.4956 68.1862 59.5106 68.1694 59.5106C68.1525 59.5106 67.9481 59.4956 67.9481 59.4787L66.8362 59.2106L66.8475 51.8512L66.8494 50.6006L66.8606 43.0968L66.6787 42.1237L56.625 37.6931L56.5088 37.6424L46.5919 33.2737L46.8375 31.9631C46.8281 31.9537 46.8938 31.7662 46.9013 31.7493Z" fill="#D58D1D"/>
<path d="M46.9125 31.7662C46.92 31.7493 47.0381 31.785 47.055 31.7925L57.2325 36.2812L67.2487 40.6968C67.5956 40.8487 68.1206 41.2406 68.2631 41.5762C68.3512 41.76 68.4 41.9662 68.4 42.18L68.385 50.8143L68.37 59.4487C68.37 59.4675 68.1806 59.4806 68.1619 59.4806C68.1431 59.4806 67.9425 59.4656 67.9425 59.4468L66.8475 59.1637L66.8606 51.8175L66.8625 50.5687L66.8756 43.0781L66.6844 42.1143L56.6475 37.6875L56.5312 37.6368L46.6331 33.2756L46.8581 31.9781C46.8413 31.9687 46.905 31.7831 46.9125 31.7662Z" fill="#D68E1C"/>
<path d="M46.9256 31.7831C46.9331 31.7662 47.0513 31.8 47.0681 31.8075L57.2419 36.2944L67.2413 40.7025C67.5825 40.8525 68.1169 41.2462 68.2575 41.5762C68.3456 41.7562 68.3944 41.9606 68.3944 42.1725L68.3794 50.7919L68.3644 59.4112C68.3644 59.43 68.1769 59.445 68.1581 59.445C68.1394 59.445 67.9406 59.43 67.9406 59.4093L66.8625 59.1112L66.8756 51.7781L66.8775 50.5331L66.8906 43.0575L66.69 42.1031L56.6681 37.6856L56.5519 37.635L46.6725 33.2794L46.875 31.9931C46.8544 31.9837 46.9181 31.8 46.9256 31.7831Z" fill="#D68F1C"/>
<path d="M46.9369 31.7981C46.9444 31.7793 47.0606 31.8131 47.0794 31.8206L57.2494 36.3075L67.23 40.7081C67.5656 40.8562 68.1094 41.25 68.2462 41.5743C68.3325 41.7525 68.3812 41.9531 68.3812 42.1631L68.3644 50.7693L68.3475 59.3756C68.3475 59.3962 68.1619 59.4112 68.1412 59.4112C68.1206 59.4112 67.9237 59.3943 67.9237 59.3737L66.8625 59.0625L66.8756 51.7425L66.8775 50.4993L66.8906 43.0368L66.6806 42.09L56.6756 37.6781L56.5575 37.6256L46.6969 33.2775L46.8769 32.0025C46.8675 32.0006 46.9294 31.8168 46.9369 31.7981Z" fill="#D7901C"/>
<path d="M46.95 31.815C46.9594 31.7963 47.0738 31.8281 47.0944 31.8375L57.2606 36.3244L67.2244 40.7194C67.5544 40.8638 68.1075 41.2613 68.2425 41.58C68.3288 41.7563 68.3775 41.955 68.3775 42.1613L68.3606 50.7544L68.3438 59.3475C68.3438 59.3681 68.16 59.385 68.1394 59.385C68.1188 59.385 67.9238 59.3681 67.9238 59.3456L66.8794 59.0194L66.8944 51.7125L66.8963 50.4713L66.9113 43.0219L66.6919 42.0844L56.7038 37.68L56.5856 37.6275L46.7438 33.2869L46.9013 32.0231C46.8806 32.0156 46.9406 31.8338 46.95 31.815Z" fill="#D7911C"/>
<path d="M46.9612 31.8319C46.9706 31.8113 47.085 31.8431 47.1056 31.8525L57.27 36.3394L67.215 40.7269C67.5394 40.8694 68.1019 41.2688 68.235 41.5819C68.3212 41.7544 68.3681 41.9513 68.3681 42.1556L68.3494 50.7356L68.3306 59.3156C68.3306 59.3381 68.1487 59.355 68.1262 59.355C68.1037 59.355 67.9125 59.3363 67.9125 59.3138L66.885 58.9744L66.9 51.6806L66.9019 50.4413L66.9169 43.005L66.6881 42.0769L56.7169 37.6781L56.5987 37.6256L46.7756 33.2925L46.9106 32.04C46.8937 32.0306 46.9519 31.8506 46.9612 31.8319Z" fill="#D8921C"/>
<path d="M46.9744 31.8469C46.9837 31.8263 47.0981 31.8563 47.1206 31.8657L57.2812 36.3526L67.2075 40.7326C67.5281 40.8732 68.0962 41.2726 68.2294 41.5819C68.3137 41.7526 68.3625 41.9476 68.3625 42.1501L68.3437 50.7169L68.325 59.2838C68.325 59.3063 68.145 59.3251 68.1225 59.3251C68.1 59.3251 67.9087 59.3063 67.9087 59.2838L66.8981 58.9294L66.9131 51.6488L66.915 50.4132L66.9319 42.9901L66.6919 42.0713L56.7375 37.6801L56.6175 37.6276L46.8131 33.3019L46.9256 32.0607C46.9069 32.0457 46.965 31.8676 46.9744 31.8469Z" fill="#D9931C"/>
<path d="M46.9856 31.8638C46.995 31.8413 47.1094 31.8713 47.1319 31.8807L57.2888 36.3657L67.1981 40.74C67.5131 40.8788 68.0906 41.28 68.2219 41.5838C68.3062 41.7525 68.3531 41.9438 68.3531 42.1444L68.3344 50.6982L68.3156 59.2519C68.3156 59.2763 68.1375 59.295 68.1131 59.295C68.0887 59.295 67.9012 59.2763 67.9012 59.2519L66.9075 58.8844L66.9244 51.6169L66.9262 50.3832L66.9431 42.9732L66.6937 42.0638L56.7563 37.6782L56.6363 37.6257L46.8506 33.3075L46.9425 32.0775C46.92 32.0625 46.9763 31.8844 46.9856 31.8638Z" fill="#D9941C"/>
<path d="M46.9987 31.8806C47.0081 31.8581 47.1225 31.8862 47.145 31.8956L57.2981 36.3806L67.1888 40.7475C67.4981 40.8825 68.085 41.2875 68.2144 41.5856C68.2988 41.7506 68.3456 41.9418 68.3456 42.1387L68.325 50.6775L68.3044 59.2162C68.3044 59.2406 68.1281 59.2612 68.1038 59.2612C68.0794 59.2612 67.8919 59.2406 67.8919 59.2162L66.915 58.8337L66.9319 51.5793L66.9356 50.3475L66.9525 42.9525L66.6938 42.0525L56.7731 37.6725L56.6531 37.62L46.8862 33.3093L46.9556 32.0906C46.9331 32.0775 46.9875 31.9012 46.9987 31.8806Z" fill="#DA951C"/>
<path d="M47.01 31.8956C47.0213 31.8713 47.1337 31.8994 47.1581 31.9106L57.3075 36.3956L67.1813 40.755C67.485 40.8881 68.0813 41.2931 68.2069 41.5875C68.2894 41.7506 68.3381 41.9381 68.3381 42.1331L68.3175 50.6588L68.2969 59.1844C68.2969 59.2106 68.1225 59.2294 68.0963 59.2294C68.07 59.2294 67.8863 59.2088 67.8863 59.1825L66.9263 58.7869L66.9431 51.5456L66.9469 50.3156L66.9656 42.9338L66.6975 42.0413L56.7938 37.6688L56.6719 37.6144L46.9237 33.3094L46.9706 32.1019C46.9463 32.0925 47.0006 31.9181 47.01 31.8956Z" fill="#DB961B"/>
<path d="M47.0231 31.9125C47.0344 31.8881 47.1469 31.9144 47.1713 31.9256L57.3169 36.4106L67.1719 40.7644C67.47 40.8956 68.0756 41.3025 68.1994 41.5913C68.2819 41.7525 68.3288 41.9381 68.3288 42.1294L68.3062 50.6419L68.2837 59.1544C68.2837 59.1806 68.1112 59.2012 68.085 59.2012C68.0588 59.2012 67.8769 59.1787 67.8769 59.1525L66.9319 58.7419L66.9506 51.5138L66.9544 50.2856L66.9731 42.9169L66.6956 42.0338L56.8088 37.6669L56.6869 37.6125L46.9575 33.315L46.9819 32.1188C46.9594 32.1075 47.0119 31.935 47.0231 31.9125Z" fill="#DB971B"/>
<path d="M47.0344 31.9275C47.0456 31.9031 47.1581 31.9256 47.1825 31.9387L57.3263 36.4218L67.1644 40.7681C67.4588 40.8975 68.0719 41.3062 68.1938 41.5893C68.2763 41.7487 68.3231 41.9306 68.3231 42.1218L68.3006 50.6212L68.2781 59.1206C68.2781 59.1468 68.1075 59.1693 68.0794 59.1693C68.0513 59.1693 67.8713 59.1468 67.8713 59.1187L66.9431 58.6931L66.9619 51.4781L66.9656 50.2537L66.9844 42.8981L66.6975 42.0243L56.8275 37.665L56.7056 37.6106L46.995 33.3206L46.9969 32.1356C46.9725 32.1243 47.0231 31.9537 47.0344 31.9275Z" fill="#DC981B"/>
<path d="M47.0475 31.9444C47.0587 31.9182 47.1713 31.9407 47.1975 31.9538L57.3375 36.4369L67.1569 40.7757C67.4456 40.9013 68.0681 41.3119 68.1881 41.5913C68.2706 41.7469 68.3156 41.9288 68.3156 42.1163L68.2931 50.6025L68.2706 59.0888C68.2706 59.1169 68.1019 59.1394 68.0737 59.1394C68.0456 59.1394 67.8675 59.1169 67.8675 59.0869L66.9562 58.6482L66.975 51.4444L66.9788 50.2219L66.9994 42.8794L66.7031 42.015L56.85 37.6613L56.7262 37.6069L47.0325 33.3244L47.0119 32.1507C46.9856 32.1394 47.0344 31.9707 47.0475 31.9444Z" fill="#DC991B"/>
<path d="M47.0587 31.9613C47.07 31.935 47.1825 31.9557 47.2087 31.9688L57.345 36.4519L67.1475 40.785C67.4306 40.9088 68.0625 41.3213 68.1806 41.595C68.2613 41.7488 68.3081 41.9269 68.3081 42.1125L68.2838 50.5857L68.2594 59.0588C68.2594 59.0869 68.0925 59.1113 68.0644 59.1113C68.0344 59.1113 67.86 59.0869 67.86 59.0569L66.9656 58.6031L66.9863 51.4125L66.99 50.1919L67.0106 42.8625L66.705 42.0075L56.8688 37.6594L56.745 37.605L47.07 33.33L47.0287 32.1675C46.9987 32.1544 47.0475 31.9875 47.0587 31.9613Z" fill="#DD9A1B"/>
<path d="M47.0719 31.9762C47.085 31.9481 47.1956 31.9687 47.2238 31.9837L57.3563 36.4669L67.14 40.7925C67.4175 40.9144 68.0588 41.3287 68.1731 41.5969C68.2538 41.7487 68.2988 41.9231 68.2988 42.1069L68.2744 50.565L68.25 59.0231C68.25 59.0531 68.085 59.0775 68.055 59.0775C68.025 59.0775 67.8506 59.0531 67.8506 59.0212L66.9731 58.5544L66.9938 51.3769L66.9975 50.1581L67.0181 42.8419L66.7031 41.9944L56.8838 37.6537L56.76 37.5994L47.1038 33.3319L47.04 32.1806C47.0119 32.1694 47.0588 32.0044 47.0719 31.9762Z" fill="#DE9B1B"/>
<path d="M47.0831 31.9931C47.0963 31.9649 47.2069 31.9837 47.235 31.9987L57.3638 36.4799L67.1288 40.7981C67.4006 40.9181 68.0513 41.3324 68.1638 41.5968C68.2444 41.7449 68.2894 41.9193 68.2894 42.0993L68.265 50.5443L68.2406 58.9893C68.2406 59.0193 68.0775 59.0456 68.0475 59.0456C68.0156 59.0456 67.845 59.0193 67.845 58.9874L66.9844 58.5056L67.005 51.3412L67.0088 50.1262L67.0313 42.8249L66.7069 41.9868L56.9044 37.6518L56.7788 37.5974L47.1413 33.3374L47.055 32.1974C47.025 32.1862 47.07 32.0212 47.0831 31.9931Z" fill="#DE9C1B"/>
<path d="M47.0944 32.01C47.1075 31.98 47.2163 31.9987 47.2463 32.0137L57.3713 36.495L67.1194 40.8075C67.3875 40.9256 68.0456 41.3419 68.1562 41.6006C68.235 41.7469 68.2819 41.9175 68.2819 42.0975L68.2556 50.5294L68.2294 58.9612C68.2294 58.9931 68.0681 59.0194 68.0362 59.0194C68.0044 59.0194 67.8338 58.9931 67.8338 58.9612L66.99 58.4662L67.0125 51.315L67.0163 50.1019L67.0388 42.8137L66.7031 41.985L56.9175 37.6575L56.7919 37.6012L47.1731 33.3469L47.0644 32.2181C47.0381 32.2012 47.0813 32.0381 47.0944 32.01Z" fill="#DF9D1B"/>
<path d="M47.1075 32.025C47.1206 31.995 47.2294 32.0119 47.2613 32.0269L57.3844 36.5082L67.1138 40.8132C67.3763 40.9275 68.0438 41.3457 68.1525 41.6007C68.2313 41.745 68.2763 41.9138 68.2763 42.09L68.25 50.5088L68.2238 58.9275C68.2238 58.9594 68.0644 58.9857 68.0325 58.9857C67.9988 58.9857 67.8319 58.9594 67.8319 58.9257L67.005 58.4157L67.0275 51.2775L67.0313 50.0663L67.0538 42.7913L66.7088 41.9719L56.94 37.65L56.8144 37.5938L47.2144 33.3469L47.0831 32.2294C47.0531 32.2163 47.0944 32.055 47.1075 32.025Z" fill="#E09E1A"/>
<path d="M47.1187 32.0419C47.1319 32.01 47.2406 32.0269 47.2725 32.0419L57.3919 36.5232L67.1044 40.8207C67.3613 40.9332 68.0381 41.3532 68.145 41.6025C68.2238 41.7432 68.2688 41.91 68.2688 42.0844L68.2406 50.49L68.2125 58.8938C68.2125 58.9276 68.055 58.9538 68.0213 58.9538C67.9875 58.9538 67.8225 58.9257 67.8225 58.8919L67.0125 58.3688L67.035 51.2438L67.0388 50.0344L67.0631 42.7725L66.7088 41.9625L56.9569 37.6482L56.8312 37.5919L47.25 33.3525L47.0981 32.2463C47.0662 32.2332 47.1056 32.0719 47.1187 32.0419Z" fill="#E09F1A"/>
<path d="M47.1319 32.0587C47.1469 32.0269 47.2538 32.0419 47.2856 32.0587L57.4012 36.54L67.095 40.8319C67.3462 40.9425 68.0325 41.3644 68.1356 41.6062C68.2125 41.745 68.2575 41.91 68.2575 42.0806L68.2294 50.4731L68.2012 58.8656C68.2012 58.8994 68.0456 58.9275 68.0119 58.9275C67.9762 58.9275 67.8131 58.8994 67.8131 58.8637L67.02 58.3256L67.0444 51.2137L67.0481 50.0081L67.0725 42.7594L66.7087 41.9569L56.9737 37.6481L56.8462 37.5919L47.2838 33.36L47.1094 32.265C47.0794 32.2481 47.1169 32.0887 47.1319 32.0587Z" fill="#E1A01A"/>
<path d="M47.1431 32.0738C47.1581 32.0419 47.265 32.055 47.2988 32.0719L57.4106 36.5513L67.0875 40.8356C67.3331 40.9444 68.0287 41.3663 68.13 41.6044C68.2069 41.7413 68.2519 41.9025 68.2519 42.0713L68.2237 50.4488L68.1956 58.8263C68.1956 58.8619 68.0419 58.89 68.0062 58.89C67.9706 58.89 67.8094 58.86 67.8094 58.8244L67.0312 58.275L67.0556 51.1763L67.0594 49.9725L67.0837 42.7369L66.7106 41.9438L56.9925 37.6407L56.865 37.5844L47.3213 33.36L47.1244 32.2763C47.0925 32.2632 47.13 32.1057 47.1431 32.0738Z" fill="#E1A11A"/>
<path d="M47.1562 32.0906C47.1712 32.0568 47.2781 32.07 47.3119 32.0868L57.42 36.5662L67.0781 40.8431C67.32 40.9481 68.0231 41.3737 68.1225 41.6062C68.1994 41.7412 68.2425 41.9006 68.2425 42.0675L68.2125 50.4318L68.1825 58.7962C68.1825 58.8318 68.0306 58.8618 67.995 58.8618C67.9575 58.8618 67.8 58.8318 67.8 58.7943L67.0406 58.2281L67.065 51.1425L67.0688 49.9406L67.095 42.72L66.7125 41.9362L57.0112 37.6406L56.8837 37.5843L47.3587 33.3675L47.1394 32.295C47.1056 32.2781 47.1412 32.1225 47.1562 32.0906Z" fill="#E2A21A"/>
<path d="M47.1675 32.1056C47.1825 32.0718 47.2894 32.0831 47.325 32.1L57.4294 36.5793L67.0706 40.8506C67.3069 40.9537 68.0194 41.3812 68.1169 41.6081C68.1937 41.7393 68.2369 41.8968 68.2369 42.0618L68.2069 50.4131L68.1769 58.7643C68.1769 58.8018 68.0269 58.8318 67.9894 58.8318C67.9519 58.8318 67.7944 58.8 67.7944 58.7625L67.0519 58.1812L67.0781 51.1087L67.0819 49.9087L67.1081 42.7012L66.7163 41.9268L57.0319 37.6368L56.9025 37.5787L47.3962 33.3675L47.1544 32.3062C47.1187 32.295 47.1525 32.1393 47.1675 32.1056Z" fill="#E3A31A"/>
<path d="M47.1806 32.1225C47.1956 32.0868 47.3025 32.0981 47.3381 32.115L57.4387 36.5943L67.0612 40.8581C67.2919 40.9593 68.0137 41.3868 68.1094 41.61C68.1844 41.7393 68.2294 41.895 68.2294 42.0562L68.1975 50.3943L68.1656 58.7325C68.1656 58.77 68.0175 58.8018 67.98 58.8018C67.9406 58.8018 67.7869 58.77 67.7869 58.7306L67.0612 58.1362L67.0875 51.0768L67.0912 49.8787L67.1175 42.6843L66.7162 41.9193L57.0487 37.6368L56.9194 37.5787L47.4319 33.375L47.1675 32.325C47.1319 32.31 47.1637 32.1562 47.1806 32.1225Z" fill="#E3A41A"/>
<path d="M47.1919 32.1394C47.2088 32.1038 47.3138 32.1131 47.3494 32.1319L57.4481 36.6094L67.0538 40.8656C67.2788 40.965 68.01 41.3944 68.1037 41.6119C68.1787 41.7394 68.2219 41.8913 68.2219 42.0506L68.19 50.3756L68.1581 58.7006C68.1581 58.74 68.0119 58.7719 67.9725 58.7719C67.9331 58.7719 67.7794 58.74 67.7794 58.6988L67.0688 58.0894L67.095 51.0431L67.0987 49.8488L67.1269 42.6675L66.7162 41.91L57.0656 37.6331L56.9362 37.575L47.4675 33.3788L47.1825 32.34C47.145 32.325 47.1769 32.175 47.1919 32.1394Z" fill="#E4A41A"/>
<path d="M47.205 32.1543C47.2219 32.1168 47.3269 32.1262 47.3644 32.1449L57.4594 36.6224L67.0463 40.8712C67.2656 40.9687 68.0063 41.3999 68.0963 41.6118C68.1713 41.7356 68.2144 41.8856 68.2144 42.0431L68.1825 50.3549L68.1506 58.6668C68.1506 58.7062 68.0063 58.7381 67.9669 58.7381C67.9256 58.7362 67.7756 58.7043 67.7756 58.6649L67.0819 58.0424L67.11 51.0093L67.1138 49.8168L67.1419 42.6487L66.7219 41.9006L57.0881 37.6293L56.9569 37.5712L47.5069 33.3824L47.1994 32.3549C47.1581 32.3399 47.1881 32.1918 47.205 32.1543Z" fill="#E5A519"/>
<path d="M47.2162 32.1713C47.2331 32.1338 47.3381 32.1413 47.3756 32.16L57.4669 36.6375L67.035 40.8806C67.2506 40.9744 67.9988 41.4075 68.0869 41.6156C68.16 41.7375 68.2031 41.8856 68.2031 42.0394L68.1694 50.3363L68.1356 58.6331C68.1356 58.6744 67.9931 58.7063 67.9519 58.7063C67.9106 58.7044 67.7625 58.6725 67.7625 58.6313L67.0856 57.9938L67.1137 50.9738L67.1194 49.7831L67.1475 42.6281L66.7163 41.8894L57.0994 37.6256L56.9681 37.5675L47.5369 33.3863L47.2069 32.37C47.1712 32.3569 47.1994 32.2088 47.2162 32.1713Z" fill="#E5A619"/>
<path d="M47.2294 32.1881C47.2463 32.1487 47.3513 32.1562 47.3888 32.175L57.4763 36.6525L67.0275 40.8881C67.2375 40.98 67.995 41.415 68.0813 41.6175C68.1544 41.7375 68.1975 41.8818 68.1975 42.0356L68.1638 50.3193L68.13 58.6031C68.13 58.6443 67.9894 58.6781 67.9481 58.6781C67.9069 58.6762 67.7588 58.6425 67.7588 58.6012L67.0988 57.9506L67.1269 50.9437L67.1325 49.755L67.1625 42.615L66.7219 41.8856L57.1219 37.6275L56.9906 37.5693L47.5781 33.3956L47.2256 32.3906C47.1844 32.3718 47.2106 32.2256 47.2294 32.1881Z" fill="#E6A719"/>
<path d="M47.2406 32.2031C47.2575 32.1638 47.3606 32.1694 47.4019 32.1881L57.4856 36.6638L67.0181 40.8919C67.2225 40.9819 67.9894 41.4169 68.0738 41.6156C68.1469 41.7319 68.19 41.8763 68.19 42.0263L68.1544 50.2969L68.1188 58.5675C68.1188 58.6106 67.98 58.6444 67.9369 58.6444C67.8938 58.6425 67.7494 58.6088 67.7494 58.5656L67.1063 57.9L67.1363 50.9063L67.1419 49.7213L67.1719 42.5944L66.7219 41.8744L57.1388 37.6238L57.0056 37.5656L47.61 33.3994L47.235 32.4056C47.1975 32.3869 47.2237 32.2425 47.2406 32.2031Z" fill="#E7A819"/>
<path d="M47.2537 32.22C47.2725 32.1788 47.3737 32.1844 47.415 32.205L57.495 36.6807L67.0106 40.9032C67.2094 40.9913 67.9856 41.4282 68.0681 41.6213C68.1413 41.7357 68.1825 41.8763 68.1825 42.0244L68.1469 50.2819L68.1112 58.5394C68.1112 58.5826 67.9744 58.6182 67.9312 58.6182C67.8881 58.6163 67.7456 58.5826 67.7456 58.5376L67.1194 57.8569L67.1494 50.8763L67.155 49.6932L67.185 42.5794L66.7256 41.8688L57.1594 37.6238L57.0262 37.5638L47.6494 33.4032L47.2519 32.4207C47.2106 32.4019 47.235 32.2594 47.2537 32.22Z" fill="#E7A919"/>
<path d="M47.265 32.2369C47.2838 32.1956 47.385 32.1994 47.4281 32.22L57.5063 36.6956L67.0031 40.9106C67.1963 40.995 67.9819 41.4356 68.0606 41.6231C68.1319 41.7356 68.175 41.8744 68.175 42.0187L68.1394 50.2631L68.1037 58.5075C68.1037 58.5525 67.9688 58.5881 67.9238 58.5881C67.8788 58.5862 67.7381 58.5506 67.7381 58.5056L67.1287 57.8119L67.1588 50.8444L67.1644 49.6631L67.1963 42.5625L66.7275 41.8594L57.1781 37.62L57.045 37.56L47.6869 33.4069L47.2687 32.4356C47.2237 32.4187 47.2463 32.2762 47.265 32.2369Z" fill="#E8AA19"/>
<path d="M47.2781 32.2519C47.2969 32.2106 47.3981 32.2125 47.4412 32.2331L57.5156 36.7088L66.9956 40.9163C67.185 40.9988 67.9781 41.4394 68.055 41.6231C68.1263 41.7338 68.1675 41.8688 68.1675 42.0113L68.13 50.2425L68.0925 58.4738C68.0925 58.5188 67.9594 58.5563 67.9144 58.5563C67.8694 58.5544 67.7306 58.5188 67.7306 58.4719L67.1381 57.7631L67.17 50.8088L67.1756 49.6294L67.2075 42.5419L66.7294 41.8481L57.1969 37.6163L57.0619 37.5563L47.7225 33.4106L47.2819 32.4506C47.2369 32.4338 47.2575 32.2931 47.2781 32.2519Z" fill="#E8AB19"/>
<path d="M47.2894 32.2688C47.3081 32.2256 47.4094 32.2275 47.4525 32.2481L57.5231 36.7238L66.9844 40.9256C67.1681 41.0063 67.9706 41.4488 68.0456 41.6269C68.1169 41.7338 68.1581 41.8688 68.1581 42.0094L68.1206 50.2275L68.0831 58.4456C68.0831 58.4925 67.9519 58.53 67.905 58.53C67.8581 58.5281 67.7213 58.4906 67.7213 58.4438L67.1456 57.7219L67.1775 50.7806L67.1831 49.6031L67.215 42.5288L66.7275 41.8444L57.2119 37.6181L57.0769 37.5581L47.7562 33.42L47.2931 32.4713C47.25 32.4488 47.2706 32.31 47.2894 32.2688Z" fill="#E9AC18"/>
<path d="M47.3025 32.2857C47.3212 32.2425 47.4225 32.2425 47.4675 32.265L57.5344 36.7388L66.9788 40.9332C67.1569 41.0119 67.9688 41.4563 68.0419 41.6288C68.1113 41.7338 68.1525 41.865 68.1525 42.0038L68.1131 50.2069L68.0738 58.41C68.0738 58.4569 67.9444 58.4944 67.8975 58.4944C67.8506 58.4925 67.7156 58.455 67.7156 58.4063L67.1569 57.6694L67.1888 50.7413L67.1944 49.5675L67.2281 42.5082L66.7313 41.8332L57.2325 37.6144L57.0975 37.5544L47.7956 33.4238L47.31 32.4863C47.2631 32.4638 47.2819 32.3269 47.3025 32.2857Z" fill="#EAAD18"/>
<path d="M47.3138 32.3007C47.3344 32.2557 47.4338 32.2557 47.4788 32.2782L57.5419 36.752L66.9675 40.9388C67.14 41.0138 67.9612 41.4601 68.0325 41.6288C68.1019 41.732 68.1431 41.8613 68.1431 41.9963L68.1037 50.1863L68.0644 58.3763C68.0644 58.4251 67.9369 58.4626 67.89 58.4626C67.8412 58.4607 67.71 58.4232 67.71 58.3726L67.1681 57.6226L67.2019 50.7076L67.2075 49.5357L67.2412 42.4895L66.735 41.8238L57.2531 37.6107L57.1162 37.5507L47.8331 33.4276L47.325 32.5013C47.2781 32.4807 47.2931 32.3438 47.3138 32.3007Z" fill="#EAAE18"/>
<path d="M47.325 32.3175C47.3456 32.2725 47.445 32.2707 47.49 32.2932L57.5494 36.7669L66.9562 40.9482C67.1231 41.0213 67.9537 41.4694 68.0212 41.6307C68.0906 41.73 68.1319 41.8575 68.1319 41.9907L68.0925 50.1675L68.0531 58.3444C68.0531 58.3932 67.9275 58.4325 67.8787 58.4325C67.83 58.4307 67.6987 58.3913 67.6987 58.3425L67.1737 57.5775L67.2075 50.6757L67.2131 49.5057L67.2469 42.4725L66.7294 41.8144L57.2644 37.6069L57.1275 37.545L47.8631 33.4275L47.3344 32.5125C47.2913 32.4957 47.3063 32.3607 47.325 32.3175Z" fill="#EBAF18"/>
<path d="M47.3381 32.3325C47.3587 32.2856 47.4581 32.2837 47.505 32.3062L57.5606 36.78L66.9506 40.9537C67.1138 41.025 67.95 41.475 68.0175 41.6306C68.085 41.7281 68.1263 41.8518 68.1263 41.9831L68.085 50.1468L68.0456 58.3125C68.0456 58.3631 67.9219 58.4025 67.8731 58.4025C67.8225 58.4006 67.695 58.3612 67.695 58.3106L67.1869 57.5325L67.2206 50.6437L67.2263 49.4756L67.2619 42.4556L66.735 41.8068L57.285 37.6068L57.1481 37.545L47.9025 33.435L47.3512 32.5312C47.3044 32.5106 47.3175 32.3793 47.3381 32.3325Z" fill="#ECB018"/>
<path d="M47.3494 32.3493C47.37 32.3025 47.4694 32.2987 47.5162 32.3212L57.57 36.7931L66.9413 40.9593C67.0988 41.0287 67.9444 41.4787 68.01 41.6306C68.0775 41.7262 68.1188 41.8481 68.1188 41.9775L68.0775 50.1281L68.0363 58.2787C68.0363 58.3293 67.9144 58.3706 67.8638 58.3706C67.8131 58.3687 67.6875 58.3275 67.6875 58.2768L67.1963 57.4837L67.2319 50.6081L67.2375 49.4437L67.2731 42.4368L66.7369 41.7975L57.3038 37.6031L57.165 37.5412L47.9381 33.4387L47.3644 32.5462C47.3175 32.5275 47.3288 32.3962 47.3494 32.3493Z" fill="#ECB118"/>
<path d="M47.3625 32.3663C47.3831 32.3175 47.4825 32.3138 47.5313 32.3382L57.5812 36.81L66.9356 40.9707C67.0875 41.0382 67.9425 41.49 68.0062 41.6363C68.0737 41.73 68.1131 41.8482 68.1131 41.9757L68.07 50.1132L68.0269 58.2507C68.0269 58.3032 67.9069 58.3444 67.8562 58.3444C67.8037 58.3426 67.68 58.3013 67.68 58.2488L67.2037 57.4407L67.2394 50.5782L67.245 49.4157L67.2806 42.4219L66.735 41.7919L57.3187 37.605L57.18 37.5432L47.9719 33.4482L47.3756 32.5669C47.3306 32.5425 47.34 32.4132 47.3625 32.3663Z" fill="#EDB218"/>
<path d="M47.3737 32.3812C47.3962 32.3325 47.4937 32.3269 47.5425 32.3512L57.5888 36.8231L66.9244 40.9762C67.0706 41.04 67.935 41.4956 67.9969 41.6362C68.0644 41.7262 68.1038 41.8444 68.1038 41.9681L68.0606 50.0906L68.0175 58.2131C68.0175 58.2656 67.8994 58.3087 67.8469 58.3087C67.7944 58.3068 67.6725 58.2656 67.6725 58.2112L67.2131 57.39L67.2488 50.5406L67.2544 49.38L67.2919 42.4012L66.7369 41.7806L57.3375 37.5994L57.1988 37.5375L48.0094 33.45L47.3906 32.58C47.3437 32.5575 47.3531 32.43 47.3737 32.3812Z" fill="#EDB318"/>
<path d="M47.3869 32.3982C47.4094 32.3494 47.5069 32.3419 47.5556 32.3663L57.5981 36.8382L66.9169 40.9838C67.0575 41.0457 67.9312 41.5013 67.9912 41.6382C68.0569 41.7263 68.0962 41.8407 68.0962 41.9625L68.0531 50.0719L68.01 58.1813C68.01 58.2357 67.8937 58.2788 67.8412 58.2788C67.7869 58.2769 67.6669 58.2338 67.6669 58.1794L67.2244 57.3432L67.2619 50.5069L67.2675 49.3482L67.305 42.3825L66.7406 41.7694L57.3581 37.5938L57.2175 37.5319L48.0469 33.4519L47.4056 32.5932C47.3569 32.5725 47.3644 32.4469 47.3869 32.3982Z" fill="#EEB417"/>
<path d="M47.3981 32.415C47.4206 32.3643 47.5163 32.3568 47.5688 32.3812L57.6075 36.8531L66.9075 40.9931C67.0444 41.0531 67.9256 41.5106 67.9819 41.6418C68.0475 41.7281 68.0869 41.8406 68.0869 41.9587L68.0419 50.055L67.9969 58.1512C67.9969 58.2056 67.8825 58.2487 67.8281 58.2487C67.7738 58.2468 67.6556 58.2037 67.6556 58.1475L67.23 57.2981L67.2675 50.475L67.2731 49.3181L67.3106 42.3656L66.7369 41.7618L57.375 37.5956L57.2344 37.5337L48.0825 33.4612L47.4206 32.6137C47.37 32.5893 47.3756 32.4637 47.3981 32.415Z" fill="#EFB517"/>
<path d="M47.4112 32.43C47.4337 32.3793 47.5294 32.37 47.5819 32.3943L57.6169 36.8643L66.9 40.9968C67.0313 41.055 67.9219 41.5125 67.9763 41.64C68.0419 41.7225 68.0813 41.8331 68.0813 41.9512L68.0362 50.0343L67.9913 58.1175C67.9913 58.1718 67.8788 58.2168 67.8244 58.2168C67.7681 58.215 67.6538 58.17 67.6538 58.1137L67.245 57.2493L67.2825 50.4393L67.2881 49.2862L67.3275 42.3468L66.7444 41.7525L57.3956 37.59L57.255 37.5262L48.1219 33.4593L47.4375 32.6231C47.3831 32.6043 47.3869 32.4806 47.4112 32.43Z" fill="#EFB617"/>
<path d="M47.4225 32.4469C47.445 32.3944 47.5406 32.385 47.5931 32.4112L57.6263 36.8812L66.8906 41.0062C67.0163 41.0606 67.9163 41.5219 67.9688 41.6437C68.0325 41.7244 68.0719 41.8331 68.0719 41.9475L68.025 50.0175L67.9781 58.0875C67.9781 58.1437 67.8675 58.1887 67.8113 58.1887C67.755 58.1869 67.6406 58.1419 67.6406 58.0837L67.2488 57.2062L67.2881 50.4094L67.2956 49.2581L67.335 42.3319L66.7425 41.7469L57.4106 37.5919L57.2681 37.5281L48.1538 33.4687L47.4469 32.6437C47.3963 32.6194 47.4 32.4975 47.4225 32.4469Z" fill="#F0B717"/>
<path d="M47.4356 32.4637C47.46 32.4112 47.5538 32.4 47.6081 32.4262L57.6375 36.8962L66.885 41.0156C67.005 41.0681 67.9144 41.5312 67.965 41.6475C68.0288 41.7262 68.0681 41.8312 68.0681 41.9437L68.0213 50.0006L67.9744 58.0575C67.9744 58.1137 67.8656 58.1606 67.8094 58.1606C67.7513 58.1587 67.6406 58.1137 67.6406 58.0537L67.2656 57.1612L67.305 50.3775L67.3125 49.2281L67.3519 42.315L66.75 41.7393L57.435 37.59L57.2925 37.5262L48.195 33.4743L47.4656 32.6606C47.4094 32.6343 47.4112 32.5143 47.4356 32.4637Z" fill="#F1B817"/>
<path d="M47.4469 32.4787C47.4712 32.4243 47.565 32.4131 47.6194 32.4393L57.645 36.9093L66.8738 41.0212C66.99 41.0718 67.9069 41.535 67.9556 41.6475C68.0194 41.7225 68.0569 41.8274 68.0569 41.9362L68.01 49.9781L67.9631 58.0199C67.9631 58.0781 67.8563 58.1249 67.7981 58.1249C67.74 58.1231 67.6313 58.0762 67.6313 58.0181L67.2731 57.1124L67.3125 50.3418L67.32 49.1943L67.3612 42.2962L66.7481 41.7281L57.45 37.5862L57.3075 37.5225L48.2287 33.4781L47.4769 32.6756C47.4225 32.6512 47.4225 32.5312 47.4469 32.4787Z" fill="#F1B917"/>
<path d="M47.46 32.4956C47.4844 32.4412 47.5781 32.4281 47.6344 32.4543L57.6562 36.9225L66.8662 41.0268C66.9769 41.0756 67.9031 41.5406 67.9481 41.6475C68.01 41.7206 68.0494 41.8218 68.0494 41.9287L68.0006 49.9575L67.9519 57.9862C67.9519 58.0443 67.8469 58.0931 67.7887 58.0931C67.7287 58.0912 67.6219 58.0443 67.6219 57.9843L67.2806 57.0637L67.3219 50.3062L67.3294 49.1625L67.3706 42.2775L66.7481 41.7187L57.4669 37.5825L57.3225 37.5187L48.2625 33.4818L47.4881 32.6906C47.4356 32.6662 47.4356 32.5481 47.46 32.4956Z" fill="#F2BA17"/>
<path d="M47.4713 32.5125C47.4956 32.4563 47.5894 32.4432 47.6456 32.4694L57.6638 36.9375L66.8569 41.0363C66.9619 41.0832 67.8975 41.55 67.9406 41.6513C68.0025 41.7225 68.04 41.82 68.04 41.925L67.9913 49.9407L67.9425 57.9563C67.9425 58.0163 67.8394 58.065 67.7794 58.065C67.7194 58.0632 67.6144 58.0144 67.6144 57.9544L67.29 57.0207L67.3313 50.2763L67.3388 49.1344L67.38 42.2625L66.75 41.7113L57.4856 37.5807L57.3413 37.5169L48.3 33.4875L47.505 32.7075C47.4488 32.6813 47.4469 32.565 47.4713 32.5125Z" fill="#F2BB17"/>
<path d="M47.4844 32.5275C47.5087 32.4713 47.6025 32.4563 47.6587 32.4844L57.6731 36.9525L66.8475 41.0438C66.9469 41.0869 67.8919 41.5557 67.9331 41.6532C67.995 41.7225 68.0325 41.8182 68.0325 41.9213L67.9819 49.9238L67.9312 57.9263C67.9312 57.9863 67.83 58.0369 67.77 58.0369C67.7081 58.035 67.605 57.9863 67.605 57.9244L67.2975 56.9756L67.3388 50.2444L67.3462 49.1044L67.3894 42.2457L66.75 41.7019L57.5025 37.5788L57.3581 37.5132L48.3356 33.4894L47.5181 32.7207C47.4619 32.6963 47.4581 32.5819 47.4844 32.5275Z" fill="#F3BC16"/>
<path d="M47.4956 32.5444C47.5219 32.4862 47.6138 32.4712 47.6719 32.4994L57.6844 36.9675L66.8419 41.0512C66.9356 41.0925 67.89 41.5631 67.9294 41.655C67.9912 41.7206 68.0287 41.8144 68.0287 41.9156L67.9781 49.905L67.9275 57.8944C67.9275 57.9562 67.8281 58.005 67.7662 58.005C67.7044 58.0031 67.6031 57.9544 67.6031 57.8906L67.3125 56.9269L67.3556 50.2087L67.3631 49.0706L67.4062 42.225L66.7556 41.6944L57.525 37.5769L57.375 37.5112L48.3713 33.495L47.5313 32.7375C47.475 32.7131 47.4694 32.6006 47.4956 32.5444Z" fill="#F4BD16"/>
<path d="M47.5088 32.5593C47.535 32.5012 47.6269 32.4843 47.685 32.5124L57.6937 36.9787L66.8325 41.0568C66.9225 41.0962 67.8844 41.5687 67.9219 41.6549C67.9819 41.7187 68.0194 41.8106 68.0194 41.9081L67.9687 49.8843L67.9181 57.8606C67.9181 57.9224 67.8206 57.9731 67.7587 57.9731C67.695 57.9712 67.5975 57.9206 67.5975 57.8568L67.3237 56.88L67.3669 50.1749L67.3744 49.0387L67.4175 42.2062L66.7575 41.6849L57.5437 37.5749L57.3975 37.5093L48.4125 33.5006L47.55 32.7543C47.49 32.7281 47.4825 32.6174 47.5088 32.5593Z" fill="#F4BE16"/>
<path d="M47.52 32.5763C47.5462 32.5181 47.6381 32.4994 47.6962 32.5275L57.7012 36.9938L66.8231 41.0644C66.9075 41.1019 67.8787 41.5744 67.9125 41.655C67.9725 41.7169 68.01 41.805 68.01 41.9006L67.9575 49.8619L67.905 57.8231C67.905 57.8869 67.8094 57.9375 67.7456 57.9375C67.6819 57.9356 67.5844 57.885 67.5844 57.8194L67.3275 56.8275L67.3706 50.1356L67.3781 49.0031L67.4231 42.1856L66.7537 41.6719L57.5569 37.5675L57.4106 37.5019L48.4444 33.5006L47.5594 32.7656C47.5031 32.7431 47.4937 32.6344 47.52 32.5763Z" fill="#F5BF16"/>
<path d="M47.5312 32.5931C47.5575 32.5331 47.6494 32.5144 47.7094 32.5425L57.7106 37.0087L66.8137 41.0718C66.8925 41.1056 67.8731 41.5818 67.905 41.6568C67.965 41.715 68.0006 41.8031 68.0006 41.895L67.9481 49.8431L67.8956 57.7912C67.8956 57.855 67.8019 57.9075 67.7381 57.9075C67.6725 57.9056 67.5787 57.8531 67.5787 57.7875L67.3369 56.7825L67.3819 50.1037L67.3894 48.9731L67.4344 42.1687L66.7556 41.6643L57.5756 37.5656L57.4275 37.5L48.48 33.5062L47.5744 32.7825C47.5162 32.7581 47.505 32.6512 47.5312 32.5931Z" fill="#F6C016"/>
<path d="M47.5444 32.6081C47.5706 32.5481 47.6606 32.5275 47.7225 32.5575L57.72 37.0237L66.8062 41.0812C66.8794 41.1131 67.8694 41.5893 67.8994 41.6606C67.9575 41.7168 67.995 41.8012 67.995 41.8931L67.9406 49.8281L67.8862 57.7631C67.8862 57.8287 67.7944 57.8812 67.7287 57.8812C67.6631 57.8794 67.5712 57.8269 67.5712 57.7594L67.3462 56.7394L67.3912 50.0737L67.3987 48.945L67.4456 42.1537L66.7575 41.6587L57.5944 37.5675L57.4462 37.5L48.5175 33.5137L47.5894 32.8012C47.5294 32.775 47.5163 32.6681 47.5444 32.6081Z" fill="#F6C116"/>
<path d="M47.5556 32.625C47.5838 32.5632 47.6719 32.5425 47.7356 32.5725L57.7294 37.0388L66.7969 41.0888C66.8644 41.1188 67.8637 41.5969 67.8919 41.6625C67.95 41.7169 67.9875 41.7994 67.9875 41.8875L67.9331 49.8094L67.8787 57.7313C67.8787 57.7969 67.7887 57.8513 67.7231 57.8513C67.6556 57.8494 67.5656 57.7969 67.5656 57.7275L67.3575 56.6944L67.4025 50.0419L67.41 48.915L67.4569 42.1369L66.7594 41.6513L57.6131 37.5657L57.465 37.5L48.555 33.5213L47.6044 32.82C47.5425 32.79 47.5294 32.685 47.5556 32.625Z" fill="#F7C216"/>
<path d="M47.5688 32.6419C47.5969 32.58 47.685 32.5575 47.7488 32.5875L57.7388 37.0519L66.7875 41.0944C66.8513 41.1225 67.8581 41.6025 67.8844 41.6625C67.9425 41.7131 67.9781 41.7938 67.9781 41.88L67.9238 49.7888L67.8694 57.6975C67.8694 57.765 67.7813 57.8194 67.7156 57.8194C67.6481 57.8175 67.56 57.7631 67.56 57.6956L67.3688 56.6475L67.4156 50.0081L67.4231 48.885L67.47 42.12L66.7613 41.6438L57.6319 37.5656L57.4819 37.4981L48.5906 33.525L47.6175 32.835C47.5556 32.805 47.5406 32.7019 47.5688 32.6419Z" fill="#F7C316"/>
<path d="M47.58 32.6569C47.6081 32.5932 47.6963 32.5707 47.76 32.6007L57.7481 37.065L66.78 41.1019C66.8381 41.1263 67.8544 41.6082 67.8787 41.6644C67.935 41.7132 67.9725 41.7919 67.9725 41.8744L67.9162 49.77L67.86 57.6657C67.86 57.7332 67.7737 57.7894 67.7062 57.7894C67.6369 57.7875 67.5506 57.7332 67.5506 57.6638L67.3762 56.6025L67.4231 49.9763L67.4306 48.855L67.4794 42.1032L66.7612 41.6344L57.6487 37.5619L57.4987 37.4944L48.6263 33.5288L47.6306 32.85C47.5688 32.8219 47.5519 32.7188 47.58 32.6569Z" fill="#F8C415"/>
<path d="M47.5931 32.6738C47.6212 32.61 47.7094 32.5857 47.775 32.6157L57.7594 37.08L66.7725 41.1094C66.825 41.1319 67.8506 41.6157 67.8713 41.6663C67.9275 41.7132 67.9631 41.7881 67.9631 41.8688L67.9069 49.7494L67.8506 57.63C67.8506 57.6994 67.7662 57.7538 67.6987 57.7538C67.6294 57.7519 67.545 57.6956 67.545 57.6263L67.3875 56.55L67.4344 49.9369L67.4419 48.8175L67.4906 42.0788L66.7631 41.6194L57.6675 37.5525L57.5175 37.485L48.6638 33.5269L47.6456 32.8594C47.5819 32.8369 47.565 32.7357 47.5931 32.6738Z" fill="#F9C515"/>
<path d="M47.6044 32.6906C47.6344 32.6249 47.7206 32.6006 47.7863 32.6324L57.7669 37.0968L66.7631 41.1187C66.81 41.1393 67.845 41.6249 67.8637 41.6699C67.92 41.7149 67.9556 41.7862 67.9556 41.8668L67.8975 49.7343L67.8394 57.6018C67.8394 57.6712 67.7569 57.7274 67.6875 57.7274C67.6162 57.7256 67.5356 57.6693 67.5356 57.5981L67.395 56.5068L67.4437 49.9068L67.4512 48.7893L67.5 42.0656L66.7631 41.6156L57.6844 37.5562L57.5325 37.4887L48.6975 33.5381L47.6588 32.8818C47.595 32.8518 47.5763 32.7524 47.6044 32.6906Z" fill="#F9C615"/>
<path d="M47.6175 32.7056C47.6475 32.64 47.7338 32.6137 47.7994 32.6456L57.7762 37.1081L66.7537 41.1244C66.795 41.1431 67.8394 41.6287 67.8562 41.67C67.9125 41.7112 67.9462 41.7825 67.9462 41.8594L67.8881 49.7137L67.83 57.5681C67.83 57.6394 67.7494 57.6956 67.68 57.6956C67.6087 57.6937 67.5281 57.6375 67.5281 57.5644L67.4044 56.46L67.4531 49.8731L67.4606 48.7575L67.5112 42.0469L66.765 41.6062L57.7031 37.5525L57.5512 37.485L48.735 33.5419L47.6738 32.8969C47.6081 32.8669 47.5875 32.7694 47.6175 32.7056Z" fill="#FAC715"/>
<path d="M47.6287 32.7225C47.6587 32.6569 47.745 32.6287 47.8125 32.6606L57.7856 37.1231L66.7463 41.1319C66.7838 41.1487 67.8356 41.6362 67.8506 41.6719C67.905 41.7112 67.9406 41.7787 67.9406 41.8537L67.8825 49.695L67.8244 57.5362C67.8244 57.6075 67.7456 57.6656 67.6744 57.6656C67.6012 57.6637 67.5244 57.6056 67.5244 57.5325L67.4175 56.4131L67.4662 49.8394L67.4738 48.7275L67.5244 42.03L66.7688 41.5987L57.7237 37.5525L57.5719 37.485L48.7725 33.5494L47.6887 32.9156C47.6212 32.8837 47.5987 32.7862 47.6287 32.7225Z" fill="#FBC815"/>
<path d="M47.6419 32.7375C47.6719 32.67 47.7581 32.6419 47.8256 32.6738L57.795 37.1363L66.7369 41.1375C66.7688 41.1506 67.83 41.6419 67.8431 41.6719C67.8975 41.7094 67.9331 41.775 67.9331 41.8463L67.8731 49.6744L67.8131 57.5025C67.8131 57.5756 67.7363 57.6338 67.665 57.6338C67.5919 57.6319 67.5169 57.5738 67.5169 57.4988L67.4269 56.3663L67.4775 49.8056L67.4869 48.6956L67.5375 42.0113L66.7725 41.5875L57.7444 37.5469L57.5906 37.4775L48.81 33.5475L47.7037 32.925C47.6344 32.8988 47.6119 32.8031 47.6419 32.7375Z" fill="#FBC915"/>
<path d="M47.6531 32.7544C47.6831 32.6869 47.7694 32.6569 47.8387 32.6888L57.8063 37.1513L66.7313 41.1469C66.7575 41.1582 67.8281 41.6494 67.8375 41.6757C67.8919 41.7094 67.9256 41.7732 67.9256 41.8425L67.8656 49.6575L67.8056 57.4725C67.8056 57.5457 67.7306 57.6057 67.6575 57.6057C67.5825 57.6038 67.5094 57.5438 67.5094 57.4688L67.4363 56.3213L67.4869 49.7738L67.4963 48.6657L67.5488 41.9944L66.7744 41.58L57.7631 37.545L57.6094 37.4757L48.8475 33.5532L47.7187 32.9419C47.6475 32.9138 47.6231 32.8219 47.6531 32.7544Z" fill="#FCCA15"/>
<path d="M47.6663 32.7713C47.6981 32.7019 47.7825 32.6719 47.8519 32.7057L57.8156 37.1682L66.7219 41.1563C66.7425 41.1657 67.8225 41.6588 67.83 41.6794C67.8825 41.7113 67.9181 41.7732 67.9181 41.8388L67.8562 49.6407L67.7944 57.4425C67.7944 57.5175 67.7212 57.5775 67.6481 57.5775C67.5712 57.5719 67.5 57.5119 67.5 57.435L67.4437 56.2744L67.4944 49.74L67.5037 48.6338L67.5562 41.9757L66.7725 41.5707L57.7781 37.5432L57.6244 37.4738L48.8813 33.5588L47.73 32.9588C47.6606 32.9288 47.6344 32.8388 47.6663 32.7713Z" fill="#FCCB15"/>
<path d="M47.6775 32.7862C47.7094 32.7169 47.7937 32.685 47.8631 32.7187L57.8231 37.1794L66.7125 41.16C66.7275 41.1675 67.8169 41.6625 67.8225 41.6775C67.875 41.7075 67.9087 41.7656 67.9087 41.8312L67.8469 49.6181L67.785 57.405C67.785 57.48 67.7138 57.5419 67.6388 57.5419C67.5619 57.54 67.4925 57.48 67.4925 57.4031L67.4531 56.2275L67.5056 49.7062L67.515 48.6037L67.5675 41.9606L66.7744 41.565L57.7969 37.5431L57.6412 37.4737L48.9169 33.5662L47.745 32.9775C47.6738 32.9456 47.6456 32.8556 47.6775 32.7862Z" fill="#FDCC14"/>
<path d="M47.6906 32.8031C47.7225 32.7318 47.8069 32.7 47.8781 32.7337L57.8344 37.1943L66.705 41.1675C66.7163 41.1712 67.8131 41.6681 67.8169 41.6793C67.8694 41.7056 67.9031 41.7637 67.9031 41.8256L67.8413 49.5993L67.7794 57.3731C67.7794 57.45 67.71 57.51 67.635 57.51C67.5581 57.5081 67.4906 57.4462 67.4906 57.3693L67.4681 56.1806L67.5206 49.6725L67.53 48.5718L67.5844 41.9418L66.78 41.5556L57.8194 37.5412L57.6638 37.4718L48.9581 33.5718L47.7638 32.9943C47.6869 32.9606 47.6588 32.8725 47.6906 32.8031Z" fill="#FECD14"/>
<path d="M47.7019 32.82C47.7337 32.7488 47.8162 32.715 47.8894 32.7488L57.8419 37.2094L66.6937 41.1769C66.6994 41.1788 67.8037 41.6775 67.8075 41.6831C67.86 41.7075 67.8919 41.7619 67.8919 41.8219L67.8281 49.5825L67.7644 57.3431C67.7644 57.42 67.6969 57.4819 67.62 57.4819C67.5412 57.48 67.4775 57.4181 67.4775 57.3394L67.47 56.1356L67.5225 49.6406L67.5319 48.5419L67.5862 41.925L66.7725 41.5463L57.8287 37.5375L57.6731 37.4681L48.9862 33.5756L47.7694 33.0094C47.7 32.9756 47.67 32.8894 47.7019 32.82Z" fill="#FECE14"/>
<path d="M67.6144 57.45C67.5337 57.4481 67.4719 57.3843 67.4719 57.3056L67.5356 49.605L67.5994 41.9043L57.6919 37.4625L47.7844 33.0206C47.7131 32.9887 47.6813 32.9043 47.7131 32.8331C47.745 32.76 47.8275 32.7262 47.9006 32.76L57.8494 37.2206L67.7981 41.6812C67.8487 41.7037 67.8825 41.7562 67.8825 41.8125L67.8187 49.56L67.755 57.3075C67.7569 57.3862 67.6931 57.45 67.6144 57.45Z" fill="#FFCF14"/>
<path d="M67.545 62.7638C69.1863 62.7638 70.5169 61.4333 70.5169 59.7919C70.5169 58.1506 69.1863 56.8201 67.545 56.8201C65.9037 56.8201 64.5731 58.1506 64.5731 59.7919C64.5731 61.4333 65.9037 62.7638 67.545 62.7638Z" fill="url(#paint3_radial)"/>
<path d="M49.1456 30.9656C48.4875 30.255 46.8825 29.7506 45 29.7506C43.1175 29.7506 41.5125 30.255 40.8544 30.9656H40.53V31.6781C40.53 32.7431 42.5306 33.6056 45 33.6056C47.4694 33.6056 49.47 32.7431 49.47 31.6781V30.9656H49.1456Z" fill="#262626"/>
<path d="M45 32.8931C47.4687 32.8931 49.47 32.0301 49.47 30.9656C49.47 29.9011 47.4687 29.0381 45 29.0381C42.5313 29.0381 40.53 29.9011 40.53 30.9656C40.53 32.0301 42.5313 32.8931 45 32.8931Z" fill="url(#paint4_radial)"/>
<defs>
<radialGradient id="paint0_radial" cx="0" cy="0" r="1" gradientUnits="userSpaceOnUse" gradientTransform="translate(45.18 64.7121) scale(26.9644 21.0592)">
<stop stop-color="#FD3D00"/>
<stop offset="0.279" stop-color="#FD3D00"/>
<stop offset="0.766" stop-color="#FD3D00"/>
<stop offset="1" stop-color="#FD3D00"/>
</radialGradient>
<radialGradient id="paint1_radial" cx="0" cy="0" r="1" gradientUnits="userSpaceOnUse" gradientTransform="translate(67.355 70.9803) scale(5.94419 8.63575)">
<stop stop-color="#FFCF14"/>
<stop offset="0.186" stop-color="#FAC715"/>
<stop offset="0.475" stop-color="#ECB118"/>
<stop offset="0.828" stop-color="#D68E1C"/>
<stop offset="1" stop-color="#C97A1F"/>
</radialGradient>
<radialGradient id="paint2_radial" cx="0" cy="0" r="1" gradientUnits="userSpaceOnUse" gradientTransform="translate(45.3713 50.2464) scale(74.4206 38.7657)">
<stop stop-color="#FD3D00"/>
<stop offset="0.2789" stop-color="#FD3D00"/>
<stop offset="0.279" stop-color="#FD3D00"/>
<stop offset="0.766" stop-color="#FD3D00"/>
<stop offset="1" stop-color="#FD3D00"/>
</radialGradient>
<radialGradient id="paint3_radial" cx="0" cy="0" r="1" gradientUnits="userSpaceOnUse" gradientTransform="translate(67.545 59.7911) scale(2.97187 2.85478)">
<stop offset="0.148" stop-color="#FFCF14"/>
<stop offset="0.355" stop-color="#FDCC14"/>
<stop offset="0.533" stop-color="#F6C116"/>
<stop offset="0.7" stop-color="#EBAF18"/>
<stop offset="0.859" stop-color="#DB971B"/>
<stop offset="1" stop-color="#C97A1F"/>
</radialGradient>
<radialGradient id="paint4_radial" cx="0" cy="0" r="1" gradientUnits="userSpaceOnUse" gradientTransform="translate(45 30.9663) scale(4.845 2.06397)">
<stop/>
<stop offset="0.279" stop-color="#2D2D2D"/>
<stop offset="0.766" stop-color="#101010"/>
<stop offset="1"/>
</radialGradient>
</defs>
</svg>
