<svg width="70" height="70" viewBox="0 0 70 70" fill="none" xmlns="http://www.w3.org/2000/svg">
<circle cx="35" cy="35" r="35" fill="#FF6F00" fill-opacity="0.5"/>
<g clip-path="url(#clip0)">
<path d="M41.3 35.4667H43.6333V31.9667H41.1017C41.2242 33.0097 41.3 34.1705 41.3 35.4667ZM24.9667 31.9667C24.9667 35.3418 24.9667 35.4667 24.9667 35.4667H27.3C27.3 33.7867 27.7492 32.7052 28.4853 31.9667H24.9667Z" fill="#FF6F00"/>
<path d="M34.3 47.1333C27.3 47.1333 26.1334 40.1333 26.1334 40.1333C26.1334 40.1333 23.8 39.55 23.8 36.6333V35.4667C23.8 34.8227 24.3227 34.3 24.9667 34.3H26.1334M34.3 47.1333C41.3 47.1333 42.4667 40.1333 42.4667 40.1333C42.4667 40.1333 44.8 39.55 44.8 36.6333V35.4667C44.8 34.8227 44.2774 34.3 43.6334 34.3H42.4667L34.3 47.1333Z" stroke="#FF6F00" stroke-width="2" stroke-miterlimit="10" stroke-linecap="round"/>
<path d="M50.6334 27.3C50.3239 27.3 50.0272 27.4229 49.8084 27.6417C49.5896 27.8605 49.4667 28.1573 49.4667 28.4667C49.4667 28.7761 49.5896 29.0728 49.8084 29.2916C50.0272 29.5104 50.3239 29.6333 50.6334 29.6333C50.9428 29.6333 51.2395 29.5104 51.4583 29.2916C51.6771 29.0728 51.8 28.7761 51.8 28.4667C51.8 28.1573 51.6771 27.8605 51.4583 27.6417C51.2395 27.4229 50.9428 27.3 50.6334 27.3ZM17.9667 27.3C17.6573 27.3 17.3605 27.4229 17.1417 27.6417C16.9229 27.8605 16.8 28.1573 16.8 28.4667C16.8 28.7761 16.9229 29.0728 17.1417 29.2916C17.3605 29.5104 17.6573 29.6333 17.9667 29.6333C18.2761 29.6333 18.5729 29.5104 18.7916 29.2916C19.0104 29.0728 19.1334 28.7761 19.1334 28.4667C19.1334 28.1573 19.0104 27.8605 18.7916 27.6417C18.5729 27.4229 18.2761 27.3 17.9667 27.3ZM34.3 17.9667C33.9906 17.9667 33.6939 18.0896 33.4751 18.3084C33.2563 18.5272 33.1334 18.8239 33.1334 19.1333C33.1334 19.4428 33.2563 19.7395 33.4751 19.9583C33.6939 20.1771 33.9906 20.3 34.3 20.3C34.6094 20.3 34.9062 20.1771 35.125 19.9583C35.3438 19.7395 35.4667 19.4428 35.4667 19.1333C35.4667 18.8239 35.3438 18.5272 35.125 18.3084C34.9062 18.0896 34.6094 17.9667 34.3 17.9667Z" fill="#FF6F00"/>
<path d="M34.8834 18.1125L34.3 19.1333L33.7167 18.1125L17.3834 27.4458L17.6004 29.575L22.6334 31.6633V29.3732C22.6334 28.5927 23.023 27.8647 23.6729 27.4318C24.0509 27.1798 27.566 24.9667 34.3 24.9667C41.034 24.9667 44.5492 27.1798 44.9272 27.433C45.577 27.8658 45.9667 28.5938 45.9667 29.3743V31.6645L50.9997 29.575L51.2167 27.4458L34.8834 18.1125Z" fill="#FF6F00"/>
<path d="M34.3 27.3C28.0782 27.3 24.9667 29.3743 24.9667 29.3743V34.6897C24.9667 34.6897 28.0782 32.6153 34.3 32.6153C40.5218 32.6153 43.6333 34.6897 43.6333 34.6897V29.3743C43.6333 29.3743 40.5218 27.3 34.3 27.3Z" fill="#FF6F00"/>
<path d="M49.4667 28.4667V43.6333" stroke="#FF6F00" stroke-width="2" stroke-miterlimit="10" stroke-linecap="round"/>
<path d="M51.8 44.8C51.8 46.0892 49.4667 49.4667 49.4667 49.4667C49.4667 49.4667 47.1334 46.0892 47.1334 44.8C47.1334 43.5108 48.1775 42.4667 49.4667 42.4667C50.7559 42.4667 51.8 43.5108 51.8 44.8Z" fill="#FF6F00"/>
</g>
<defs>
<clipPath id="clip0">
<rect width="35" height="35" fill="white" transform="translate(16.8 16.8)"/>
</clipPath>
</defs>
</svg>
