<svg width="30" height="30" viewBox="0 0 30 30" fill="none" xmlns="http://www.w3.org/2000/svg">
<path d="M21.8207 17.5074L28.2631 20.8668L27.3961 22.5294L20.9538 19.17L21.8207 17.5074Z" fill="#FAEFDE"/>
<path d="M8.89355 3.00168L11.7272 10.4145L9.97579 11.084L7.14215 3.67117L8.89355 3.00168Z" fill="#FAEFDE"/>
<path d="M7.03122 3.28125L10.3125 11.25L9.37497 13.125L13.5937 18.75L18.75 21.0938L20.625 19.2188L27.6562 22.5L26.7187 25.3125L21.5625 26.7188L12.1875 22.9688C12.1875 22.9688 5.22184 17.7797 3.28122 11.7188C2.23122 8.4375 4.68747 4.6875 4.68747 4.6875L7.03122 3.28125Z" fill="#FD8467"/>
<path d="M19.6875 24.0141C15.0235 22.0688 10.3734 17.9625 6.58595 12.4406L6.41251 12.1875L6.37032 12.1313C5.16623 10.5142 4.2497 8.70172 3.66095 6.77345C3.54845 6.36095 3.02814 6.99376 3.02814 7.9547C3.02814 10.6406 4.21876 13.7813 5.18907 15.1313L5.22657 15.1781L5.37657 15.3938C8.61564 20.1234 12.6 23.6391 16.5891 25.3125C21.9984 27.5672 23.8735 26.7984 24.9047 26.5781C25.336 26.4844 25.5844 26.0109 25.1906 25.9219C23.308 25.4348 21.4677 24.7968 19.6875 24.0141V24.0141Z" fill="#FD8467"/>
<path d="M28.3922 20.3953C28.1316 20.0495 27.7719 19.7911 27.361 19.6547L27.0141 19.4859C26.9766 19.4859 23.4188 17.6859 22.7625 17.4562C22.401 17.2932 21.9926 17.2669 21.6132 17.3825C21.2338 17.498 20.9093 17.7475 20.7 18.0844L20.4422 18.45C20.024 19.0699 19.5718 19.6661 19.0875 20.2359C18.9571 20.3501 18.7958 20.4231 18.6239 20.4457C18.452 20.4682 18.2773 20.4392 18.1219 20.3625L17.925 20.2828C16.2143 19.5978 14.6455 18.6012 13.2985 17.3437C11.9918 16.1214 10.8692 14.7162 9.96564 13.1719C9.78283 12.8578 9.85783 12.7453 10.1719 12.375C10.3406 12.1641 10.5047 11.9906 10.6735 11.8125C10.8422 11.6344 10.9453 11.5219 11.0813 11.3437L11.1422 11.2687C11.4176 10.9866 11.6483 10.6642 11.8266 10.3125C11.9353 10.0632 11.9848 9.79198 11.9709 9.52031C11.9571 9.24863 11.8804 8.98388 11.7469 8.74687C11.6438 8.53125 10.9219 6.76406 10.3922 5.46562L9.84377 4.17656C9.37502 2.97187 8.85939 2.86875 8.10939 2.83593C7.88908 2.83593 7.64064 2.8125 7.37345 2.8125C6.91798 2.79169 6.46288 2.86089 6.03417 3.01612C5.60547 3.17136 5.21157 3.40959 4.87501 3.71718L4.82345 3.75C4.08735 4.45279 3.50742 5.30265 3.12139 6.24432C2.73535 7.18599 2.55185 8.19837 2.58283 9.21562C2.58283 11.925 4.19064 14.5312 5.15626 15.8625L5.19376 15.9141L5.31095 16.0828C8.35314 20.5219 12.1172 23.8359 15.9047 25.4109C19.2703 26.8172 21.061 27.1875 22.2656 27.1875C22.7104 27.1862 23.1537 27.1359 23.5875 27.0375C25.336 26.6578 27.5016 25.3734 28.0781 23.7562C28.5375 22.4016 28.6828 20.9016 28.3922 20.3953ZM22.4391 18.3328C22.9406 18.5062 25.7203 19.8703 26.5922 20.3203L26.9531 20.4984C27.1687 20.5868 27.3732 20.7001 27.5625 20.8359C27.6243 21.2699 27.6068 21.7114 27.511 22.1391L21.211 18.9844L21.4688 18.6234C21.5135 18.5401 21.5742 18.4665 21.6475 18.4067C21.7208 18.347 21.8052 18.3023 21.8958 18.2753C21.9864 18.2483 22.0815 18.2395 22.1755 18.2493C22.2696 18.2592 22.3607 18.2876 22.4438 18.3328H22.4391ZM8.99064 4.53281L9.52501 5.83593C10.2375 7.57968 10.7953 8.93437 10.9031 9.15468C10.977 9.26349 11.0232 9.38861 11.0379 9.51927C11.0526 9.64993 11.0353 9.7822 10.9875 9.90468C10.8474 10.1985 10.6606 10.4676 10.4344 10.7016V10.7297L7.53751 3.75H8.05783C8.57814 3.79687 8.68595 3.80156 8.99064 4.53281ZM23.3813 26.0953C22.4438 26.2969 21.1688 26.5641 16.261 24.5203C12.6563 23.0344 9.01876 19.8375 6.09376 15.5484L5.95783 15.3516L5.92501 15.3094C5.03439 14.0812 3.53908 11.6578 3.53908 9.21562C3.50689 8.3242 3.66452 7.43611 4.00151 6.61021C4.33849 5.78431 4.84715 5.03945 5.49376 4.425L5.55001 4.36875C5.83221 4.10219 6.18263 3.91887 6.56251 3.83906C6.55969 3.86868 6.55969 3.8985 6.56251 3.92812L9.6797 11.4937C9.59064 11.5922 9.49689 11.7 9.40314 11.8172C9.14502 12.0418 8.97505 12.3507 8.92354 12.689C8.87203 13.0273 8.94232 13.3728 9.12189 13.6641C10.0761 15.2978 11.2672 16.7811 12.6563 18.0656C14.0882 19.3815 15.7482 20.4252 17.5547 21.1453L17.7422 21.2203C18.0734 21.3766 18.4449 21.4268 18.8057 21.3638C19.1665 21.3009 19.4991 21.128 19.7578 20.8687C20.0716 20.5147 20.3658 20.1439 20.6391 19.7578L27.2766 23.0766C27.2438 23.1891 27.211 23.3016 27.1688 23.4234C26.7422 24.675 24.8438 25.7812 23.3813 26.1187V26.0953Z" fill="black"/>
<path d="M8.7375 14.5969C8.66924 14.503 8.56861 14.4378 8.45506 14.4139C8.34151 14.39 8.22312 14.409 8.1228 14.4673C8.02247 14.5257 7.94735 14.6191 7.91197 14.7296C7.87659 14.8402 7.88346 14.9599 7.93125 15.0656C8.08593 15.3281 8.3625 15.7312 8.66718 16.1437C8.70381 16.1933 8.74984 16.2352 8.80264 16.2669C8.85544 16.2987 8.91398 16.3197 8.97492 16.3289C9.03586 16.338 9.098 16.3351 9.1578 16.3202C9.2176 16.3053 9.27388 16.2788 9.32343 16.2422C9.37299 16.2056 9.41484 16.1595 9.44661 16.1067C9.47837 16.0539 9.49943 15.9954 9.50857 15.9344C9.51771 15.8735 9.51476 15.8114 9.49988 15.7516C9.48501 15.6918 9.4585 15.6355 9.42187 15.5859C9.17735 15.2679 8.94894 14.9378 8.7375 14.5969V14.5969ZM15.8859 21.3C14.5648 20.5963 13.3379 19.7285 12.2344 18.7172C11.6829 18.2192 11.1602 17.6902 10.6687 17.1328C10.6278 17.0866 10.5782 17.049 10.5227 17.022C10.4672 16.995 10.4069 16.9792 10.3454 16.9755C10.2838 16.9718 10.222 16.9803 10.1637 17.0004C10.1054 17.0206 10.0516 17.052 10.0055 17.093C9.9593 17.1339 9.92165 17.1835 9.89466 17.239C9.86767 17.2945 9.85187 17.3548 9.84817 17.4164C9.84447 17.4779 9.85294 17.5397 9.87309 17.598C9.89324 17.6563 9.92469 17.7101 9.96562 17.7562C10.482 18.3418 11.0313 18.8974 11.6109 19.4203C12.7774 20.4826 14.0736 21.393 15.4687 22.1297C15.5235 22.158 15.5834 22.1752 15.6448 22.1804C15.7063 22.1856 15.7681 22.1787 15.8269 22.16C15.8857 22.1412 15.9402 22.1111 15.9873 22.0714C16.0344 22.0316 16.0732 21.9829 16.1016 21.9281C16.1299 21.8733 16.1471 21.8135 16.1523 21.7521C16.1575 21.6906 16.1506 21.6287 16.1318 21.57C16.1131 21.5112 16.083 21.4567 16.0432 21.4096C16.0035 21.3625 15.9548 21.3236 15.9 21.2953L15.8859 21.3ZM13.2328 5.23593C13.2796 5.35077 13.37 5.44239 13.4842 5.49071C13.5985 5.53903 13.7272 5.54012 13.8422 5.49374L16.4484 4.43906C16.5561 4.38753 16.64 4.29687 16.6831 4.18558C16.7263 4.07429 16.7253 3.95074 16.6805 3.84014C16.6356 3.72953 16.5503 3.64019 16.4418 3.59034C16.3334 3.54049 16.21 3.53389 16.0969 3.57187L13.4906 4.62656C13.3758 4.67337 13.2842 4.76378 13.2358 4.87799C13.1875 4.99221 13.1864 5.12091 13.2328 5.23593ZM11.8547 3.23437C11.9786 3.23634 12.0983 3.18915 12.1875 3.10312L13.5375 1.79999C13.627 1.71235 13.678 1.59273 13.6794 1.46747C13.6807 1.3422 13.6322 1.22154 13.5445 1.13203C13.4569 1.04251 13.3373 0.991488 13.212 0.990169C13.0867 0.98885 12.9661 1.03735 12.8766 1.12499L11.5312 2.42812C11.4641 2.49286 11.4178 2.57616 11.3982 2.66738C11.3787 2.75859 11.3868 2.85357 11.4215 2.94015C11.4562 3.02673 11.516 3.10098 11.5932 3.15339C11.6703 3.2058 11.7614 3.234 11.8547 3.23437V3.23437ZM13.9594 7.49999C13.8351 7.49999 13.7158 7.54938 13.6279 7.63729C13.54 7.7252 13.4906 7.84442 13.4906 7.96874C13.4906 8.09306 13.54 8.21229 13.6279 8.3002C13.7158 8.38811 13.8351 8.43749 13.9594 8.43749H15.8344C15.9587 8.43749 16.0779 8.38811 16.1658 8.3002C16.2537 8.21229 16.3031 8.09306 16.3031 7.96874C16.3031 7.84442 16.2537 7.7252 16.1658 7.63729C16.0779 7.54938 15.9587 7.49999 15.8344 7.49999H13.9594Z" fill="black"/>
</svg>
